%TF.GenerationSoftware,KiCad,Pcbnew,(6.0.9)*%
%TF.CreationDate,2022-12-12T15:43:42+01:00*%
%TF.ProjectId,BigFoot-Enclosure,42696746-6f6f-4742-9d45-6e636c6f7375,rev?*%
%TF.SameCoordinates,Original*%
%TF.FileFunction,AssemblyDrawing,Top*%
%FSLAX46Y46*%
G04 Gerber Fmt 4.6, Leading zero omitted, Abs format (unit mm)*
G04 Created by KiCad (PCBNEW (6.0.9)) date 2022-12-12 15:43:42*
%MOMM*%
%LPD*%
G01*
G04 APERTURE LIST*
%ADD10C,0.150000*%
G04 APERTURE END LIST*
D10*
%TO.C,Bank+*%
X251714285Y-78052380D02*
X251714285Y-77052380D01*
X252047619Y-77766666D01*
X252380952Y-77052380D01*
X252380952Y-78052380D01*
X253000000Y-78052380D02*
X252904761Y-78004761D01*
X252857142Y-77957142D01*
X252809523Y-77861904D01*
X252809523Y-77576190D01*
X252857142Y-77480952D01*
X252904761Y-77433333D01*
X253000000Y-77385714D01*
X253142857Y-77385714D01*
X253238095Y-77433333D01*
X253285714Y-77480952D01*
X253333333Y-77576190D01*
X253333333Y-77861904D01*
X253285714Y-77957142D01*
X253238095Y-78004761D01*
X253142857Y-78052380D01*
X253000000Y-78052380D01*
X254190476Y-77385714D02*
X254190476Y-78052380D01*
X253761904Y-77385714D02*
X253761904Y-77909523D01*
X253809523Y-78004761D01*
X253904761Y-78052380D01*
X254047619Y-78052380D01*
X254142857Y-78004761D01*
X254190476Y-77957142D01*
X254666666Y-77385714D02*
X254666666Y-78052380D01*
X254666666Y-77480952D02*
X254714285Y-77433333D01*
X254809523Y-77385714D01*
X254952380Y-77385714D01*
X255047619Y-77433333D01*
X255095238Y-77528571D01*
X255095238Y-78052380D01*
X255428571Y-77385714D02*
X255809523Y-77385714D01*
X255571428Y-77052380D02*
X255571428Y-77909523D01*
X255619047Y-78004761D01*
X255714285Y-78052380D01*
X255809523Y-78052380D01*
X256142857Y-78052380D02*
X256142857Y-77385714D01*
X256142857Y-77052380D02*
X256095238Y-77100000D01*
X256142857Y-77147619D01*
X256190476Y-77100000D01*
X256142857Y-77052380D01*
X256142857Y-77147619D01*
X256619047Y-77385714D02*
X256619047Y-78052380D01*
X256619047Y-77480952D02*
X256666666Y-77433333D01*
X256761904Y-77385714D01*
X256904761Y-77385714D01*
X257000000Y-77433333D01*
X257047619Y-77528571D01*
X257047619Y-78052380D01*
X257952380Y-77385714D02*
X257952380Y-78195238D01*
X257904761Y-78290476D01*
X257857142Y-78338095D01*
X257761904Y-78385714D01*
X257619047Y-78385714D01*
X257523809Y-78338095D01*
X257952380Y-78004761D02*
X257857142Y-78052380D01*
X257666666Y-78052380D01*
X257571428Y-78004761D01*
X257523809Y-77957142D01*
X257476190Y-77861904D01*
X257476190Y-77576190D01*
X257523809Y-77480952D01*
X257571428Y-77433333D01*
X257666666Y-77385714D01*
X257857142Y-77385714D01*
X257952380Y-77433333D01*
X258428571Y-78052380D02*
X258428571Y-77052380D01*
X258428571Y-77528571D02*
X259000000Y-77528571D01*
X259000000Y-78052380D02*
X259000000Y-77052380D01*
X259619047Y-78052380D02*
X259523809Y-78004761D01*
X259476190Y-77957142D01*
X259428571Y-77861904D01*
X259428571Y-77576190D01*
X259476190Y-77480952D01*
X259523809Y-77433333D01*
X259619047Y-77385714D01*
X259761904Y-77385714D01*
X259857142Y-77433333D01*
X259904761Y-77480952D01*
X259952380Y-77576190D01*
X259952380Y-77861904D01*
X259904761Y-77957142D01*
X259857142Y-78004761D01*
X259761904Y-78052380D01*
X259619047Y-78052380D01*
X260523809Y-78052380D02*
X260428571Y-78004761D01*
X260380952Y-77909523D01*
X260380952Y-77052380D01*
X261285714Y-78004761D02*
X261190476Y-78052380D01*
X261000000Y-78052380D01*
X260904761Y-78004761D01*
X260857142Y-77909523D01*
X260857142Y-77528571D01*
X260904761Y-77433333D01*
X261000000Y-77385714D01*
X261190476Y-77385714D01*
X261285714Y-77433333D01*
X261333333Y-77528571D01*
X261333333Y-77623809D01*
X260857142Y-77719047D01*
X254642857Y-88528571D02*
X254785714Y-88576190D01*
X254833333Y-88623809D01*
X254880952Y-88719047D01*
X254880952Y-88861904D01*
X254833333Y-88957142D01*
X254785714Y-89004761D01*
X254690476Y-89052380D01*
X254309523Y-89052380D01*
X254309523Y-88052380D01*
X254642857Y-88052380D01*
X254738095Y-88100000D01*
X254785714Y-88147619D01*
X254833333Y-88242857D01*
X254833333Y-88338095D01*
X254785714Y-88433333D01*
X254738095Y-88480952D01*
X254642857Y-88528571D01*
X254309523Y-88528571D01*
X255738095Y-89052380D02*
X255738095Y-88528571D01*
X255690476Y-88433333D01*
X255595238Y-88385714D01*
X255404761Y-88385714D01*
X255309523Y-88433333D01*
X255738095Y-89004761D02*
X255642857Y-89052380D01*
X255404761Y-89052380D01*
X255309523Y-89004761D01*
X255261904Y-88909523D01*
X255261904Y-88814285D01*
X255309523Y-88719047D01*
X255404761Y-88671428D01*
X255642857Y-88671428D01*
X255738095Y-88623809D01*
X256214285Y-88385714D02*
X256214285Y-89052380D01*
X256214285Y-88480952D02*
X256261904Y-88433333D01*
X256357142Y-88385714D01*
X256500000Y-88385714D01*
X256595238Y-88433333D01*
X256642857Y-88528571D01*
X256642857Y-89052380D01*
X257119047Y-89052380D02*
X257119047Y-88052380D01*
X257214285Y-88671428D02*
X257500000Y-89052380D01*
X257500000Y-88385714D02*
X257119047Y-88766666D01*
X257928571Y-88671428D02*
X258690476Y-88671428D01*
X258309523Y-89052380D02*
X258309523Y-88290476D01*
%TO.C,H1*%
X265914285Y-151652380D02*
X265914285Y-150652380D01*
X266247619Y-151366666D01*
X266580952Y-150652380D01*
X266580952Y-151652380D01*
X267200000Y-151652380D02*
X267104761Y-151604761D01*
X267057142Y-151557142D01*
X267009523Y-151461904D01*
X267009523Y-151176190D01*
X267057142Y-151080952D01*
X267104761Y-151033333D01*
X267200000Y-150985714D01*
X267342857Y-150985714D01*
X267438095Y-151033333D01*
X267485714Y-151080952D01*
X267533333Y-151176190D01*
X267533333Y-151461904D01*
X267485714Y-151557142D01*
X267438095Y-151604761D01*
X267342857Y-151652380D01*
X267200000Y-151652380D01*
X268390476Y-150985714D02*
X268390476Y-151652380D01*
X267961904Y-150985714D02*
X267961904Y-151509523D01*
X268009523Y-151604761D01*
X268104761Y-151652380D01*
X268247619Y-151652380D01*
X268342857Y-151604761D01*
X268390476Y-151557142D01*
X268866666Y-150985714D02*
X268866666Y-151652380D01*
X268866666Y-151080952D02*
X268914285Y-151033333D01*
X269009523Y-150985714D01*
X269152380Y-150985714D01*
X269247619Y-151033333D01*
X269295238Y-151128571D01*
X269295238Y-151652380D01*
X269628571Y-150985714D02*
X270009523Y-150985714D01*
X269771428Y-150652380D02*
X269771428Y-151509523D01*
X269819047Y-151604761D01*
X269914285Y-151652380D01*
X270009523Y-151652380D01*
X270342857Y-151652380D02*
X270342857Y-150985714D01*
X270342857Y-150652380D02*
X270295238Y-150700000D01*
X270342857Y-150747619D01*
X270390476Y-150700000D01*
X270342857Y-150652380D01*
X270342857Y-150747619D01*
X270819047Y-150985714D02*
X270819047Y-151652380D01*
X270819047Y-151080952D02*
X270866666Y-151033333D01*
X270961904Y-150985714D01*
X271104761Y-150985714D01*
X271200000Y-151033333D01*
X271247619Y-151128571D01*
X271247619Y-151652380D01*
X272152380Y-150985714D02*
X272152380Y-151795238D01*
X272104761Y-151890476D01*
X272057142Y-151938095D01*
X271961904Y-151985714D01*
X271819047Y-151985714D01*
X271723809Y-151938095D01*
X272152380Y-151604761D02*
X272057142Y-151652380D01*
X271866666Y-151652380D01*
X271771428Y-151604761D01*
X271723809Y-151557142D01*
X271676190Y-151461904D01*
X271676190Y-151176190D01*
X271723809Y-151080952D01*
X271771428Y-151033333D01*
X271866666Y-150985714D01*
X272057142Y-150985714D01*
X272152380Y-151033333D01*
X272628571Y-151652380D02*
X272628571Y-150652380D01*
X272628571Y-151128571D02*
X273200000Y-151128571D01*
X273200000Y-151652380D02*
X273200000Y-150652380D01*
X273819047Y-151652380D02*
X273723809Y-151604761D01*
X273676190Y-151557142D01*
X273628571Y-151461904D01*
X273628571Y-151176190D01*
X273676190Y-151080952D01*
X273723809Y-151033333D01*
X273819047Y-150985714D01*
X273961904Y-150985714D01*
X274057142Y-151033333D01*
X274104761Y-151080952D01*
X274152380Y-151176190D01*
X274152380Y-151461904D01*
X274104761Y-151557142D01*
X274057142Y-151604761D01*
X273961904Y-151652380D01*
X273819047Y-151652380D01*
X274723809Y-151652380D02*
X274628571Y-151604761D01*
X274580952Y-151509523D01*
X274580952Y-150652380D01*
X275485714Y-151604761D02*
X275390476Y-151652380D01*
X275200000Y-151652380D01*
X275104761Y-151604761D01*
X275057142Y-151509523D01*
X275057142Y-151128571D01*
X275104761Y-151033333D01*
X275200000Y-150985714D01*
X275390476Y-150985714D01*
X275485714Y-151033333D01*
X275533333Y-151128571D01*
X275533333Y-151223809D01*
X275057142Y-151319047D01*
X269938095Y-147452380D02*
X269938095Y-146452380D01*
X269938095Y-146928571D02*
X270509523Y-146928571D01*
X270509523Y-147452380D02*
X270509523Y-146452380D01*
X271509523Y-147452380D02*
X270938095Y-147452380D01*
X271223809Y-147452380D02*
X271223809Y-146452380D01*
X271128571Y-146595238D01*
X271033333Y-146690476D01*
X270938095Y-146738095D01*
%TO.C,Switch5*%
X58414285Y-117252380D02*
X58414285Y-116252380D01*
X58747619Y-116966666D01*
X59080952Y-116252380D01*
X59080952Y-117252380D01*
X59700000Y-117252380D02*
X59604761Y-117204761D01*
X59557142Y-117157142D01*
X59509523Y-117061904D01*
X59509523Y-116776190D01*
X59557142Y-116680952D01*
X59604761Y-116633333D01*
X59700000Y-116585714D01*
X59842857Y-116585714D01*
X59938095Y-116633333D01*
X59985714Y-116680952D01*
X60033333Y-116776190D01*
X60033333Y-117061904D01*
X59985714Y-117157142D01*
X59938095Y-117204761D01*
X59842857Y-117252380D01*
X59700000Y-117252380D01*
X60890476Y-116585714D02*
X60890476Y-117252380D01*
X60461904Y-116585714D02*
X60461904Y-117109523D01*
X60509523Y-117204761D01*
X60604761Y-117252380D01*
X60747619Y-117252380D01*
X60842857Y-117204761D01*
X60890476Y-117157142D01*
X61366666Y-116585714D02*
X61366666Y-117252380D01*
X61366666Y-116680952D02*
X61414285Y-116633333D01*
X61509523Y-116585714D01*
X61652380Y-116585714D01*
X61747619Y-116633333D01*
X61795238Y-116728571D01*
X61795238Y-117252380D01*
X62128571Y-116585714D02*
X62509523Y-116585714D01*
X62271428Y-116252380D02*
X62271428Y-117109523D01*
X62319047Y-117204761D01*
X62414285Y-117252380D01*
X62509523Y-117252380D01*
X62842857Y-117252380D02*
X62842857Y-116585714D01*
X62842857Y-116252380D02*
X62795238Y-116300000D01*
X62842857Y-116347619D01*
X62890476Y-116300000D01*
X62842857Y-116252380D01*
X62842857Y-116347619D01*
X63319047Y-116585714D02*
X63319047Y-117252380D01*
X63319047Y-116680952D02*
X63366666Y-116633333D01*
X63461904Y-116585714D01*
X63604761Y-116585714D01*
X63700000Y-116633333D01*
X63747619Y-116728571D01*
X63747619Y-117252380D01*
X64652380Y-116585714D02*
X64652380Y-117395238D01*
X64604761Y-117490476D01*
X64557142Y-117538095D01*
X64461904Y-117585714D01*
X64319047Y-117585714D01*
X64223809Y-117538095D01*
X64652380Y-117204761D02*
X64557142Y-117252380D01*
X64366666Y-117252380D01*
X64271428Y-117204761D01*
X64223809Y-117157142D01*
X64176190Y-117061904D01*
X64176190Y-116776190D01*
X64223809Y-116680952D01*
X64271428Y-116633333D01*
X64366666Y-116585714D01*
X64557142Y-116585714D01*
X64652380Y-116633333D01*
X65128571Y-117252380D02*
X65128571Y-116252380D01*
X65128571Y-116728571D02*
X65700000Y-116728571D01*
X65700000Y-117252380D02*
X65700000Y-116252380D01*
X66319047Y-117252380D02*
X66223809Y-117204761D01*
X66176190Y-117157142D01*
X66128571Y-117061904D01*
X66128571Y-116776190D01*
X66176190Y-116680952D01*
X66223809Y-116633333D01*
X66319047Y-116585714D01*
X66461904Y-116585714D01*
X66557142Y-116633333D01*
X66604761Y-116680952D01*
X66652380Y-116776190D01*
X66652380Y-117061904D01*
X66604761Y-117157142D01*
X66557142Y-117204761D01*
X66461904Y-117252380D01*
X66319047Y-117252380D01*
X67223809Y-117252380D02*
X67128571Y-117204761D01*
X67080952Y-117109523D01*
X67080952Y-116252380D01*
X67985714Y-117204761D02*
X67890476Y-117252380D01*
X67700000Y-117252380D01*
X67604761Y-117204761D01*
X67557142Y-117109523D01*
X67557142Y-116728571D01*
X67604761Y-116633333D01*
X67700000Y-116585714D01*
X67890476Y-116585714D01*
X67985714Y-116633333D01*
X68033333Y-116728571D01*
X68033333Y-116823809D01*
X67557142Y-116919047D01*
X60509523Y-128204761D02*
X60652380Y-128252380D01*
X60890476Y-128252380D01*
X60985714Y-128204761D01*
X61033333Y-128157142D01*
X61080952Y-128061904D01*
X61080952Y-127966666D01*
X61033333Y-127871428D01*
X60985714Y-127823809D01*
X60890476Y-127776190D01*
X60700000Y-127728571D01*
X60604761Y-127680952D01*
X60557142Y-127633333D01*
X60509523Y-127538095D01*
X60509523Y-127442857D01*
X60557142Y-127347619D01*
X60604761Y-127300000D01*
X60700000Y-127252380D01*
X60938095Y-127252380D01*
X61080952Y-127300000D01*
X61414285Y-127585714D02*
X61604761Y-128252380D01*
X61795238Y-127776190D01*
X61985714Y-128252380D01*
X62176190Y-127585714D01*
X62557142Y-128252380D02*
X62557142Y-127585714D01*
X62557142Y-127252380D02*
X62509523Y-127300000D01*
X62557142Y-127347619D01*
X62604761Y-127300000D01*
X62557142Y-127252380D01*
X62557142Y-127347619D01*
X62890476Y-127585714D02*
X63271428Y-127585714D01*
X63033333Y-127252380D02*
X63033333Y-128109523D01*
X63080952Y-128204761D01*
X63176190Y-128252380D01*
X63271428Y-128252380D01*
X64033333Y-128204761D02*
X63938095Y-128252380D01*
X63747619Y-128252380D01*
X63652380Y-128204761D01*
X63604761Y-128157142D01*
X63557142Y-128061904D01*
X63557142Y-127776190D01*
X63604761Y-127680952D01*
X63652380Y-127633333D01*
X63747619Y-127585714D01*
X63938095Y-127585714D01*
X64033333Y-127633333D01*
X64461904Y-128252380D02*
X64461904Y-127252380D01*
X64890476Y-128252380D02*
X64890476Y-127728571D01*
X64842857Y-127633333D01*
X64747619Y-127585714D01*
X64604761Y-127585714D01*
X64509523Y-127633333D01*
X64461904Y-127680952D01*
X65842857Y-127252380D02*
X65366666Y-127252380D01*
X65319047Y-127728571D01*
X65366666Y-127680952D01*
X65461904Y-127633333D01*
X65700000Y-127633333D01*
X65795238Y-127680952D01*
X65842857Y-127728571D01*
X65890476Y-127823809D01*
X65890476Y-128061904D01*
X65842857Y-128157142D01*
X65795238Y-128204761D01*
X65700000Y-128252380D01*
X65461904Y-128252380D01*
X65366666Y-128204761D01*
X65319047Y-128157142D01*
%TO.C,Bank-*%
X251714285Y-105752380D02*
X251714285Y-104752380D01*
X252047619Y-105466666D01*
X252380952Y-104752380D01*
X252380952Y-105752380D01*
X253000000Y-105752380D02*
X252904761Y-105704761D01*
X252857142Y-105657142D01*
X252809523Y-105561904D01*
X252809523Y-105276190D01*
X252857142Y-105180952D01*
X252904761Y-105133333D01*
X253000000Y-105085714D01*
X253142857Y-105085714D01*
X253238095Y-105133333D01*
X253285714Y-105180952D01*
X253333333Y-105276190D01*
X253333333Y-105561904D01*
X253285714Y-105657142D01*
X253238095Y-105704761D01*
X253142857Y-105752380D01*
X253000000Y-105752380D01*
X254190476Y-105085714D02*
X254190476Y-105752380D01*
X253761904Y-105085714D02*
X253761904Y-105609523D01*
X253809523Y-105704761D01*
X253904761Y-105752380D01*
X254047619Y-105752380D01*
X254142857Y-105704761D01*
X254190476Y-105657142D01*
X254666666Y-105085714D02*
X254666666Y-105752380D01*
X254666666Y-105180952D02*
X254714285Y-105133333D01*
X254809523Y-105085714D01*
X254952380Y-105085714D01*
X255047619Y-105133333D01*
X255095238Y-105228571D01*
X255095238Y-105752380D01*
X255428571Y-105085714D02*
X255809523Y-105085714D01*
X255571428Y-104752380D02*
X255571428Y-105609523D01*
X255619047Y-105704761D01*
X255714285Y-105752380D01*
X255809523Y-105752380D01*
X256142857Y-105752380D02*
X256142857Y-105085714D01*
X256142857Y-104752380D02*
X256095238Y-104800000D01*
X256142857Y-104847619D01*
X256190476Y-104800000D01*
X256142857Y-104752380D01*
X256142857Y-104847619D01*
X256619047Y-105085714D02*
X256619047Y-105752380D01*
X256619047Y-105180952D02*
X256666666Y-105133333D01*
X256761904Y-105085714D01*
X256904761Y-105085714D01*
X257000000Y-105133333D01*
X257047619Y-105228571D01*
X257047619Y-105752380D01*
X257952380Y-105085714D02*
X257952380Y-105895238D01*
X257904761Y-105990476D01*
X257857142Y-106038095D01*
X257761904Y-106085714D01*
X257619047Y-106085714D01*
X257523809Y-106038095D01*
X257952380Y-105704761D02*
X257857142Y-105752380D01*
X257666666Y-105752380D01*
X257571428Y-105704761D01*
X257523809Y-105657142D01*
X257476190Y-105561904D01*
X257476190Y-105276190D01*
X257523809Y-105180952D01*
X257571428Y-105133333D01*
X257666666Y-105085714D01*
X257857142Y-105085714D01*
X257952380Y-105133333D01*
X258428571Y-105752380D02*
X258428571Y-104752380D01*
X258428571Y-105228571D02*
X259000000Y-105228571D01*
X259000000Y-105752380D02*
X259000000Y-104752380D01*
X259619047Y-105752380D02*
X259523809Y-105704761D01*
X259476190Y-105657142D01*
X259428571Y-105561904D01*
X259428571Y-105276190D01*
X259476190Y-105180952D01*
X259523809Y-105133333D01*
X259619047Y-105085714D01*
X259761904Y-105085714D01*
X259857142Y-105133333D01*
X259904761Y-105180952D01*
X259952380Y-105276190D01*
X259952380Y-105561904D01*
X259904761Y-105657142D01*
X259857142Y-105704761D01*
X259761904Y-105752380D01*
X259619047Y-105752380D01*
X260523809Y-105752380D02*
X260428571Y-105704761D01*
X260380952Y-105609523D01*
X260380952Y-104752380D01*
X261285714Y-105704761D02*
X261190476Y-105752380D01*
X261000000Y-105752380D01*
X260904761Y-105704761D01*
X260857142Y-105609523D01*
X260857142Y-105228571D01*
X260904761Y-105133333D01*
X261000000Y-105085714D01*
X261190476Y-105085714D01*
X261285714Y-105133333D01*
X261333333Y-105228571D01*
X261333333Y-105323809D01*
X260857142Y-105419047D01*
X254642857Y-116228571D02*
X254785714Y-116276190D01*
X254833333Y-116323809D01*
X254880952Y-116419047D01*
X254880952Y-116561904D01*
X254833333Y-116657142D01*
X254785714Y-116704761D01*
X254690476Y-116752380D01*
X254309523Y-116752380D01*
X254309523Y-115752380D01*
X254642857Y-115752380D01*
X254738095Y-115800000D01*
X254785714Y-115847619D01*
X254833333Y-115942857D01*
X254833333Y-116038095D01*
X254785714Y-116133333D01*
X254738095Y-116180952D01*
X254642857Y-116228571D01*
X254309523Y-116228571D01*
X255738095Y-116752380D02*
X255738095Y-116228571D01*
X255690476Y-116133333D01*
X255595238Y-116085714D01*
X255404761Y-116085714D01*
X255309523Y-116133333D01*
X255738095Y-116704761D02*
X255642857Y-116752380D01*
X255404761Y-116752380D01*
X255309523Y-116704761D01*
X255261904Y-116609523D01*
X255261904Y-116514285D01*
X255309523Y-116419047D01*
X255404761Y-116371428D01*
X255642857Y-116371428D01*
X255738095Y-116323809D01*
X256214285Y-116085714D02*
X256214285Y-116752380D01*
X256214285Y-116180952D02*
X256261904Y-116133333D01*
X256357142Y-116085714D01*
X256500000Y-116085714D01*
X256595238Y-116133333D01*
X256642857Y-116228571D01*
X256642857Y-116752380D01*
X257119047Y-116752380D02*
X257119047Y-115752380D01*
X257214285Y-116371428D02*
X257500000Y-116752380D01*
X257500000Y-116085714D02*
X257119047Y-116466666D01*
X257928571Y-116371428D02*
X258690476Y-116371428D01*
%TO.C,Switch3*%
X165314285Y-67852380D02*
X165314285Y-66852380D01*
X165647619Y-67566666D01*
X165980952Y-66852380D01*
X165980952Y-67852380D01*
X166600000Y-67852380D02*
X166504761Y-67804761D01*
X166457142Y-67757142D01*
X166409523Y-67661904D01*
X166409523Y-67376190D01*
X166457142Y-67280952D01*
X166504761Y-67233333D01*
X166600000Y-67185714D01*
X166742857Y-67185714D01*
X166838095Y-67233333D01*
X166885714Y-67280952D01*
X166933333Y-67376190D01*
X166933333Y-67661904D01*
X166885714Y-67757142D01*
X166838095Y-67804761D01*
X166742857Y-67852380D01*
X166600000Y-67852380D01*
X167790476Y-67185714D02*
X167790476Y-67852380D01*
X167361904Y-67185714D02*
X167361904Y-67709523D01*
X167409523Y-67804761D01*
X167504761Y-67852380D01*
X167647619Y-67852380D01*
X167742857Y-67804761D01*
X167790476Y-67757142D01*
X168266666Y-67185714D02*
X168266666Y-67852380D01*
X168266666Y-67280952D02*
X168314285Y-67233333D01*
X168409523Y-67185714D01*
X168552380Y-67185714D01*
X168647619Y-67233333D01*
X168695238Y-67328571D01*
X168695238Y-67852380D01*
X169028571Y-67185714D02*
X169409523Y-67185714D01*
X169171428Y-66852380D02*
X169171428Y-67709523D01*
X169219047Y-67804761D01*
X169314285Y-67852380D01*
X169409523Y-67852380D01*
X169742857Y-67852380D02*
X169742857Y-67185714D01*
X169742857Y-66852380D02*
X169695238Y-66900000D01*
X169742857Y-66947619D01*
X169790476Y-66900000D01*
X169742857Y-66852380D01*
X169742857Y-66947619D01*
X170219047Y-67185714D02*
X170219047Y-67852380D01*
X170219047Y-67280952D02*
X170266666Y-67233333D01*
X170361904Y-67185714D01*
X170504761Y-67185714D01*
X170600000Y-67233333D01*
X170647619Y-67328571D01*
X170647619Y-67852380D01*
X171552380Y-67185714D02*
X171552380Y-67995238D01*
X171504761Y-68090476D01*
X171457142Y-68138095D01*
X171361904Y-68185714D01*
X171219047Y-68185714D01*
X171123809Y-68138095D01*
X171552380Y-67804761D02*
X171457142Y-67852380D01*
X171266666Y-67852380D01*
X171171428Y-67804761D01*
X171123809Y-67757142D01*
X171076190Y-67661904D01*
X171076190Y-67376190D01*
X171123809Y-67280952D01*
X171171428Y-67233333D01*
X171266666Y-67185714D01*
X171457142Y-67185714D01*
X171552380Y-67233333D01*
X172028571Y-67852380D02*
X172028571Y-66852380D01*
X172028571Y-67328571D02*
X172600000Y-67328571D01*
X172600000Y-67852380D02*
X172600000Y-66852380D01*
X173219047Y-67852380D02*
X173123809Y-67804761D01*
X173076190Y-67757142D01*
X173028571Y-67661904D01*
X173028571Y-67376190D01*
X173076190Y-67280952D01*
X173123809Y-67233333D01*
X173219047Y-67185714D01*
X173361904Y-67185714D01*
X173457142Y-67233333D01*
X173504761Y-67280952D01*
X173552380Y-67376190D01*
X173552380Y-67661904D01*
X173504761Y-67757142D01*
X173457142Y-67804761D01*
X173361904Y-67852380D01*
X173219047Y-67852380D01*
X174123809Y-67852380D02*
X174028571Y-67804761D01*
X173980952Y-67709523D01*
X173980952Y-66852380D01*
X174885714Y-67804761D02*
X174790476Y-67852380D01*
X174600000Y-67852380D01*
X174504761Y-67804761D01*
X174457142Y-67709523D01*
X174457142Y-67328571D01*
X174504761Y-67233333D01*
X174600000Y-67185714D01*
X174790476Y-67185714D01*
X174885714Y-67233333D01*
X174933333Y-67328571D01*
X174933333Y-67423809D01*
X174457142Y-67519047D01*
X167409523Y-78804761D02*
X167552380Y-78852380D01*
X167790476Y-78852380D01*
X167885714Y-78804761D01*
X167933333Y-78757142D01*
X167980952Y-78661904D01*
X167980952Y-78566666D01*
X167933333Y-78471428D01*
X167885714Y-78423809D01*
X167790476Y-78376190D01*
X167600000Y-78328571D01*
X167504761Y-78280952D01*
X167457142Y-78233333D01*
X167409523Y-78138095D01*
X167409523Y-78042857D01*
X167457142Y-77947619D01*
X167504761Y-77900000D01*
X167600000Y-77852380D01*
X167838095Y-77852380D01*
X167980952Y-77900000D01*
X168314285Y-78185714D02*
X168504761Y-78852380D01*
X168695238Y-78376190D01*
X168885714Y-78852380D01*
X169076190Y-78185714D01*
X169457142Y-78852380D02*
X169457142Y-78185714D01*
X169457142Y-77852380D02*
X169409523Y-77900000D01*
X169457142Y-77947619D01*
X169504761Y-77900000D01*
X169457142Y-77852380D01*
X169457142Y-77947619D01*
X169790476Y-78185714D02*
X170171428Y-78185714D01*
X169933333Y-77852380D02*
X169933333Y-78709523D01*
X169980952Y-78804761D01*
X170076190Y-78852380D01*
X170171428Y-78852380D01*
X170933333Y-78804761D02*
X170838095Y-78852380D01*
X170647619Y-78852380D01*
X170552380Y-78804761D01*
X170504761Y-78757142D01*
X170457142Y-78661904D01*
X170457142Y-78376190D01*
X170504761Y-78280952D01*
X170552380Y-78233333D01*
X170647619Y-78185714D01*
X170838095Y-78185714D01*
X170933333Y-78233333D01*
X171361904Y-78852380D02*
X171361904Y-77852380D01*
X171790476Y-78852380D02*
X171790476Y-78328571D01*
X171742857Y-78233333D01*
X171647619Y-78185714D01*
X171504761Y-78185714D01*
X171409523Y-78233333D01*
X171361904Y-78280952D01*
X172171428Y-77852380D02*
X172790476Y-77852380D01*
X172457142Y-78233333D01*
X172600000Y-78233333D01*
X172695238Y-78280952D01*
X172742857Y-78328571D01*
X172790476Y-78423809D01*
X172790476Y-78661904D01*
X172742857Y-78757142D01*
X172695238Y-78804761D01*
X172600000Y-78852380D01*
X172314285Y-78852380D01*
X172219047Y-78804761D01*
X172171428Y-78757142D01*
%TO.C,Switch2*%
X112014285Y-67852380D02*
X112014285Y-66852380D01*
X112347619Y-67566666D01*
X112680952Y-66852380D01*
X112680952Y-67852380D01*
X113300000Y-67852380D02*
X113204761Y-67804761D01*
X113157142Y-67757142D01*
X113109523Y-67661904D01*
X113109523Y-67376190D01*
X113157142Y-67280952D01*
X113204761Y-67233333D01*
X113300000Y-67185714D01*
X113442857Y-67185714D01*
X113538095Y-67233333D01*
X113585714Y-67280952D01*
X113633333Y-67376190D01*
X113633333Y-67661904D01*
X113585714Y-67757142D01*
X113538095Y-67804761D01*
X113442857Y-67852380D01*
X113300000Y-67852380D01*
X114490476Y-67185714D02*
X114490476Y-67852380D01*
X114061904Y-67185714D02*
X114061904Y-67709523D01*
X114109523Y-67804761D01*
X114204761Y-67852380D01*
X114347619Y-67852380D01*
X114442857Y-67804761D01*
X114490476Y-67757142D01*
X114966666Y-67185714D02*
X114966666Y-67852380D01*
X114966666Y-67280952D02*
X115014285Y-67233333D01*
X115109523Y-67185714D01*
X115252380Y-67185714D01*
X115347619Y-67233333D01*
X115395238Y-67328571D01*
X115395238Y-67852380D01*
X115728571Y-67185714D02*
X116109523Y-67185714D01*
X115871428Y-66852380D02*
X115871428Y-67709523D01*
X115919047Y-67804761D01*
X116014285Y-67852380D01*
X116109523Y-67852380D01*
X116442857Y-67852380D02*
X116442857Y-67185714D01*
X116442857Y-66852380D02*
X116395238Y-66900000D01*
X116442857Y-66947619D01*
X116490476Y-66900000D01*
X116442857Y-66852380D01*
X116442857Y-66947619D01*
X116919047Y-67185714D02*
X116919047Y-67852380D01*
X116919047Y-67280952D02*
X116966666Y-67233333D01*
X117061904Y-67185714D01*
X117204761Y-67185714D01*
X117300000Y-67233333D01*
X117347619Y-67328571D01*
X117347619Y-67852380D01*
X118252380Y-67185714D02*
X118252380Y-67995238D01*
X118204761Y-68090476D01*
X118157142Y-68138095D01*
X118061904Y-68185714D01*
X117919047Y-68185714D01*
X117823809Y-68138095D01*
X118252380Y-67804761D02*
X118157142Y-67852380D01*
X117966666Y-67852380D01*
X117871428Y-67804761D01*
X117823809Y-67757142D01*
X117776190Y-67661904D01*
X117776190Y-67376190D01*
X117823809Y-67280952D01*
X117871428Y-67233333D01*
X117966666Y-67185714D01*
X118157142Y-67185714D01*
X118252380Y-67233333D01*
X118728571Y-67852380D02*
X118728571Y-66852380D01*
X118728571Y-67328571D02*
X119300000Y-67328571D01*
X119300000Y-67852380D02*
X119300000Y-66852380D01*
X119919047Y-67852380D02*
X119823809Y-67804761D01*
X119776190Y-67757142D01*
X119728571Y-67661904D01*
X119728571Y-67376190D01*
X119776190Y-67280952D01*
X119823809Y-67233333D01*
X119919047Y-67185714D01*
X120061904Y-67185714D01*
X120157142Y-67233333D01*
X120204761Y-67280952D01*
X120252380Y-67376190D01*
X120252380Y-67661904D01*
X120204761Y-67757142D01*
X120157142Y-67804761D01*
X120061904Y-67852380D01*
X119919047Y-67852380D01*
X120823809Y-67852380D02*
X120728571Y-67804761D01*
X120680952Y-67709523D01*
X120680952Y-66852380D01*
X121585714Y-67804761D02*
X121490476Y-67852380D01*
X121300000Y-67852380D01*
X121204761Y-67804761D01*
X121157142Y-67709523D01*
X121157142Y-67328571D01*
X121204761Y-67233333D01*
X121300000Y-67185714D01*
X121490476Y-67185714D01*
X121585714Y-67233333D01*
X121633333Y-67328571D01*
X121633333Y-67423809D01*
X121157142Y-67519047D01*
X114109523Y-78804761D02*
X114252380Y-78852380D01*
X114490476Y-78852380D01*
X114585714Y-78804761D01*
X114633333Y-78757142D01*
X114680952Y-78661904D01*
X114680952Y-78566666D01*
X114633333Y-78471428D01*
X114585714Y-78423809D01*
X114490476Y-78376190D01*
X114300000Y-78328571D01*
X114204761Y-78280952D01*
X114157142Y-78233333D01*
X114109523Y-78138095D01*
X114109523Y-78042857D01*
X114157142Y-77947619D01*
X114204761Y-77900000D01*
X114300000Y-77852380D01*
X114538095Y-77852380D01*
X114680952Y-77900000D01*
X115014285Y-78185714D02*
X115204761Y-78852380D01*
X115395238Y-78376190D01*
X115585714Y-78852380D01*
X115776190Y-78185714D01*
X116157142Y-78852380D02*
X116157142Y-78185714D01*
X116157142Y-77852380D02*
X116109523Y-77900000D01*
X116157142Y-77947619D01*
X116204761Y-77900000D01*
X116157142Y-77852380D01*
X116157142Y-77947619D01*
X116490476Y-78185714D02*
X116871428Y-78185714D01*
X116633333Y-77852380D02*
X116633333Y-78709523D01*
X116680952Y-78804761D01*
X116776190Y-78852380D01*
X116871428Y-78852380D01*
X117633333Y-78804761D02*
X117538095Y-78852380D01*
X117347619Y-78852380D01*
X117252380Y-78804761D01*
X117204761Y-78757142D01*
X117157142Y-78661904D01*
X117157142Y-78376190D01*
X117204761Y-78280952D01*
X117252380Y-78233333D01*
X117347619Y-78185714D01*
X117538095Y-78185714D01*
X117633333Y-78233333D01*
X118061904Y-78852380D02*
X118061904Y-77852380D01*
X118490476Y-78852380D02*
X118490476Y-78328571D01*
X118442857Y-78233333D01*
X118347619Y-78185714D01*
X118204761Y-78185714D01*
X118109523Y-78233333D01*
X118061904Y-78280952D01*
X118919047Y-77947619D02*
X118966666Y-77900000D01*
X119061904Y-77852380D01*
X119300000Y-77852380D01*
X119395238Y-77900000D01*
X119442857Y-77947619D01*
X119490476Y-78042857D01*
X119490476Y-78138095D01*
X119442857Y-78280952D01*
X118871428Y-78852380D01*
X119490476Y-78852380D01*
%TO.C,H1*%
X34414285Y-57352380D02*
X34414285Y-56352380D01*
X34747619Y-57066666D01*
X35080952Y-56352380D01*
X35080952Y-57352380D01*
X35700000Y-57352380D02*
X35604761Y-57304761D01*
X35557142Y-57257142D01*
X35509523Y-57161904D01*
X35509523Y-56876190D01*
X35557142Y-56780952D01*
X35604761Y-56733333D01*
X35700000Y-56685714D01*
X35842857Y-56685714D01*
X35938095Y-56733333D01*
X35985714Y-56780952D01*
X36033333Y-56876190D01*
X36033333Y-57161904D01*
X35985714Y-57257142D01*
X35938095Y-57304761D01*
X35842857Y-57352380D01*
X35700000Y-57352380D01*
X36890476Y-56685714D02*
X36890476Y-57352380D01*
X36461904Y-56685714D02*
X36461904Y-57209523D01*
X36509523Y-57304761D01*
X36604761Y-57352380D01*
X36747619Y-57352380D01*
X36842857Y-57304761D01*
X36890476Y-57257142D01*
X37366666Y-56685714D02*
X37366666Y-57352380D01*
X37366666Y-56780952D02*
X37414285Y-56733333D01*
X37509523Y-56685714D01*
X37652380Y-56685714D01*
X37747619Y-56733333D01*
X37795238Y-56828571D01*
X37795238Y-57352380D01*
X38128571Y-56685714D02*
X38509523Y-56685714D01*
X38271428Y-56352380D02*
X38271428Y-57209523D01*
X38319047Y-57304761D01*
X38414285Y-57352380D01*
X38509523Y-57352380D01*
X38842857Y-57352380D02*
X38842857Y-56685714D01*
X38842857Y-56352380D02*
X38795238Y-56400000D01*
X38842857Y-56447619D01*
X38890476Y-56400000D01*
X38842857Y-56352380D01*
X38842857Y-56447619D01*
X39319047Y-56685714D02*
X39319047Y-57352380D01*
X39319047Y-56780952D02*
X39366666Y-56733333D01*
X39461904Y-56685714D01*
X39604761Y-56685714D01*
X39700000Y-56733333D01*
X39747619Y-56828571D01*
X39747619Y-57352380D01*
X40652380Y-56685714D02*
X40652380Y-57495238D01*
X40604761Y-57590476D01*
X40557142Y-57638095D01*
X40461904Y-57685714D01*
X40319047Y-57685714D01*
X40223809Y-57638095D01*
X40652380Y-57304761D02*
X40557142Y-57352380D01*
X40366666Y-57352380D01*
X40271428Y-57304761D01*
X40223809Y-57257142D01*
X40176190Y-57161904D01*
X40176190Y-56876190D01*
X40223809Y-56780952D01*
X40271428Y-56733333D01*
X40366666Y-56685714D01*
X40557142Y-56685714D01*
X40652380Y-56733333D01*
X41128571Y-57352380D02*
X41128571Y-56352380D01*
X41128571Y-56828571D02*
X41700000Y-56828571D01*
X41700000Y-57352380D02*
X41700000Y-56352380D01*
X42319047Y-57352380D02*
X42223809Y-57304761D01*
X42176190Y-57257142D01*
X42128571Y-57161904D01*
X42128571Y-56876190D01*
X42176190Y-56780952D01*
X42223809Y-56733333D01*
X42319047Y-56685714D01*
X42461904Y-56685714D01*
X42557142Y-56733333D01*
X42604761Y-56780952D01*
X42652380Y-56876190D01*
X42652380Y-57161904D01*
X42604761Y-57257142D01*
X42557142Y-57304761D01*
X42461904Y-57352380D01*
X42319047Y-57352380D01*
X43223809Y-57352380D02*
X43128571Y-57304761D01*
X43080952Y-57209523D01*
X43080952Y-56352380D01*
X43985714Y-57304761D02*
X43890476Y-57352380D01*
X43700000Y-57352380D01*
X43604761Y-57304761D01*
X43557142Y-57209523D01*
X43557142Y-56828571D01*
X43604761Y-56733333D01*
X43700000Y-56685714D01*
X43890476Y-56685714D01*
X43985714Y-56733333D01*
X44033333Y-56828571D01*
X44033333Y-56923809D01*
X43557142Y-57019047D01*
X38438095Y-53152380D02*
X38438095Y-52152380D01*
X38438095Y-52628571D02*
X39009523Y-52628571D01*
X39009523Y-53152380D02*
X39009523Y-52152380D01*
X40009523Y-53152380D02*
X39438095Y-53152380D01*
X39723809Y-53152380D02*
X39723809Y-52152380D01*
X39628571Y-52295238D01*
X39533333Y-52390476D01*
X39438095Y-52438095D01*
%TO.C,Sw5*%
X38914285Y-121252380D02*
X38914285Y-120252380D01*
X39247619Y-120966666D01*
X39580952Y-120252380D01*
X39580952Y-121252380D01*
X40200000Y-121252380D02*
X40104761Y-121204761D01*
X40057142Y-121157142D01*
X40009523Y-121061904D01*
X40009523Y-120776190D01*
X40057142Y-120680952D01*
X40104761Y-120633333D01*
X40200000Y-120585714D01*
X40342857Y-120585714D01*
X40438095Y-120633333D01*
X40485714Y-120680952D01*
X40533333Y-120776190D01*
X40533333Y-121061904D01*
X40485714Y-121157142D01*
X40438095Y-121204761D01*
X40342857Y-121252380D01*
X40200000Y-121252380D01*
X41390476Y-120585714D02*
X41390476Y-121252380D01*
X40961904Y-120585714D02*
X40961904Y-121109523D01*
X41009523Y-121204761D01*
X41104761Y-121252380D01*
X41247619Y-121252380D01*
X41342857Y-121204761D01*
X41390476Y-121157142D01*
X41866666Y-120585714D02*
X41866666Y-121252380D01*
X41866666Y-120680952D02*
X41914285Y-120633333D01*
X42009523Y-120585714D01*
X42152380Y-120585714D01*
X42247619Y-120633333D01*
X42295238Y-120728571D01*
X42295238Y-121252380D01*
X42628571Y-120585714D02*
X43009523Y-120585714D01*
X42771428Y-120252380D02*
X42771428Y-121109523D01*
X42819047Y-121204761D01*
X42914285Y-121252380D01*
X43009523Y-121252380D01*
X43342857Y-121252380D02*
X43342857Y-120585714D01*
X43342857Y-120252380D02*
X43295238Y-120300000D01*
X43342857Y-120347619D01*
X43390476Y-120300000D01*
X43342857Y-120252380D01*
X43342857Y-120347619D01*
X43819047Y-120585714D02*
X43819047Y-121252380D01*
X43819047Y-120680952D02*
X43866666Y-120633333D01*
X43961904Y-120585714D01*
X44104761Y-120585714D01*
X44200000Y-120633333D01*
X44247619Y-120728571D01*
X44247619Y-121252380D01*
X45152380Y-120585714D02*
X45152380Y-121395238D01*
X45104761Y-121490476D01*
X45057142Y-121538095D01*
X44961904Y-121585714D01*
X44819047Y-121585714D01*
X44723809Y-121538095D01*
X45152380Y-121204761D02*
X45057142Y-121252380D01*
X44866666Y-121252380D01*
X44771428Y-121204761D01*
X44723809Y-121157142D01*
X44676190Y-121061904D01*
X44676190Y-120776190D01*
X44723809Y-120680952D01*
X44771428Y-120633333D01*
X44866666Y-120585714D01*
X45057142Y-120585714D01*
X45152380Y-120633333D01*
X45628571Y-121252380D02*
X45628571Y-120252380D01*
X45628571Y-120728571D02*
X46200000Y-120728571D01*
X46200000Y-121252380D02*
X46200000Y-120252380D01*
X46819047Y-121252380D02*
X46723809Y-121204761D01*
X46676190Y-121157142D01*
X46628571Y-121061904D01*
X46628571Y-120776190D01*
X46676190Y-120680952D01*
X46723809Y-120633333D01*
X46819047Y-120585714D01*
X46961904Y-120585714D01*
X47057142Y-120633333D01*
X47104761Y-120680952D01*
X47152380Y-120776190D01*
X47152380Y-121061904D01*
X47104761Y-121157142D01*
X47057142Y-121204761D01*
X46961904Y-121252380D01*
X46819047Y-121252380D01*
X47723809Y-121252380D02*
X47628571Y-121204761D01*
X47580952Y-121109523D01*
X47580952Y-120252380D01*
X48485714Y-121204761D02*
X48390476Y-121252380D01*
X48200000Y-121252380D01*
X48104761Y-121204761D01*
X48057142Y-121109523D01*
X48057142Y-120728571D01*
X48104761Y-120633333D01*
X48200000Y-120585714D01*
X48390476Y-120585714D01*
X48485714Y-120633333D01*
X48533333Y-120728571D01*
X48533333Y-120823809D01*
X48057142Y-120919047D01*
X42414285Y-125704761D02*
X42557142Y-125752380D01*
X42795238Y-125752380D01*
X42890476Y-125704761D01*
X42938095Y-125657142D01*
X42985714Y-125561904D01*
X42985714Y-125466666D01*
X42938095Y-125371428D01*
X42890476Y-125323809D01*
X42795238Y-125276190D01*
X42604761Y-125228571D01*
X42509523Y-125180952D01*
X42461904Y-125133333D01*
X42414285Y-125038095D01*
X42414285Y-124942857D01*
X42461904Y-124847619D01*
X42509523Y-124800000D01*
X42604761Y-124752380D01*
X42842857Y-124752380D01*
X42985714Y-124800000D01*
X43319047Y-125085714D02*
X43509523Y-125752380D01*
X43700000Y-125276190D01*
X43890476Y-125752380D01*
X44080952Y-125085714D01*
X44938095Y-124752380D02*
X44461904Y-124752380D01*
X44414285Y-125228571D01*
X44461904Y-125180952D01*
X44557142Y-125133333D01*
X44795238Y-125133333D01*
X44890476Y-125180952D01*
X44938095Y-125228571D01*
X44985714Y-125323809D01*
X44985714Y-125561904D01*
X44938095Y-125657142D01*
X44890476Y-125704761D01*
X44795238Y-125752380D01*
X44557142Y-125752380D01*
X44461904Y-125704761D01*
X44414285Y-125657142D01*
%TO.C,Switch7*%
X165314285Y-117252380D02*
X165314285Y-116252380D01*
X165647619Y-116966666D01*
X165980952Y-116252380D01*
X165980952Y-117252380D01*
X166600000Y-117252380D02*
X166504761Y-117204761D01*
X166457142Y-117157142D01*
X166409523Y-117061904D01*
X166409523Y-116776190D01*
X166457142Y-116680952D01*
X166504761Y-116633333D01*
X166600000Y-116585714D01*
X166742857Y-116585714D01*
X166838095Y-116633333D01*
X166885714Y-116680952D01*
X166933333Y-116776190D01*
X166933333Y-117061904D01*
X166885714Y-117157142D01*
X166838095Y-117204761D01*
X166742857Y-117252380D01*
X166600000Y-117252380D01*
X167790476Y-116585714D02*
X167790476Y-117252380D01*
X167361904Y-116585714D02*
X167361904Y-117109523D01*
X167409523Y-117204761D01*
X167504761Y-117252380D01*
X167647619Y-117252380D01*
X167742857Y-117204761D01*
X167790476Y-117157142D01*
X168266666Y-116585714D02*
X168266666Y-117252380D01*
X168266666Y-116680952D02*
X168314285Y-116633333D01*
X168409523Y-116585714D01*
X168552380Y-116585714D01*
X168647619Y-116633333D01*
X168695238Y-116728571D01*
X168695238Y-117252380D01*
X169028571Y-116585714D02*
X169409523Y-116585714D01*
X169171428Y-116252380D02*
X169171428Y-117109523D01*
X169219047Y-117204761D01*
X169314285Y-117252380D01*
X169409523Y-117252380D01*
X169742857Y-117252380D02*
X169742857Y-116585714D01*
X169742857Y-116252380D02*
X169695238Y-116300000D01*
X169742857Y-116347619D01*
X169790476Y-116300000D01*
X169742857Y-116252380D01*
X169742857Y-116347619D01*
X170219047Y-116585714D02*
X170219047Y-117252380D01*
X170219047Y-116680952D02*
X170266666Y-116633333D01*
X170361904Y-116585714D01*
X170504761Y-116585714D01*
X170600000Y-116633333D01*
X170647619Y-116728571D01*
X170647619Y-117252380D01*
X171552380Y-116585714D02*
X171552380Y-117395238D01*
X171504761Y-117490476D01*
X171457142Y-117538095D01*
X171361904Y-117585714D01*
X171219047Y-117585714D01*
X171123809Y-117538095D01*
X171552380Y-117204761D02*
X171457142Y-117252380D01*
X171266666Y-117252380D01*
X171171428Y-117204761D01*
X171123809Y-117157142D01*
X171076190Y-117061904D01*
X171076190Y-116776190D01*
X171123809Y-116680952D01*
X171171428Y-116633333D01*
X171266666Y-116585714D01*
X171457142Y-116585714D01*
X171552380Y-116633333D01*
X172028571Y-117252380D02*
X172028571Y-116252380D01*
X172028571Y-116728571D02*
X172600000Y-116728571D01*
X172600000Y-117252380D02*
X172600000Y-116252380D01*
X173219047Y-117252380D02*
X173123809Y-117204761D01*
X173076190Y-117157142D01*
X173028571Y-117061904D01*
X173028571Y-116776190D01*
X173076190Y-116680952D01*
X173123809Y-116633333D01*
X173219047Y-116585714D01*
X173361904Y-116585714D01*
X173457142Y-116633333D01*
X173504761Y-116680952D01*
X173552380Y-116776190D01*
X173552380Y-117061904D01*
X173504761Y-117157142D01*
X173457142Y-117204761D01*
X173361904Y-117252380D01*
X173219047Y-117252380D01*
X174123809Y-117252380D02*
X174028571Y-117204761D01*
X173980952Y-117109523D01*
X173980952Y-116252380D01*
X174885714Y-117204761D02*
X174790476Y-117252380D01*
X174600000Y-117252380D01*
X174504761Y-117204761D01*
X174457142Y-117109523D01*
X174457142Y-116728571D01*
X174504761Y-116633333D01*
X174600000Y-116585714D01*
X174790476Y-116585714D01*
X174885714Y-116633333D01*
X174933333Y-116728571D01*
X174933333Y-116823809D01*
X174457142Y-116919047D01*
X167409523Y-128204761D02*
X167552380Y-128252380D01*
X167790476Y-128252380D01*
X167885714Y-128204761D01*
X167933333Y-128157142D01*
X167980952Y-128061904D01*
X167980952Y-127966666D01*
X167933333Y-127871428D01*
X167885714Y-127823809D01*
X167790476Y-127776190D01*
X167600000Y-127728571D01*
X167504761Y-127680952D01*
X167457142Y-127633333D01*
X167409523Y-127538095D01*
X167409523Y-127442857D01*
X167457142Y-127347619D01*
X167504761Y-127300000D01*
X167600000Y-127252380D01*
X167838095Y-127252380D01*
X167980952Y-127300000D01*
X168314285Y-127585714D02*
X168504761Y-128252380D01*
X168695238Y-127776190D01*
X168885714Y-128252380D01*
X169076190Y-127585714D01*
X169457142Y-128252380D02*
X169457142Y-127585714D01*
X169457142Y-127252380D02*
X169409523Y-127300000D01*
X169457142Y-127347619D01*
X169504761Y-127300000D01*
X169457142Y-127252380D01*
X169457142Y-127347619D01*
X169790476Y-127585714D02*
X170171428Y-127585714D01*
X169933333Y-127252380D02*
X169933333Y-128109523D01*
X169980952Y-128204761D01*
X170076190Y-128252380D01*
X170171428Y-128252380D01*
X170933333Y-128204761D02*
X170838095Y-128252380D01*
X170647619Y-128252380D01*
X170552380Y-128204761D01*
X170504761Y-128157142D01*
X170457142Y-128061904D01*
X170457142Y-127776190D01*
X170504761Y-127680952D01*
X170552380Y-127633333D01*
X170647619Y-127585714D01*
X170838095Y-127585714D01*
X170933333Y-127633333D01*
X171361904Y-128252380D02*
X171361904Y-127252380D01*
X171790476Y-128252380D02*
X171790476Y-127728571D01*
X171742857Y-127633333D01*
X171647619Y-127585714D01*
X171504761Y-127585714D01*
X171409523Y-127633333D01*
X171361904Y-127680952D01*
X172171428Y-127252380D02*
X172838095Y-127252380D01*
X172409523Y-128252380D01*
%TO.C,Switch4*%
X218714285Y-67852380D02*
X218714285Y-66852380D01*
X219047619Y-67566666D01*
X219380952Y-66852380D01*
X219380952Y-67852380D01*
X220000000Y-67852380D02*
X219904761Y-67804761D01*
X219857142Y-67757142D01*
X219809523Y-67661904D01*
X219809523Y-67376190D01*
X219857142Y-67280952D01*
X219904761Y-67233333D01*
X220000000Y-67185714D01*
X220142857Y-67185714D01*
X220238095Y-67233333D01*
X220285714Y-67280952D01*
X220333333Y-67376190D01*
X220333333Y-67661904D01*
X220285714Y-67757142D01*
X220238095Y-67804761D01*
X220142857Y-67852380D01*
X220000000Y-67852380D01*
X221190476Y-67185714D02*
X221190476Y-67852380D01*
X220761904Y-67185714D02*
X220761904Y-67709523D01*
X220809523Y-67804761D01*
X220904761Y-67852380D01*
X221047619Y-67852380D01*
X221142857Y-67804761D01*
X221190476Y-67757142D01*
X221666666Y-67185714D02*
X221666666Y-67852380D01*
X221666666Y-67280952D02*
X221714285Y-67233333D01*
X221809523Y-67185714D01*
X221952380Y-67185714D01*
X222047619Y-67233333D01*
X222095238Y-67328571D01*
X222095238Y-67852380D01*
X222428571Y-67185714D02*
X222809523Y-67185714D01*
X222571428Y-66852380D02*
X222571428Y-67709523D01*
X222619047Y-67804761D01*
X222714285Y-67852380D01*
X222809523Y-67852380D01*
X223142857Y-67852380D02*
X223142857Y-67185714D01*
X223142857Y-66852380D02*
X223095238Y-66900000D01*
X223142857Y-66947619D01*
X223190476Y-66900000D01*
X223142857Y-66852380D01*
X223142857Y-66947619D01*
X223619047Y-67185714D02*
X223619047Y-67852380D01*
X223619047Y-67280952D02*
X223666666Y-67233333D01*
X223761904Y-67185714D01*
X223904761Y-67185714D01*
X224000000Y-67233333D01*
X224047619Y-67328571D01*
X224047619Y-67852380D01*
X224952380Y-67185714D02*
X224952380Y-67995238D01*
X224904761Y-68090476D01*
X224857142Y-68138095D01*
X224761904Y-68185714D01*
X224619047Y-68185714D01*
X224523809Y-68138095D01*
X224952380Y-67804761D02*
X224857142Y-67852380D01*
X224666666Y-67852380D01*
X224571428Y-67804761D01*
X224523809Y-67757142D01*
X224476190Y-67661904D01*
X224476190Y-67376190D01*
X224523809Y-67280952D01*
X224571428Y-67233333D01*
X224666666Y-67185714D01*
X224857142Y-67185714D01*
X224952380Y-67233333D01*
X225428571Y-67852380D02*
X225428571Y-66852380D01*
X225428571Y-67328571D02*
X226000000Y-67328571D01*
X226000000Y-67852380D02*
X226000000Y-66852380D01*
X226619047Y-67852380D02*
X226523809Y-67804761D01*
X226476190Y-67757142D01*
X226428571Y-67661904D01*
X226428571Y-67376190D01*
X226476190Y-67280952D01*
X226523809Y-67233333D01*
X226619047Y-67185714D01*
X226761904Y-67185714D01*
X226857142Y-67233333D01*
X226904761Y-67280952D01*
X226952380Y-67376190D01*
X226952380Y-67661904D01*
X226904761Y-67757142D01*
X226857142Y-67804761D01*
X226761904Y-67852380D01*
X226619047Y-67852380D01*
X227523809Y-67852380D02*
X227428571Y-67804761D01*
X227380952Y-67709523D01*
X227380952Y-66852380D01*
X228285714Y-67804761D02*
X228190476Y-67852380D01*
X228000000Y-67852380D01*
X227904761Y-67804761D01*
X227857142Y-67709523D01*
X227857142Y-67328571D01*
X227904761Y-67233333D01*
X228000000Y-67185714D01*
X228190476Y-67185714D01*
X228285714Y-67233333D01*
X228333333Y-67328571D01*
X228333333Y-67423809D01*
X227857142Y-67519047D01*
X220809523Y-78804761D02*
X220952380Y-78852380D01*
X221190476Y-78852380D01*
X221285714Y-78804761D01*
X221333333Y-78757142D01*
X221380952Y-78661904D01*
X221380952Y-78566666D01*
X221333333Y-78471428D01*
X221285714Y-78423809D01*
X221190476Y-78376190D01*
X221000000Y-78328571D01*
X220904761Y-78280952D01*
X220857142Y-78233333D01*
X220809523Y-78138095D01*
X220809523Y-78042857D01*
X220857142Y-77947619D01*
X220904761Y-77900000D01*
X221000000Y-77852380D01*
X221238095Y-77852380D01*
X221380952Y-77900000D01*
X221714285Y-78185714D02*
X221904761Y-78852380D01*
X222095238Y-78376190D01*
X222285714Y-78852380D01*
X222476190Y-78185714D01*
X222857142Y-78852380D02*
X222857142Y-78185714D01*
X222857142Y-77852380D02*
X222809523Y-77900000D01*
X222857142Y-77947619D01*
X222904761Y-77900000D01*
X222857142Y-77852380D01*
X222857142Y-77947619D01*
X223190476Y-78185714D02*
X223571428Y-78185714D01*
X223333333Y-77852380D02*
X223333333Y-78709523D01*
X223380952Y-78804761D01*
X223476190Y-78852380D01*
X223571428Y-78852380D01*
X224333333Y-78804761D02*
X224238095Y-78852380D01*
X224047619Y-78852380D01*
X223952380Y-78804761D01*
X223904761Y-78757142D01*
X223857142Y-78661904D01*
X223857142Y-78376190D01*
X223904761Y-78280952D01*
X223952380Y-78233333D01*
X224047619Y-78185714D01*
X224238095Y-78185714D01*
X224333333Y-78233333D01*
X224761904Y-78852380D02*
X224761904Y-77852380D01*
X225190476Y-78852380D02*
X225190476Y-78328571D01*
X225142857Y-78233333D01*
X225047619Y-78185714D01*
X224904761Y-78185714D01*
X224809523Y-78233333D01*
X224761904Y-78280952D01*
X226095238Y-78185714D02*
X226095238Y-78852380D01*
X225857142Y-77804761D02*
X225619047Y-78519047D01*
X226238095Y-78519047D01*
%TO.C,H4*%
X257414285Y-143152380D02*
X257414285Y-142152380D01*
X257747619Y-142866666D01*
X258080952Y-142152380D01*
X258080952Y-143152380D01*
X258700000Y-143152380D02*
X258604761Y-143104761D01*
X258557142Y-143057142D01*
X258509523Y-142961904D01*
X258509523Y-142676190D01*
X258557142Y-142580952D01*
X258604761Y-142533333D01*
X258700000Y-142485714D01*
X258842857Y-142485714D01*
X258938095Y-142533333D01*
X258985714Y-142580952D01*
X259033333Y-142676190D01*
X259033333Y-142961904D01*
X258985714Y-143057142D01*
X258938095Y-143104761D01*
X258842857Y-143152380D01*
X258700000Y-143152380D01*
X259890476Y-142485714D02*
X259890476Y-143152380D01*
X259461904Y-142485714D02*
X259461904Y-143009523D01*
X259509523Y-143104761D01*
X259604761Y-143152380D01*
X259747619Y-143152380D01*
X259842857Y-143104761D01*
X259890476Y-143057142D01*
X260366666Y-142485714D02*
X260366666Y-143152380D01*
X260366666Y-142580952D02*
X260414285Y-142533333D01*
X260509523Y-142485714D01*
X260652380Y-142485714D01*
X260747619Y-142533333D01*
X260795238Y-142628571D01*
X260795238Y-143152380D01*
X261128571Y-142485714D02*
X261509523Y-142485714D01*
X261271428Y-142152380D02*
X261271428Y-143009523D01*
X261319047Y-143104761D01*
X261414285Y-143152380D01*
X261509523Y-143152380D01*
X261842857Y-143152380D02*
X261842857Y-142485714D01*
X261842857Y-142152380D02*
X261795238Y-142200000D01*
X261842857Y-142247619D01*
X261890476Y-142200000D01*
X261842857Y-142152380D01*
X261842857Y-142247619D01*
X262319047Y-142485714D02*
X262319047Y-143152380D01*
X262319047Y-142580952D02*
X262366666Y-142533333D01*
X262461904Y-142485714D01*
X262604761Y-142485714D01*
X262700000Y-142533333D01*
X262747619Y-142628571D01*
X262747619Y-143152380D01*
X263652380Y-142485714D02*
X263652380Y-143295238D01*
X263604761Y-143390476D01*
X263557142Y-143438095D01*
X263461904Y-143485714D01*
X263319047Y-143485714D01*
X263223809Y-143438095D01*
X263652380Y-143104761D02*
X263557142Y-143152380D01*
X263366666Y-143152380D01*
X263271428Y-143104761D01*
X263223809Y-143057142D01*
X263176190Y-142961904D01*
X263176190Y-142676190D01*
X263223809Y-142580952D01*
X263271428Y-142533333D01*
X263366666Y-142485714D01*
X263557142Y-142485714D01*
X263652380Y-142533333D01*
X264128571Y-143152380D02*
X264128571Y-142152380D01*
X264128571Y-142628571D02*
X264700000Y-142628571D01*
X264700000Y-143152380D02*
X264700000Y-142152380D01*
X265319047Y-143152380D02*
X265223809Y-143104761D01*
X265176190Y-143057142D01*
X265128571Y-142961904D01*
X265128571Y-142676190D01*
X265176190Y-142580952D01*
X265223809Y-142533333D01*
X265319047Y-142485714D01*
X265461904Y-142485714D01*
X265557142Y-142533333D01*
X265604761Y-142580952D01*
X265652380Y-142676190D01*
X265652380Y-142961904D01*
X265604761Y-143057142D01*
X265557142Y-143104761D01*
X265461904Y-143152380D01*
X265319047Y-143152380D01*
X266223809Y-143152380D02*
X266128571Y-143104761D01*
X266080952Y-143009523D01*
X266080952Y-142152380D01*
X266985714Y-143104761D02*
X266890476Y-143152380D01*
X266700000Y-143152380D01*
X266604761Y-143104761D01*
X266557142Y-143009523D01*
X266557142Y-142628571D01*
X266604761Y-142533333D01*
X266700000Y-142485714D01*
X266890476Y-142485714D01*
X266985714Y-142533333D01*
X267033333Y-142628571D01*
X267033333Y-142723809D01*
X266557142Y-142819047D01*
X261438095Y-138952380D02*
X261438095Y-137952380D01*
X261438095Y-138428571D02*
X262009523Y-138428571D01*
X262009523Y-138952380D02*
X262009523Y-137952380D01*
X262914285Y-138285714D02*
X262914285Y-138952380D01*
X262676190Y-137904761D02*
X262438095Y-138619047D01*
X263057142Y-138619047D01*
%TO.C,Sw4*%
X198914285Y-71852380D02*
X198914285Y-70852380D01*
X199247619Y-71566666D01*
X199580952Y-70852380D01*
X199580952Y-71852380D01*
X200200000Y-71852380D02*
X200104761Y-71804761D01*
X200057142Y-71757142D01*
X200009523Y-71661904D01*
X200009523Y-71376190D01*
X200057142Y-71280952D01*
X200104761Y-71233333D01*
X200200000Y-71185714D01*
X200342857Y-71185714D01*
X200438095Y-71233333D01*
X200485714Y-71280952D01*
X200533333Y-71376190D01*
X200533333Y-71661904D01*
X200485714Y-71757142D01*
X200438095Y-71804761D01*
X200342857Y-71852380D01*
X200200000Y-71852380D01*
X201390476Y-71185714D02*
X201390476Y-71852380D01*
X200961904Y-71185714D02*
X200961904Y-71709523D01*
X201009523Y-71804761D01*
X201104761Y-71852380D01*
X201247619Y-71852380D01*
X201342857Y-71804761D01*
X201390476Y-71757142D01*
X201866666Y-71185714D02*
X201866666Y-71852380D01*
X201866666Y-71280952D02*
X201914285Y-71233333D01*
X202009523Y-71185714D01*
X202152380Y-71185714D01*
X202247619Y-71233333D01*
X202295238Y-71328571D01*
X202295238Y-71852380D01*
X202628571Y-71185714D02*
X203009523Y-71185714D01*
X202771428Y-70852380D02*
X202771428Y-71709523D01*
X202819047Y-71804761D01*
X202914285Y-71852380D01*
X203009523Y-71852380D01*
X203342857Y-71852380D02*
X203342857Y-71185714D01*
X203342857Y-70852380D02*
X203295238Y-70900000D01*
X203342857Y-70947619D01*
X203390476Y-70900000D01*
X203342857Y-70852380D01*
X203342857Y-70947619D01*
X203819047Y-71185714D02*
X203819047Y-71852380D01*
X203819047Y-71280952D02*
X203866666Y-71233333D01*
X203961904Y-71185714D01*
X204104761Y-71185714D01*
X204200000Y-71233333D01*
X204247619Y-71328571D01*
X204247619Y-71852380D01*
X205152380Y-71185714D02*
X205152380Y-71995238D01*
X205104761Y-72090476D01*
X205057142Y-72138095D01*
X204961904Y-72185714D01*
X204819047Y-72185714D01*
X204723809Y-72138095D01*
X205152380Y-71804761D02*
X205057142Y-71852380D01*
X204866666Y-71852380D01*
X204771428Y-71804761D01*
X204723809Y-71757142D01*
X204676190Y-71661904D01*
X204676190Y-71376190D01*
X204723809Y-71280952D01*
X204771428Y-71233333D01*
X204866666Y-71185714D01*
X205057142Y-71185714D01*
X205152380Y-71233333D01*
X205628571Y-71852380D02*
X205628571Y-70852380D01*
X205628571Y-71328571D02*
X206200000Y-71328571D01*
X206200000Y-71852380D02*
X206200000Y-70852380D01*
X206819047Y-71852380D02*
X206723809Y-71804761D01*
X206676190Y-71757142D01*
X206628571Y-71661904D01*
X206628571Y-71376190D01*
X206676190Y-71280952D01*
X206723809Y-71233333D01*
X206819047Y-71185714D01*
X206961904Y-71185714D01*
X207057142Y-71233333D01*
X207104761Y-71280952D01*
X207152380Y-71376190D01*
X207152380Y-71661904D01*
X207104761Y-71757142D01*
X207057142Y-71804761D01*
X206961904Y-71852380D01*
X206819047Y-71852380D01*
X207723809Y-71852380D02*
X207628571Y-71804761D01*
X207580952Y-71709523D01*
X207580952Y-70852380D01*
X208485714Y-71804761D02*
X208390476Y-71852380D01*
X208200000Y-71852380D01*
X208104761Y-71804761D01*
X208057142Y-71709523D01*
X208057142Y-71328571D01*
X208104761Y-71233333D01*
X208200000Y-71185714D01*
X208390476Y-71185714D01*
X208485714Y-71233333D01*
X208533333Y-71328571D01*
X208533333Y-71423809D01*
X208057142Y-71519047D01*
X202414285Y-73304761D02*
X202557142Y-73352380D01*
X202795238Y-73352380D01*
X202890476Y-73304761D01*
X202938095Y-73257142D01*
X202985714Y-73161904D01*
X202985714Y-73066666D01*
X202938095Y-72971428D01*
X202890476Y-72923809D01*
X202795238Y-72876190D01*
X202604761Y-72828571D01*
X202509523Y-72780952D01*
X202461904Y-72733333D01*
X202414285Y-72638095D01*
X202414285Y-72542857D01*
X202461904Y-72447619D01*
X202509523Y-72400000D01*
X202604761Y-72352380D01*
X202842857Y-72352380D01*
X202985714Y-72400000D01*
X203319047Y-72685714D02*
X203509523Y-73352380D01*
X203700000Y-72876190D01*
X203890476Y-73352380D01*
X204080952Y-72685714D01*
X204890476Y-72685714D02*
X204890476Y-73352380D01*
X204652380Y-72304761D02*
X204414285Y-73019047D01*
X205033333Y-73019047D01*
%TO.C,Sw2*%
X92414285Y-71852380D02*
X92414285Y-70852380D01*
X92747619Y-71566666D01*
X93080952Y-70852380D01*
X93080952Y-71852380D01*
X93700000Y-71852380D02*
X93604761Y-71804761D01*
X93557142Y-71757142D01*
X93509523Y-71661904D01*
X93509523Y-71376190D01*
X93557142Y-71280952D01*
X93604761Y-71233333D01*
X93700000Y-71185714D01*
X93842857Y-71185714D01*
X93938095Y-71233333D01*
X93985714Y-71280952D01*
X94033333Y-71376190D01*
X94033333Y-71661904D01*
X93985714Y-71757142D01*
X93938095Y-71804761D01*
X93842857Y-71852380D01*
X93700000Y-71852380D01*
X94890476Y-71185714D02*
X94890476Y-71852380D01*
X94461904Y-71185714D02*
X94461904Y-71709523D01*
X94509523Y-71804761D01*
X94604761Y-71852380D01*
X94747619Y-71852380D01*
X94842857Y-71804761D01*
X94890476Y-71757142D01*
X95366666Y-71185714D02*
X95366666Y-71852380D01*
X95366666Y-71280952D02*
X95414285Y-71233333D01*
X95509523Y-71185714D01*
X95652380Y-71185714D01*
X95747619Y-71233333D01*
X95795238Y-71328571D01*
X95795238Y-71852380D01*
X96128571Y-71185714D02*
X96509523Y-71185714D01*
X96271428Y-70852380D02*
X96271428Y-71709523D01*
X96319047Y-71804761D01*
X96414285Y-71852380D01*
X96509523Y-71852380D01*
X96842857Y-71852380D02*
X96842857Y-71185714D01*
X96842857Y-70852380D02*
X96795238Y-70900000D01*
X96842857Y-70947619D01*
X96890476Y-70900000D01*
X96842857Y-70852380D01*
X96842857Y-70947619D01*
X97319047Y-71185714D02*
X97319047Y-71852380D01*
X97319047Y-71280952D02*
X97366666Y-71233333D01*
X97461904Y-71185714D01*
X97604761Y-71185714D01*
X97700000Y-71233333D01*
X97747619Y-71328571D01*
X97747619Y-71852380D01*
X98652380Y-71185714D02*
X98652380Y-71995238D01*
X98604761Y-72090476D01*
X98557142Y-72138095D01*
X98461904Y-72185714D01*
X98319047Y-72185714D01*
X98223809Y-72138095D01*
X98652380Y-71804761D02*
X98557142Y-71852380D01*
X98366666Y-71852380D01*
X98271428Y-71804761D01*
X98223809Y-71757142D01*
X98176190Y-71661904D01*
X98176190Y-71376190D01*
X98223809Y-71280952D01*
X98271428Y-71233333D01*
X98366666Y-71185714D01*
X98557142Y-71185714D01*
X98652380Y-71233333D01*
X99128571Y-71852380D02*
X99128571Y-70852380D01*
X99128571Y-71328571D02*
X99700000Y-71328571D01*
X99700000Y-71852380D02*
X99700000Y-70852380D01*
X100319047Y-71852380D02*
X100223809Y-71804761D01*
X100176190Y-71757142D01*
X100128571Y-71661904D01*
X100128571Y-71376190D01*
X100176190Y-71280952D01*
X100223809Y-71233333D01*
X100319047Y-71185714D01*
X100461904Y-71185714D01*
X100557142Y-71233333D01*
X100604761Y-71280952D01*
X100652380Y-71376190D01*
X100652380Y-71661904D01*
X100604761Y-71757142D01*
X100557142Y-71804761D01*
X100461904Y-71852380D01*
X100319047Y-71852380D01*
X101223809Y-71852380D02*
X101128571Y-71804761D01*
X101080952Y-71709523D01*
X101080952Y-70852380D01*
X101985714Y-71804761D02*
X101890476Y-71852380D01*
X101700000Y-71852380D01*
X101604761Y-71804761D01*
X101557142Y-71709523D01*
X101557142Y-71328571D01*
X101604761Y-71233333D01*
X101700000Y-71185714D01*
X101890476Y-71185714D01*
X101985714Y-71233333D01*
X102033333Y-71328571D01*
X102033333Y-71423809D01*
X101557142Y-71519047D01*
X95914285Y-73304761D02*
X96057142Y-73352380D01*
X96295238Y-73352380D01*
X96390476Y-73304761D01*
X96438095Y-73257142D01*
X96485714Y-73161904D01*
X96485714Y-73066666D01*
X96438095Y-72971428D01*
X96390476Y-72923809D01*
X96295238Y-72876190D01*
X96104761Y-72828571D01*
X96009523Y-72780952D01*
X95961904Y-72733333D01*
X95914285Y-72638095D01*
X95914285Y-72542857D01*
X95961904Y-72447619D01*
X96009523Y-72400000D01*
X96104761Y-72352380D01*
X96342857Y-72352380D01*
X96485714Y-72400000D01*
X96819047Y-72685714D02*
X97009523Y-73352380D01*
X97200000Y-72876190D01*
X97390476Y-73352380D01*
X97580952Y-72685714D01*
X97914285Y-72447619D02*
X97961904Y-72400000D01*
X98057142Y-72352380D01*
X98295238Y-72352380D01*
X98390476Y-72400000D01*
X98438095Y-72447619D01*
X98485714Y-72542857D01*
X98485714Y-72638095D01*
X98438095Y-72780952D01*
X97866666Y-73352380D01*
X98485714Y-73352380D01*
%TO.C,Sw6*%
X92414285Y-121252380D02*
X92414285Y-120252380D01*
X92747619Y-120966666D01*
X93080952Y-120252380D01*
X93080952Y-121252380D01*
X93700000Y-121252380D02*
X93604761Y-121204761D01*
X93557142Y-121157142D01*
X93509523Y-121061904D01*
X93509523Y-120776190D01*
X93557142Y-120680952D01*
X93604761Y-120633333D01*
X93700000Y-120585714D01*
X93842857Y-120585714D01*
X93938095Y-120633333D01*
X93985714Y-120680952D01*
X94033333Y-120776190D01*
X94033333Y-121061904D01*
X93985714Y-121157142D01*
X93938095Y-121204761D01*
X93842857Y-121252380D01*
X93700000Y-121252380D01*
X94890476Y-120585714D02*
X94890476Y-121252380D01*
X94461904Y-120585714D02*
X94461904Y-121109523D01*
X94509523Y-121204761D01*
X94604761Y-121252380D01*
X94747619Y-121252380D01*
X94842857Y-121204761D01*
X94890476Y-121157142D01*
X95366666Y-120585714D02*
X95366666Y-121252380D01*
X95366666Y-120680952D02*
X95414285Y-120633333D01*
X95509523Y-120585714D01*
X95652380Y-120585714D01*
X95747619Y-120633333D01*
X95795238Y-120728571D01*
X95795238Y-121252380D01*
X96128571Y-120585714D02*
X96509523Y-120585714D01*
X96271428Y-120252380D02*
X96271428Y-121109523D01*
X96319047Y-121204761D01*
X96414285Y-121252380D01*
X96509523Y-121252380D01*
X96842857Y-121252380D02*
X96842857Y-120585714D01*
X96842857Y-120252380D02*
X96795238Y-120300000D01*
X96842857Y-120347619D01*
X96890476Y-120300000D01*
X96842857Y-120252380D01*
X96842857Y-120347619D01*
X97319047Y-120585714D02*
X97319047Y-121252380D01*
X97319047Y-120680952D02*
X97366666Y-120633333D01*
X97461904Y-120585714D01*
X97604761Y-120585714D01*
X97700000Y-120633333D01*
X97747619Y-120728571D01*
X97747619Y-121252380D01*
X98652380Y-120585714D02*
X98652380Y-121395238D01*
X98604761Y-121490476D01*
X98557142Y-121538095D01*
X98461904Y-121585714D01*
X98319047Y-121585714D01*
X98223809Y-121538095D01*
X98652380Y-121204761D02*
X98557142Y-121252380D01*
X98366666Y-121252380D01*
X98271428Y-121204761D01*
X98223809Y-121157142D01*
X98176190Y-121061904D01*
X98176190Y-120776190D01*
X98223809Y-120680952D01*
X98271428Y-120633333D01*
X98366666Y-120585714D01*
X98557142Y-120585714D01*
X98652380Y-120633333D01*
X99128571Y-121252380D02*
X99128571Y-120252380D01*
X99128571Y-120728571D02*
X99700000Y-120728571D01*
X99700000Y-121252380D02*
X99700000Y-120252380D01*
X100319047Y-121252380D02*
X100223809Y-121204761D01*
X100176190Y-121157142D01*
X100128571Y-121061904D01*
X100128571Y-120776190D01*
X100176190Y-120680952D01*
X100223809Y-120633333D01*
X100319047Y-120585714D01*
X100461904Y-120585714D01*
X100557142Y-120633333D01*
X100604761Y-120680952D01*
X100652380Y-120776190D01*
X100652380Y-121061904D01*
X100604761Y-121157142D01*
X100557142Y-121204761D01*
X100461904Y-121252380D01*
X100319047Y-121252380D01*
X101223809Y-121252380D02*
X101128571Y-121204761D01*
X101080952Y-121109523D01*
X101080952Y-120252380D01*
X101985714Y-121204761D02*
X101890476Y-121252380D01*
X101700000Y-121252380D01*
X101604761Y-121204761D01*
X101557142Y-121109523D01*
X101557142Y-120728571D01*
X101604761Y-120633333D01*
X101700000Y-120585714D01*
X101890476Y-120585714D01*
X101985714Y-120633333D01*
X102033333Y-120728571D01*
X102033333Y-120823809D01*
X101557142Y-120919047D01*
X95914285Y-122704761D02*
X96057142Y-122752380D01*
X96295238Y-122752380D01*
X96390476Y-122704761D01*
X96438095Y-122657142D01*
X96485714Y-122561904D01*
X96485714Y-122466666D01*
X96438095Y-122371428D01*
X96390476Y-122323809D01*
X96295238Y-122276190D01*
X96104761Y-122228571D01*
X96009523Y-122180952D01*
X95961904Y-122133333D01*
X95914285Y-122038095D01*
X95914285Y-121942857D01*
X95961904Y-121847619D01*
X96009523Y-121800000D01*
X96104761Y-121752380D01*
X96342857Y-121752380D01*
X96485714Y-121800000D01*
X96819047Y-122085714D02*
X97009523Y-122752380D01*
X97200000Y-122276190D01*
X97390476Y-122752380D01*
X97580952Y-122085714D01*
X98390476Y-121752380D02*
X98200000Y-121752380D01*
X98104761Y-121800000D01*
X98057142Y-121847619D01*
X97961904Y-121990476D01*
X97914285Y-122180952D01*
X97914285Y-122561904D01*
X97961904Y-122657142D01*
X98009523Y-122704761D01*
X98104761Y-122752380D01*
X98295238Y-122752380D01*
X98390476Y-122704761D01*
X98438095Y-122657142D01*
X98485714Y-122561904D01*
X98485714Y-122323809D01*
X98438095Y-122228571D01*
X98390476Y-122180952D01*
X98295238Y-122133333D01*
X98104761Y-122133333D01*
X98009523Y-122180952D01*
X97961904Y-122228571D01*
X97914285Y-122323809D01*
%TO.C,Sw3*%
X145914285Y-71852380D02*
X145914285Y-70852380D01*
X146247619Y-71566666D01*
X146580952Y-70852380D01*
X146580952Y-71852380D01*
X147200000Y-71852380D02*
X147104761Y-71804761D01*
X147057142Y-71757142D01*
X147009523Y-71661904D01*
X147009523Y-71376190D01*
X147057142Y-71280952D01*
X147104761Y-71233333D01*
X147200000Y-71185714D01*
X147342857Y-71185714D01*
X147438095Y-71233333D01*
X147485714Y-71280952D01*
X147533333Y-71376190D01*
X147533333Y-71661904D01*
X147485714Y-71757142D01*
X147438095Y-71804761D01*
X147342857Y-71852380D01*
X147200000Y-71852380D01*
X148390476Y-71185714D02*
X148390476Y-71852380D01*
X147961904Y-71185714D02*
X147961904Y-71709523D01*
X148009523Y-71804761D01*
X148104761Y-71852380D01*
X148247619Y-71852380D01*
X148342857Y-71804761D01*
X148390476Y-71757142D01*
X148866666Y-71185714D02*
X148866666Y-71852380D01*
X148866666Y-71280952D02*
X148914285Y-71233333D01*
X149009523Y-71185714D01*
X149152380Y-71185714D01*
X149247619Y-71233333D01*
X149295238Y-71328571D01*
X149295238Y-71852380D01*
X149628571Y-71185714D02*
X150009523Y-71185714D01*
X149771428Y-70852380D02*
X149771428Y-71709523D01*
X149819047Y-71804761D01*
X149914285Y-71852380D01*
X150009523Y-71852380D01*
X150342857Y-71852380D02*
X150342857Y-71185714D01*
X150342857Y-70852380D02*
X150295238Y-70900000D01*
X150342857Y-70947619D01*
X150390476Y-70900000D01*
X150342857Y-70852380D01*
X150342857Y-70947619D01*
X150819047Y-71185714D02*
X150819047Y-71852380D01*
X150819047Y-71280952D02*
X150866666Y-71233333D01*
X150961904Y-71185714D01*
X151104761Y-71185714D01*
X151200000Y-71233333D01*
X151247619Y-71328571D01*
X151247619Y-71852380D01*
X152152380Y-71185714D02*
X152152380Y-71995238D01*
X152104761Y-72090476D01*
X152057142Y-72138095D01*
X151961904Y-72185714D01*
X151819047Y-72185714D01*
X151723809Y-72138095D01*
X152152380Y-71804761D02*
X152057142Y-71852380D01*
X151866666Y-71852380D01*
X151771428Y-71804761D01*
X151723809Y-71757142D01*
X151676190Y-71661904D01*
X151676190Y-71376190D01*
X151723809Y-71280952D01*
X151771428Y-71233333D01*
X151866666Y-71185714D01*
X152057142Y-71185714D01*
X152152380Y-71233333D01*
X152628571Y-71852380D02*
X152628571Y-70852380D01*
X152628571Y-71328571D02*
X153200000Y-71328571D01*
X153200000Y-71852380D02*
X153200000Y-70852380D01*
X153819047Y-71852380D02*
X153723809Y-71804761D01*
X153676190Y-71757142D01*
X153628571Y-71661904D01*
X153628571Y-71376190D01*
X153676190Y-71280952D01*
X153723809Y-71233333D01*
X153819047Y-71185714D01*
X153961904Y-71185714D01*
X154057142Y-71233333D01*
X154104761Y-71280952D01*
X154152380Y-71376190D01*
X154152380Y-71661904D01*
X154104761Y-71757142D01*
X154057142Y-71804761D01*
X153961904Y-71852380D01*
X153819047Y-71852380D01*
X154723809Y-71852380D02*
X154628571Y-71804761D01*
X154580952Y-71709523D01*
X154580952Y-70852380D01*
X155485714Y-71804761D02*
X155390476Y-71852380D01*
X155200000Y-71852380D01*
X155104761Y-71804761D01*
X155057142Y-71709523D01*
X155057142Y-71328571D01*
X155104761Y-71233333D01*
X155200000Y-71185714D01*
X155390476Y-71185714D01*
X155485714Y-71233333D01*
X155533333Y-71328571D01*
X155533333Y-71423809D01*
X155057142Y-71519047D01*
X149414285Y-73304761D02*
X149557142Y-73352380D01*
X149795238Y-73352380D01*
X149890476Y-73304761D01*
X149938095Y-73257142D01*
X149985714Y-73161904D01*
X149985714Y-73066666D01*
X149938095Y-72971428D01*
X149890476Y-72923809D01*
X149795238Y-72876190D01*
X149604761Y-72828571D01*
X149509523Y-72780952D01*
X149461904Y-72733333D01*
X149414285Y-72638095D01*
X149414285Y-72542857D01*
X149461904Y-72447619D01*
X149509523Y-72400000D01*
X149604761Y-72352380D01*
X149842857Y-72352380D01*
X149985714Y-72400000D01*
X150319047Y-72685714D02*
X150509523Y-73352380D01*
X150700000Y-72876190D01*
X150890476Y-73352380D01*
X151080952Y-72685714D01*
X151366666Y-72352380D02*
X151985714Y-72352380D01*
X151652380Y-72733333D01*
X151795238Y-72733333D01*
X151890476Y-72780952D01*
X151938095Y-72828571D01*
X151985714Y-72923809D01*
X151985714Y-73161904D01*
X151938095Y-73257142D01*
X151890476Y-73304761D01*
X151795238Y-73352380D01*
X151509523Y-73352380D01*
X151414285Y-73304761D01*
X151366666Y-73257142D01*
%TO.C,H3*%
X34414285Y-143152380D02*
X34414285Y-142152380D01*
X34747619Y-142866666D01*
X35080952Y-142152380D01*
X35080952Y-143152380D01*
X35700000Y-143152380D02*
X35604761Y-143104761D01*
X35557142Y-143057142D01*
X35509523Y-142961904D01*
X35509523Y-142676190D01*
X35557142Y-142580952D01*
X35604761Y-142533333D01*
X35700000Y-142485714D01*
X35842857Y-142485714D01*
X35938095Y-142533333D01*
X35985714Y-142580952D01*
X36033333Y-142676190D01*
X36033333Y-142961904D01*
X35985714Y-143057142D01*
X35938095Y-143104761D01*
X35842857Y-143152380D01*
X35700000Y-143152380D01*
X36890476Y-142485714D02*
X36890476Y-143152380D01*
X36461904Y-142485714D02*
X36461904Y-143009523D01*
X36509523Y-143104761D01*
X36604761Y-143152380D01*
X36747619Y-143152380D01*
X36842857Y-143104761D01*
X36890476Y-143057142D01*
X37366666Y-142485714D02*
X37366666Y-143152380D01*
X37366666Y-142580952D02*
X37414285Y-142533333D01*
X37509523Y-142485714D01*
X37652380Y-142485714D01*
X37747619Y-142533333D01*
X37795238Y-142628571D01*
X37795238Y-143152380D01*
X38128571Y-142485714D02*
X38509523Y-142485714D01*
X38271428Y-142152380D02*
X38271428Y-143009523D01*
X38319047Y-143104761D01*
X38414285Y-143152380D01*
X38509523Y-143152380D01*
X38842857Y-143152380D02*
X38842857Y-142485714D01*
X38842857Y-142152380D02*
X38795238Y-142200000D01*
X38842857Y-142247619D01*
X38890476Y-142200000D01*
X38842857Y-142152380D01*
X38842857Y-142247619D01*
X39319047Y-142485714D02*
X39319047Y-143152380D01*
X39319047Y-142580952D02*
X39366666Y-142533333D01*
X39461904Y-142485714D01*
X39604761Y-142485714D01*
X39700000Y-142533333D01*
X39747619Y-142628571D01*
X39747619Y-143152380D01*
X40652380Y-142485714D02*
X40652380Y-143295238D01*
X40604761Y-143390476D01*
X40557142Y-143438095D01*
X40461904Y-143485714D01*
X40319047Y-143485714D01*
X40223809Y-143438095D01*
X40652380Y-143104761D02*
X40557142Y-143152380D01*
X40366666Y-143152380D01*
X40271428Y-143104761D01*
X40223809Y-143057142D01*
X40176190Y-142961904D01*
X40176190Y-142676190D01*
X40223809Y-142580952D01*
X40271428Y-142533333D01*
X40366666Y-142485714D01*
X40557142Y-142485714D01*
X40652380Y-142533333D01*
X41128571Y-143152380D02*
X41128571Y-142152380D01*
X41128571Y-142628571D02*
X41700000Y-142628571D01*
X41700000Y-143152380D02*
X41700000Y-142152380D01*
X42319047Y-143152380D02*
X42223809Y-143104761D01*
X42176190Y-143057142D01*
X42128571Y-142961904D01*
X42128571Y-142676190D01*
X42176190Y-142580952D01*
X42223809Y-142533333D01*
X42319047Y-142485714D01*
X42461904Y-142485714D01*
X42557142Y-142533333D01*
X42604761Y-142580952D01*
X42652380Y-142676190D01*
X42652380Y-142961904D01*
X42604761Y-143057142D01*
X42557142Y-143104761D01*
X42461904Y-143152380D01*
X42319047Y-143152380D01*
X43223809Y-143152380D02*
X43128571Y-143104761D01*
X43080952Y-143009523D01*
X43080952Y-142152380D01*
X43985714Y-143104761D02*
X43890476Y-143152380D01*
X43700000Y-143152380D01*
X43604761Y-143104761D01*
X43557142Y-143009523D01*
X43557142Y-142628571D01*
X43604761Y-142533333D01*
X43700000Y-142485714D01*
X43890476Y-142485714D01*
X43985714Y-142533333D01*
X44033333Y-142628571D01*
X44033333Y-142723809D01*
X43557142Y-142819047D01*
X38438095Y-138952380D02*
X38438095Y-137952380D01*
X38438095Y-138428571D02*
X39009523Y-138428571D01*
X39009523Y-138952380D02*
X39009523Y-137952380D01*
X39390476Y-137952380D02*
X40009523Y-137952380D01*
X39676190Y-138333333D01*
X39819047Y-138333333D01*
X39914285Y-138380952D01*
X39961904Y-138428571D01*
X40009523Y-138523809D01*
X40009523Y-138761904D01*
X39961904Y-138857142D01*
X39914285Y-138904761D01*
X39819047Y-138952380D01*
X39533333Y-138952380D01*
X39438095Y-138904761D01*
X39390476Y-138857142D01*
%TO.C,Switch6*%
X112014285Y-117252380D02*
X112014285Y-116252380D01*
X112347619Y-116966666D01*
X112680952Y-116252380D01*
X112680952Y-117252380D01*
X113300000Y-117252380D02*
X113204761Y-117204761D01*
X113157142Y-117157142D01*
X113109523Y-117061904D01*
X113109523Y-116776190D01*
X113157142Y-116680952D01*
X113204761Y-116633333D01*
X113300000Y-116585714D01*
X113442857Y-116585714D01*
X113538095Y-116633333D01*
X113585714Y-116680952D01*
X113633333Y-116776190D01*
X113633333Y-117061904D01*
X113585714Y-117157142D01*
X113538095Y-117204761D01*
X113442857Y-117252380D01*
X113300000Y-117252380D01*
X114490476Y-116585714D02*
X114490476Y-117252380D01*
X114061904Y-116585714D02*
X114061904Y-117109523D01*
X114109523Y-117204761D01*
X114204761Y-117252380D01*
X114347619Y-117252380D01*
X114442857Y-117204761D01*
X114490476Y-117157142D01*
X114966666Y-116585714D02*
X114966666Y-117252380D01*
X114966666Y-116680952D02*
X115014285Y-116633333D01*
X115109523Y-116585714D01*
X115252380Y-116585714D01*
X115347619Y-116633333D01*
X115395238Y-116728571D01*
X115395238Y-117252380D01*
X115728571Y-116585714D02*
X116109523Y-116585714D01*
X115871428Y-116252380D02*
X115871428Y-117109523D01*
X115919047Y-117204761D01*
X116014285Y-117252380D01*
X116109523Y-117252380D01*
X116442857Y-117252380D02*
X116442857Y-116585714D01*
X116442857Y-116252380D02*
X116395238Y-116300000D01*
X116442857Y-116347619D01*
X116490476Y-116300000D01*
X116442857Y-116252380D01*
X116442857Y-116347619D01*
X116919047Y-116585714D02*
X116919047Y-117252380D01*
X116919047Y-116680952D02*
X116966666Y-116633333D01*
X117061904Y-116585714D01*
X117204761Y-116585714D01*
X117300000Y-116633333D01*
X117347619Y-116728571D01*
X117347619Y-117252380D01*
X118252380Y-116585714D02*
X118252380Y-117395238D01*
X118204761Y-117490476D01*
X118157142Y-117538095D01*
X118061904Y-117585714D01*
X117919047Y-117585714D01*
X117823809Y-117538095D01*
X118252380Y-117204761D02*
X118157142Y-117252380D01*
X117966666Y-117252380D01*
X117871428Y-117204761D01*
X117823809Y-117157142D01*
X117776190Y-117061904D01*
X117776190Y-116776190D01*
X117823809Y-116680952D01*
X117871428Y-116633333D01*
X117966666Y-116585714D01*
X118157142Y-116585714D01*
X118252380Y-116633333D01*
X118728571Y-117252380D02*
X118728571Y-116252380D01*
X118728571Y-116728571D02*
X119300000Y-116728571D01*
X119300000Y-117252380D02*
X119300000Y-116252380D01*
X119919047Y-117252380D02*
X119823809Y-117204761D01*
X119776190Y-117157142D01*
X119728571Y-117061904D01*
X119728571Y-116776190D01*
X119776190Y-116680952D01*
X119823809Y-116633333D01*
X119919047Y-116585714D01*
X120061904Y-116585714D01*
X120157142Y-116633333D01*
X120204761Y-116680952D01*
X120252380Y-116776190D01*
X120252380Y-117061904D01*
X120204761Y-117157142D01*
X120157142Y-117204761D01*
X120061904Y-117252380D01*
X119919047Y-117252380D01*
X120823809Y-117252380D02*
X120728571Y-117204761D01*
X120680952Y-117109523D01*
X120680952Y-116252380D01*
X121585714Y-117204761D02*
X121490476Y-117252380D01*
X121300000Y-117252380D01*
X121204761Y-117204761D01*
X121157142Y-117109523D01*
X121157142Y-116728571D01*
X121204761Y-116633333D01*
X121300000Y-116585714D01*
X121490476Y-116585714D01*
X121585714Y-116633333D01*
X121633333Y-116728571D01*
X121633333Y-116823809D01*
X121157142Y-116919047D01*
X114109523Y-128204761D02*
X114252380Y-128252380D01*
X114490476Y-128252380D01*
X114585714Y-128204761D01*
X114633333Y-128157142D01*
X114680952Y-128061904D01*
X114680952Y-127966666D01*
X114633333Y-127871428D01*
X114585714Y-127823809D01*
X114490476Y-127776190D01*
X114300000Y-127728571D01*
X114204761Y-127680952D01*
X114157142Y-127633333D01*
X114109523Y-127538095D01*
X114109523Y-127442857D01*
X114157142Y-127347619D01*
X114204761Y-127300000D01*
X114300000Y-127252380D01*
X114538095Y-127252380D01*
X114680952Y-127300000D01*
X115014285Y-127585714D02*
X115204761Y-128252380D01*
X115395238Y-127776190D01*
X115585714Y-128252380D01*
X115776190Y-127585714D01*
X116157142Y-128252380D02*
X116157142Y-127585714D01*
X116157142Y-127252380D02*
X116109523Y-127300000D01*
X116157142Y-127347619D01*
X116204761Y-127300000D01*
X116157142Y-127252380D01*
X116157142Y-127347619D01*
X116490476Y-127585714D02*
X116871428Y-127585714D01*
X116633333Y-127252380D02*
X116633333Y-128109523D01*
X116680952Y-128204761D01*
X116776190Y-128252380D01*
X116871428Y-128252380D01*
X117633333Y-128204761D02*
X117538095Y-128252380D01*
X117347619Y-128252380D01*
X117252380Y-128204761D01*
X117204761Y-128157142D01*
X117157142Y-128061904D01*
X117157142Y-127776190D01*
X117204761Y-127680952D01*
X117252380Y-127633333D01*
X117347619Y-127585714D01*
X117538095Y-127585714D01*
X117633333Y-127633333D01*
X118061904Y-128252380D02*
X118061904Y-127252380D01*
X118490476Y-128252380D02*
X118490476Y-127728571D01*
X118442857Y-127633333D01*
X118347619Y-127585714D01*
X118204761Y-127585714D01*
X118109523Y-127633333D01*
X118061904Y-127680952D01*
X119395238Y-127252380D02*
X119204761Y-127252380D01*
X119109523Y-127300000D01*
X119061904Y-127347619D01*
X118966666Y-127490476D01*
X118919047Y-127680952D01*
X118919047Y-128061904D01*
X118966666Y-128157142D01*
X119014285Y-128204761D01*
X119109523Y-128252380D01*
X119300000Y-128252380D01*
X119395238Y-128204761D01*
X119442857Y-128157142D01*
X119490476Y-128061904D01*
X119490476Y-127823809D01*
X119442857Y-127728571D01*
X119395238Y-127680952D01*
X119300000Y-127633333D01*
X119109523Y-127633333D01*
X119014285Y-127680952D01*
X118966666Y-127728571D01*
X118919047Y-127823809D01*
%TO.C,Sw1*%
X38914285Y-71852380D02*
X38914285Y-70852380D01*
X39247619Y-71566666D01*
X39580952Y-70852380D01*
X39580952Y-71852380D01*
X40200000Y-71852380D02*
X40104761Y-71804761D01*
X40057142Y-71757142D01*
X40009523Y-71661904D01*
X40009523Y-71376190D01*
X40057142Y-71280952D01*
X40104761Y-71233333D01*
X40200000Y-71185714D01*
X40342857Y-71185714D01*
X40438095Y-71233333D01*
X40485714Y-71280952D01*
X40533333Y-71376190D01*
X40533333Y-71661904D01*
X40485714Y-71757142D01*
X40438095Y-71804761D01*
X40342857Y-71852380D01*
X40200000Y-71852380D01*
X41390476Y-71185714D02*
X41390476Y-71852380D01*
X40961904Y-71185714D02*
X40961904Y-71709523D01*
X41009523Y-71804761D01*
X41104761Y-71852380D01*
X41247619Y-71852380D01*
X41342857Y-71804761D01*
X41390476Y-71757142D01*
X41866666Y-71185714D02*
X41866666Y-71852380D01*
X41866666Y-71280952D02*
X41914285Y-71233333D01*
X42009523Y-71185714D01*
X42152380Y-71185714D01*
X42247619Y-71233333D01*
X42295238Y-71328571D01*
X42295238Y-71852380D01*
X42628571Y-71185714D02*
X43009523Y-71185714D01*
X42771428Y-70852380D02*
X42771428Y-71709523D01*
X42819047Y-71804761D01*
X42914285Y-71852380D01*
X43009523Y-71852380D01*
X43342857Y-71852380D02*
X43342857Y-71185714D01*
X43342857Y-70852380D02*
X43295238Y-70900000D01*
X43342857Y-70947619D01*
X43390476Y-70900000D01*
X43342857Y-70852380D01*
X43342857Y-70947619D01*
X43819047Y-71185714D02*
X43819047Y-71852380D01*
X43819047Y-71280952D02*
X43866666Y-71233333D01*
X43961904Y-71185714D01*
X44104761Y-71185714D01*
X44200000Y-71233333D01*
X44247619Y-71328571D01*
X44247619Y-71852380D01*
X45152380Y-71185714D02*
X45152380Y-71995238D01*
X45104761Y-72090476D01*
X45057142Y-72138095D01*
X44961904Y-72185714D01*
X44819047Y-72185714D01*
X44723809Y-72138095D01*
X45152380Y-71804761D02*
X45057142Y-71852380D01*
X44866666Y-71852380D01*
X44771428Y-71804761D01*
X44723809Y-71757142D01*
X44676190Y-71661904D01*
X44676190Y-71376190D01*
X44723809Y-71280952D01*
X44771428Y-71233333D01*
X44866666Y-71185714D01*
X45057142Y-71185714D01*
X45152380Y-71233333D01*
X45628571Y-71852380D02*
X45628571Y-70852380D01*
X45628571Y-71328571D02*
X46200000Y-71328571D01*
X46200000Y-71852380D02*
X46200000Y-70852380D01*
X46819047Y-71852380D02*
X46723809Y-71804761D01*
X46676190Y-71757142D01*
X46628571Y-71661904D01*
X46628571Y-71376190D01*
X46676190Y-71280952D01*
X46723809Y-71233333D01*
X46819047Y-71185714D01*
X46961904Y-71185714D01*
X47057142Y-71233333D01*
X47104761Y-71280952D01*
X47152380Y-71376190D01*
X47152380Y-71661904D01*
X47104761Y-71757142D01*
X47057142Y-71804761D01*
X46961904Y-71852380D01*
X46819047Y-71852380D01*
X47723809Y-71852380D02*
X47628571Y-71804761D01*
X47580952Y-71709523D01*
X47580952Y-70852380D01*
X48485714Y-71804761D02*
X48390476Y-71852380D01*
X48200000Y-71852380D01*
X48104761Y-71804761D01*
X48057142Y-71709523D01*
X48057142Y-71328571D01*
X48104761Y-71233333D01*
X48200000Y-71185714D01*
X48390476Y-71185714D01*
X48485714Y-71233333D01*
X48533333Y-71328571D01*
X48533333Y-71423809D01*
X48057142Y-71519047D01*
X42414285Y-73304761D02*
X42557142Y-73352380D01*
X42795238Y-73352380D01*
X42890476Y-73304761D01*
X42938095Y-73257142D01*
X42985714Y-73161904D01*
X42985714Y-73066666D01*
X42938095Y-72971428D01*
X42890476Y-72923809D01*
X42795238Y-72876190D01*
X42604761Y-72828571D01*
X42509523Y-72780952D01*
X42461904Y-72733333D01*
X42414285Y-72638095D01*
X42414285Y-72542857D01*
X42461904Y-72447619D01*
X42509523Y-72400000D01*
X42604761Y-72352380D01*
X42842857Y-72352380D01*
X42985714Y-72400000D01*
X43319047Y-72685714D02*
X43509523Y-73352380D01*
X43700000Y-72876190D01*
X43890476Y-73352380D01*
X44080952Y-72685714D01*
X44985714Y-73352380D02*
X44414285Y-73352380D01*
X44700000Y-73352380D02*
X44700000Y-72352380D01*
X44604761Y-72495238D01*
X44509523Y-72590476D01*
X44414285Y-72638095D01*
%TO.C,Switch8*%
X218714285Y-117252380D02*
X218714285Y-116252380D01*
X219047619Y-116966666D01*
X219380952Y-116252380D01*
X219380952Y-117252380D01*
X220000000Y-117252380D02*
X219904761Y-117204761D01*
X219857142Y-117157142D01*
X219809523Y-117061904D01*
X219809523Y-116776190D01*
X219857142Y-116680952D01*
X219904761Y-116633333D01*
X220000000Y-116585714D01*
X220142857Y-116585714D01*
X220238095Y-116633333D01*
X220285714Y-116680952D01*
X220333333Y-116776190D01*
X220333333Y-117061904D01*
X220285714Y-117157142D01*
X220238095Y-117204761D01*
X220142857Y-117252380D01*
X220000000Y-117252380D01*
X221190476Y-116585714D02*
X221190476Y-117252380D01*
X220761904Y-116585714D02*
X220761904Y-117109523D01*
X220809523Y-117204761D01*
X220904761Y-117252380D01*
X221047619Y-117252380D01*
X221142857Y-117204761D01*
X221190476Y-117157142D01*
X221666666Y-116585714D02*
X221666666Y-117252380D01*
X221666666Y-116680952D02*
X221714285Y-116633333D01*
X221809523Y-116585714D01*
X221952380Y-116585714D01*
X222047619Y-116633333D01*
X222095238Y-116728571D01*
X222095238Y-117252380D01*
X222428571Y-116585714D02*
X222809523Y-116585714D01*
X222571428Y-116252380D02*
X222571428Y-117109523D01*
X222619047Y-117204761D01*
X222714285Y-117252380D01*
X222809523Y-117252380D01*
X223142857Y-117252380D02*
X223142857Y-116585714D01*
X223142857Y-116252380D02*
X223095238Y-116300000D01*
X223142857Y-116347619D01*
X223190476Y-116300000D01*
X223142857Y-116252380D01*
X223142857Y-116347619D01*
X223619047Y-116585714D02*
X223619047Y-117252380D01*
X223619047Y-116680952D02*
X223666666Y-116633333D01*
X223761904Y-116585714D01*
X223904761Y-116585714D01*
X224000000Y-116633333D01*
X224047619Y-116728571D01*
X224047619Y-117252380D01*
X224952380Y-116585714D02*
X224952380Y-117395238D01*
X224904761Y-117490476D01*
X224857142Y-117538095D01*
X224761904Y-117585714D01*
X224619047Y-117585714D01*
X224523809Y-117538095D01*
X224952380Y-117204761D02*
X224857142Y-117252380D01*
X224666666Y-117252380D01*
X224571428Y-117204761D01*
X224523809Y-117157142D01*
X224476190Y-117061904D01*
X224476190Y-116776190D01*
X224523809Y-116680952D01*
X224571428Y-116633333D01*
X224666666Y-116585714D01*
X224857142Y-116585714D01*
X224952380Y-116633333D01*
X225428571Y-117252380D02*
X225428571Y-116252380D01*
X225428571Y-116728571D02*
X226000000Y-116728571D01*
X226000000Y-117252380D02*
X226000000Y-116252380D01*
X226619047Y-117252380D02*
X226523809Y-117204761D01*
X226476190Y-117157142D01*
X226428571Y-117061904D01*
X226428571Y-116776190D01*
X226476190Y-116680952D01*
X226523809Y-116633333D01*
X226619047Y-116585714D01*
X226761904Y-116585714D01*
X226857142Y-116633333D01*
X226904761Y-116680952D01*
X226952380Y-116776190D01*
X226952380Y-117061904D01*
X226904761Y-117157142D01*
X226857142Y-117204761D01*
X226761904Y-117252380D01*
X226619047Y-117252380D01*
X227523809Y-117252380D02*
X227428571Y-117204761D01*
X227380952Y-117109523D01*
X227380952Y-116252380D01*
X228285714Y-117204761D02*
X228190476Y-117252380D01*
X228000000Y-117252380D01*
X227904761Y-117204761D01*
X227857142Y-117109523D01*
X227857142Y-116728571D01*
X227904761Y-116633333D01*
X228000000Y-116585714D01*
X228190476Y-116585714D01*
X228285714Y-116633333D01*
X228333333Y-116728571D01*
X228333333Y-116823809D01*
X227857142Y-116919047D01*
X220809523Y-128204761D02*
X220952380Y-128252380D01*
X221190476Y-128252380D01*
X221285714Y-128204761D01*
X221333333Y-128157142D01*
X221380952Y-128061904D01*
X221380952Y-127966666D01*
X221333333Y-127871428D01*
X221285714Y-127823809D01*
X221190476Y-127776190D01*
X221000000Y-127728571D01*
X220904761Y-127680952D01*
X220857142Y-127633333D01*
X220809523Y-127538095D01*
X220809523Y-127442857D01*
X220857142Y-127347619D01*
X220904761Y-127300000D01*
X221000000Y-127252380D01*
X221238095Y-127252380D01*
X221380952Y-127300000D01*
X221714285Y-127585714D02*
X221904761Y-128252380D01*
X222095238Y-127776190D01*
X222285714Y-128252380D01*
X222476190Y-127585714D01*
X222857142Y-128252380D02*
X222857142Y-127585714D01*
X222857142Y-127252380D02*
X222809523Y-127300000D01*
X222857142Y-127347619D01*
X222904761Y-127300000D01*
X222857142Y-127252380D01*
X222857142Y-127347619D01*
X223190476Y-127585714D02*
X223571428Y-127585714D01*
X223333333Y-127252380D02*
X223333333Y-128109523D01*
X223380952Y-128204761D01*
X223476190Y-128252380D01*
X223571428Y-128252380D01*
X224333333Y-128204761D02*
X224238095Y-128252380D01*
X224047619Y-128252380D01*
X223952380Y-128204761D01*
X223904761Y-128157142D01*
X223857142Y-128061904D01*
X223857142Y-127776190D01*
X223904761Y-127680952D01*
X223952380Y-127633333D01*
X224047619Y-127585714D01*
X224238095Y-127585714D01*
X224333333Y-127633333D01*
X224761904Y-128252380D02*
X224761904Y-127252380D01*
X225190476Y-128252380D02*
X225190476Y-127728571D01*
X225142857Y-127633333D01*
X225047619Y-127585714D01*
X224904761Y-127585714D01*
X224809523Y-127633333D01*
X224761904Y-127680952D01*
X225809523Y-127680952D02*
X225714285Y-127633333D01*
X225666666Y-127585714D01*
X225619047Y-127490476D01*
X225619047Y-127442857D01*
X225666666Y-127347619D01*
X225714285Y-127300000D01*
X225809523Y-127252380D01*
X226000000Y-127252380D01*
X226095238Y-127300000D01*
X226142857Y-127347619D01*
X226190476Y-127442857D01*
X226190476Y-127490476D01*
X226142857Y-127585714D01*
X226095238Y-127633333D01*
X226000000Y-127680952D01*
X225809523Y-127680952D01*
X225714285Y-127728571D01*
X225666666Y-127776190D01*
X225619047Y-127871428D01*
X225619047Y-128061904D01*
X225666666Y-128157142D01*
X225714285Y-128204761D01*
X225809523Y-128252380D01*
X226000000Y-128252380D01*
X226095238Y-128204761D01*
X226142857Y-128157142D01*
X226190476Y-128061904D01*
X226190476Y-127871428D01*
X226142857Y-127776190D01*
X226095238Y-127728571D01*
X226000000Y-127680952D01*
%TO.C,Sw8*%
X198914285Y-121252380D02*
X198914285Y-120252380D01*
X199247619Y-120966666D01*
X199580952Y-120252380D01*
X199580952Y-121252380D01*
X200200000Y-121252380D02*
X200104761Y-121204761D01*
X200057142Y-121157142D01*
X200009523Y-121061904D01*
X200009523Y-120776190D01*
X200057142Y-120680952D01*
X200104761Y-120633333D01*
X200200000Y-120585714D01*
X200342857Y-120585714D01*
X200438095Y-120633333D01*
X200485714Y-120680952D01*
X200533333Y-120776190D01*
X200533333Y-121061904D01*
X200485714Y-121157142D01*
X200438095Y-121204761D01*
X200342857Y-121252380D01*
X200200000Y-121252380D01*
X201390476Y-120585714D02*
X201390476Y-121252380D01*
X200961904Y-120585714D02*
X200961904Y-121109523D01*
X201009523Y-121204761D01*
X201104761Y-121252380D01*
X201247619Y-121252380D01*
X201342857Y-121204761D01*
X201390476Y-121157142D01*
X201866666Y-120585714D02*
X201866666Y-121252380D01*
X201866666Y-120680952D02*
X201914285Y-120633333D01*
X202009523Y-120585714D01*
X202152380Y-120585714D01*
X202247619Y-120633333D01*
X202295238Y-120728571D01*
X202295238Y-121252380D01*
X202628571Y-120585714D02*
X203009523Y-120585714D01*
X202771428Y-120252380D02*
X202771428Y-121109523D01*
X202819047Y-121204761D01*
X202914285Y-121252380D01*
X203009523Y-121252380D01*
X203342857Y-121252380D02*
X203342857Y-120585714D01*
X203342857Y-120252380D02*
X203295238Y-120300000D01*
X203342857Y-120347619D01*
X203390476Y-120300000D01*
X203342857Y-120252380D01*
X203342857Y-120347619D01*
X203819047Y-120585714D02*
X203819047Y-121252380D01*
X203819047Y-120680952D02*
X203866666Y-120633333D01*
X203961904Y-120585714D01*
X204104761Y-120585714D01*
X204200000Y-120633333D01*
X204247619Y-120728571D01*
X204247619Y-121252380D01*
X205152380Y-120585714D02*
X205152380Y-121395238D01*
X205104761Y-121490476D01*
X205057142Y-121538095D01*
X204961904Y-121585714D01*
X204819047Y-121585714D01*
X204723809Y-121538095D01*
X205152380Y-121204761D02*
X205057142Y-121252380D01*
X204866666Y-121252380D01*
X204771428Y-121204761D01*
X204723809Y-121157142D01*
X204676190Y-121061904D01*
X204676190Y-120776190D01*
X204723809Y-120680952D01*
X204771428Y-120633333D01*
X204866666Y-120585714D01*
X205057142Y-120585714D01*
X205152380Y-120633333D01*
X205628571Y-121252380D02*
X205628571Y-120252380D01*
X205628571Y-120728571D02*
X206200000Y-120728571D01*
X206200000Y-121252380D02*
X206200000Y-120252380D01*
X206819047Y-121252380D02*
X206723809Y-121204761D01*
X206676190Y-121157142D01*
X206628571Y-121061904D01*
X206628571Y-120776190D01*
X206676190Y-120680952D01*
X206723809Y-120633333D01*
X206819047Y-120585714D01*
X206961904Y-120585714D01*
X207057142Y-120633333D01*
X207104761Y-120680952D01*
X207152380Y-120776190D01*
X207152380Y-121061904D01*
X207104761Y-121157142D01*
X207057142Y-121204761D01*
X206961904Y-121252380D01*
X206819047Y-121252380D01*
X207723809Y-121252380D02*
X207628571Y-121204761D01*
X207580952Y-121109523D01*
X207580952Y-120252380D01*
X208485714Y-121204761D02*
X208390476Y-121252380D01*
X208200000Y-121252380D01*
X208104761Y-121204761D01*
X208057142Y-121109523D01*
X208057142Y-120728571D01*
X208104761Y-120633333D01*
X208200000Y-120585714D01*
X208390476Y-120585714D01*
X208485714Y-120633333D01*
X208533333Y-120728571D01*
X208533333Y-120823809D01*
X208057142Y-120919047D01*
X202414285Y-122704761D02*
X202557142Y-122752380D01*
X202795238Y-122752380D01*
X202890476Y-122704761D01*
X202938095Y-122657142D01*
X202985714Y-122561904D01*
X202985714Y-122466666D01*
X202938095Y-122371428D01*
X202890476Y-122323809D01*
X202795238Y-122276190D01*
X202604761Y-122228571D01*
X202509523Y-122180952D01*
X202461904Y-122133333D01*
X202414285Y-122038095D01*
X202414285Y-121942857D01*
X202461904Y-121847619D01*
X202509523Y-121800000D01*
X202604761Y-121752380D01*
X202842857Y-121752380D01*
X202985714Y-121800000D01*
X203319047Y-122085714D02*
X203509523Y-122752380D01*
X203700000Y-122276190D01*
X203890476Y-122752380D01*
X204080952Y-122085714D01*
X204604761Y-122180952D02*
X204509523Y-122133333D01*
X204461904Y-122085714D01*
X204414285Y-121990476D01*
X204414285Y-121942857D01*
X204461904Y-121847619D01*
X204509523Y-121800000D01*
X204604761Y-121752380D01*
X204795238Y-121752380D01*
X204890476Y-121800000D01*
X204938095Y-121847619D01*
X204985714Y-121942857D01*
X204985714Y-121990476D01*
X204938095Y-122085714D01*
X204890476Y-122133333D01*
X204795238Y-122180952D01*
X204604761Y-122180952D01*
X204509523Y-122228571D01*
X204461904Y-122276190D01*
X204414285Y-122371428D01*
X204414285Y-122561904D01*
X204461904Y-122657142D01*
X204509523Y-122704761D01*
X204604761Y-122752380D01*
X204795238Y-122752380D01*
X204890476Y-122704761D01*
X204938095Y-122657142D01*
X204985714Y-122561904D01*
X204985714Y-122371428D01*
X204938095Y-122276190D01*
X204890476Y-122228571D01*
X204795238Y-122180952D01*
%TO.C,Sw7*%
X145914285Y-121252380D02*
X145914285Y-120252380D01*
X146247619Y-120966666D01*
X146580952Y-120252380D01*
X146580952Y-121252380D01*
X147200000Y-121252380D02*
X147104761Y-121204761D01*
X147057142Y-121157142D01*
X147009523Y-121061904D01*
X147009523Y-120776190D01*
X147057142Y-120680952D01*
X147104761Y-120633333D01*
X147200000Y-120585714D01*
X147342857Y-120585714D01*
X147438095Y-120633333D01*
X147485714Y-120680952D01*
X147533333Y-120776190D01*
X147533333Y-121061904D01*
X147485714Y-121157142D01*
X147438095Y-121204761D01*
X147342857Y-121252380D01*
X147200000Y-121252380D01*
X148390476Y-120585714D02*
X148390476Y-121252380D01*
X147961904Y-120585714D02*
X147961904Y-121109523D01*
X148009523Y-121204761D01*
X148104761Y-121252380D01*
X148247619Y-121252380D01*
X148342857Y-121204761D01*
X148390476Y-121157142D01*
X148866666Y-120585714D02*
X148866666Y-121252380D01*
X148866666Y-120680952D02*
X148914285Y-120633333D01*
X149009523Y-120585714D01*
X149152380Y-120585714D01*
X149247619Y-120633333D01*
X149295238Y-120728571D01*
X149295238Y-121252380D01*
X149628571Y-120585714D02*
X150009523Y-120585714D01*
X149771428Y-120252380D02*
X149771428Y-121109523D01*
X149819047Y-121204761D01*
X149914285Y-121252380D01*
X150009523Y-121252380D01*
X150342857Y-121252380D02*
X150342857Y-120585714D01*
X150342857Y-120252380D02*
X150295238Y-120300000D01*
X150342857Y-120347619D01*
X150390476Y-120300000D01*
X150342857Y-120252380D01*
X150342857Y-120347619D01*
X150819047Y-120585714D02*
X150819047Y-121252380D01*
X150819047Y-120680952D02*
X150866666Y-120633333D01*
X150961904Y-120585714D01*
X151104761Y-120585714D01*
X151200000Y-120633333D01*
X151247619Y-120728571D01*
X151247619Y-121252380D01*
X152152380Y-120585714D02*
X152152380Y-121395238D01*
X152104761Y-121490476D01*
X152057142Y-121538095D01*
X151961904Y-121585714D01*
X151819047Y-121585714D01*
X151723809Y-121538095D01*
X152152380Y-121204761D02*
X152057142Y-121252380D01*
X151866666Y-121252380D01*
X151771428Y-121204761D01*
X151723809Y-121157142D01*
X151676190Y-121061904D01*
X151676190Y-120776190D01*
X151723809Y-120680952D01*
X151771428Y-120633333D01*
X151866666Y-120585714D01*
X152057142Y-120585714D01*
X152152380Y-120633333D01*
X152628571Y-121252380D02*
X152628571Y-120252380D01*
X152628571Y-120728571D02*
X153200000Y-120728571D01*
X153200000Y-121252380D02*
X153200000Y-120252380D01*
X153819047Y-121252380D02*
X153723809Y-121204761D01*
X153676190Y-121157142D01*
X153628571Y-121061904D01*
X153628571Y-120776190D01*
X153676190Y-120680952D01*
X153723809Y-120633333D01*
X153819047Y-120585714D01*
X153961904Y-120585714D01*
X154057142Y-120633333D01*
X154104761Y-120680952D01*
X154152380Y-120776190D01*
X154152380Y-121061904D01*
X154104761Y-121157142D01*
X154057142Y-121204761D01*
X153961904Y-121252380D01*
X153819047Y-121252380D01*
X154723809Y-121252380D02*
X154628571Y-121204761D01*
X154580952Y-121109523D01*
X154580952Y-120252380D01*
X155485714Y-121204761D02*
X155390476Y-121252380D01*
X155200000Y-121252380D01*
X155104761Y-121204761D01*
X155057142Y-121109523D01*
X155057142Y-120728571D01*
X155104761Y-120633333D01*
X155200000Y-120585714D01*
X155390476Y-120585714D01*
X155485714Y-120633333D01*
X155533333Y-120728571D01*
X155533333Y-120823809D01*
X155057142Y-120919047D01*
X149414285Y-122704761D02*
X149557142Y-122752380D01*
X149795238Y-122752380D01*
X149890476Y-122704761D01*
X149938095Y-122657142D01*
X149985714Y-122561904D01*
X149985714Y-122466666D01*
X149938095Y-122371428D01*
X149890476Y-122323809D01*
X149795238Y-122276190D01*
X149604761Y-122228571D01*
X149509523Y-122180952D01*
X149461904Y-122133333D01*
X149414285Y-122038095D01*
X149414285Y-121942857D01*
X149461904Y-121847619D01*
X149509523Y-121800000D01*
X149604761Y-121752380D01*
X149842857Y-121752380D01*
X149985714Y-121800000D01*
X150319047Y-122085714D02*
X150509523Y-122752380D01*
X150700000Y-122276190D01*
X150890476Y-122752380D01*
X151080952Y-122085714D01*
X151366666Y-121752380D02*
X152033333Y-121752380D01*
X151604761Y-122752380D01*
%TO.C,H1*%
X25914285Y-50252380D02*
X25914285Y-49252380D01*
X26247619Y-49966666D01*
X26580952Y-49252380D01*
X26580952Y-50252380D01*
X27200000Y-50252380D02*
X27104761Y-50204761D01*
X27057142Y-50157142D01*
X27009523Y-50061904D01*
X27009523Y-49776190D01*
X27057142Y-49680952D01*
X27104761Y-49633333D01*
X27200000Y-49585714D01*
X27342857Y-49585714D01*
X27438095Y-49633333D01*
X27485714Y-49680952D01*
X27533333Y-49776190D01*
X27533333Y-50061904D01*
X27485714Y-50157142D01*
X27438095Y-50204761D01*
X27342857Y-50252380D01*
X27200000Y-50252380D01*
X28390476Y-49585714D02*
X28390476Y-50252380D01*
X27961904Y-49585714D02*
X27961904Y-50109523D01*
X28009523Y-50204761D01*
X28104761Y-50252380D01*
X28247619Y-50252380D01*
X28342857Y-50204761D01*
X28390476Y-50157142D01*
X28866666Y-49585714D02*
X28866666Y-50252380D01*
X28866666Y-49680952D02*
X28914285Y-49633333D01*
X29009523Y-49585714D01*
X29152380Y-49585714D01*
X29247619Y-49633333D01*
X29295238Y-49728571D01*
X29295238Y-50252380D01*
X29628571Y-49585714D02*
X30009523Y-49585714D01*
X29771428Y-49252380D02*
X29771428Y-50109523D01*
X29819047Y-50204761D01*
X29914285Y-50252380D01*
X30009523Y-50252380D01*
X30342857Y-50252380D02*
X30342857Y-49585714D01*
X30342857Y-49252380D02*
X30295238Y-49300000D01*
X30342857Y-49347619D01*
X30390476Y-49300000D01*
X30342857Y-49252380D01*
X30342857Y-49347619D01*
X30819047Y-49585714D02*
X30819047Y-50252380D01*
X30819047Y-49680952D02*
X30866666Y-49633333D01*
X30961904Y-49585714D01*
X31104761Y-49585714D01*
X31200000Y-49633333D01*
X31247619Y-49728571D01*
X31247619Y-50252380D01*
X32152380Y-49585714D02*
X32152380Y-50395238D01*
X32104761Y-50490476D01*
X32057142Y-50538095D01*
X31961904Y-50585714D01*
X31819047Y-50585714D01*
X31723809Y-50538095D01*
X32152380Y-50204761D02*
X32057142Y-50252380D01*
X31866666Y-50252380D01*
X31771428Y-50204761D01*
X31723809Y-50157142D01*
X31676190Y-50061904D01*
X31676190Y-49776190D01*
X31723809Y-49680952D01*
X31771428Y-49633333D01*
X31866666Y-49585714D01*
X32057142Y-49585714D01*
X32152380Y-49633333D01*
X32628571Y-50252380D02*
X32628571Y-49252380D01*
X32628571Y-49728571D02*
X33200000Y-49728571D01*
X33200000Y-50252380D02*
X33200000Y-49252380D01*
X33819047Y-50252380D02*
X33723809Y-50204761D01*
X33676190Y-50157142D01*
X33628571Y-50061904D01*
X33628571Y-49776190D01*
X33676190Y-49680952D01*
X33723809Y-49633333D01*
X33819047Y-49585714D01*
X33961904Y-49585714D01*
X34057142Y-49633333D01*
X34104761Y-49680952D01*
X34152380Y-49776190D01*
X34152380Y-50061904D01*
X34104761Y-50157142D01*
X34057142Y-50204761D01*
X33961904Y-50252380D01*
X33819047Y-50252380D01*
X34723809Y-50252380D02*
X34628571Y-50204761D01*
X34580952Y-50109523D01*
X34580952Y-49252380D01*
X35485714Y-50204761D02*
X35390476Y-50252380D01*
X35200000Y-50252380D01*
X35104761Y-50204761D01*
X35057142Y-50109523D01*
X35057142Y-49728571D01*
X35104761Y-49633333D01*
X35200000Y-49585714D01*
X35390476Y-49585714D01*
X35485714Y-49633333D01*
X35533333Y-49728571D01*
X35533333Y-49823809D01*
X35057142Y-49919047D01*
X29938095Y-46052380D02*
X29938095Y-45052380D01*
X29938095Y-45528571D02*
X30509523Y-45528571D01*
X30509523Y-46052380D02*
X30509523Y-45052380D01*
X31509523Y-46052380D02*
X30938095Y-46052380D01*
X31223809Y-46052380D02*
X31223809Y-45052380D01*
X31128571Y-45195238D01*
X31033333Y-45290476D01*
X30938095Y-45338095D01*
%TO.C,State*%
X157714285Y-49052380D02*
X157714285Y-48052380D01*
X158047619Y-48766666D01*
X158380952Y-48052380D01*
X158380952Y-49052380D01*
X159000000Y-49052380D02*
X158904761Y-49004761D01*
X158857142Y-48957142D01*
X158809523Y-48861904D01*
X158809523Y-48576190D01*
X158857142Y-48480952D01*
X158904761Y-48433333D01*
X159000000Y-48385714D01*
X159142857Y-48385714D01*
X159238095Y-48433333D01*
X159285714Y-48480952D01*
X159333333Y-48576190D01*
X159333333Y-48861904D01*
X159285714Y-48957142D01*
X159238095Y-49004761D01*
X159142857Y-49052380D01*
X159000000Y-49052380D01*
X160190476Y-48385714D02*
X160190476Y-49052380D01*
X159761904Y-48385714D02*
X159761904Y-48909523D01*
X159809523Y-49004761D01*
X159904761Y-49052380D01*
X160047619Y-49052380D01*
X160142857Y-49004761D01*
X160190476Y-48957142D01*
X160666666Y-48385714D02*
X160666666Y-49052380D01*
X160666666Y-48480952D02*
X160714285Y-48433333D01*
X160809523Y-48385714D01*
X160952380Y-48385714D01*
X161047619Y-48433333D01*
X161095238Y-48528571D01*
X161095238Y-49052380D01*
X161428571Y-48385714D02*
X161809523Y-48385714D01*
X161571428Y-48052380D02*
X161571428Y-48909523D01*
X161619047Y-49004761D01*
X161714285Y-49052380D01*
X161809523Y-49052380D01*
X162142857Y-49052380D02*
X162142857Y-48385714D01*
X162142857Y-48052380D02*
X162095238Y-48100000D01*
X162142857Y-48147619D01*
X162190476Y-48100000D01*
X162142857Y-48052380D01*
X162142857Y-48147619D01*
X162619047Y-48385714D02*
X162619047Y-49052380D01*
X162619047Y-48480952D02*
X162666666Y-48433333D01*
X162761904Y-48385714D01*
X162904761Y-48385714D01*
X163000000Y-48433333D01*
X163047619Y-48528571D01*
X163047619Y-49052380D01*
X163952380Y-48385714D02*
X163952380Y-49195238D01*
X163904761Y-49290476D01*
X163857142Y-49338095D01*
X163761904Y-49385714D01*
X163619047Y-49385714D01*
X163523809Y-49338095D01*
X163952380Y-49004761D02*
X163857142Y-49052380D01*
X163666666Y-49052380D01*
X163571428Y-49004761D01*
X163523809Y-48957142D01*
X163476190Y-48861904D01*
X163476190Y-48576190D01*
X163523809Y-48480952D01*
X163571428Y-48433333D01*
X163666666Y-48385714D01*
X163857142Y-48385714D01*
X163952380Y-48433333D01*
X164428571Y-49052380D02*
X164428571Y-48052380D01*
X164428571Y-48528571D02*
X165000000Y-48528571D01*
X165000000Y-49052380D02*
X165000000Y-48052380D01*
X165619047Y-49052380D02*
X165523809Y-49004761D01*
X165476190Y-48957142D01*
X165428571Y-48861904D01*
X165428571Y-48576190D01*
X165476190Y-48480952D01*
X165523809Y-48433333D01*
X165619047Y-48385714D01*
X165761904Y-48385714D01*
X165857142Y-48433333D01*
X165904761Y-48480952D01*
X165952380Y-48576190D01*
X165952380Y-48861904D01*
X165904761Y-48957142D01*
X165857142Y-49004761D01*
X165761904Y-49052380D01*
X165619047Y-49052380D01*
X166523809Y-49052380D02*
X166428571Y-49004761D01*
X166380952Y-48909523D01*
X166380952Y-48052380D01*
X167285714Y-49004761D02*
X167190476Y-49052380D01*
X167000000Y-49052380D01*
X166904761Y-49004761D01*
X166857142Y-48909523D01*
X166857142Y-48528571D01*
X166904761Y-48433333D01*
X167000000Y-48385714D01*
X167190476Y-48385714D01*
X167285714Y-48433333D01*
X167333333Y-48528571D01*
X167333333Y-48623809D01*
X166857142Y-48719047D01*
X160761904Y-50504761D02*
X160904761Y-50552380D01*
X161142857Y-50552380D01*
X161238095Y-50504761D01*
X161285714Y-50457142D01*
X161333333Y-50361904D01*
X161333333Y-50266666D01*
X161285714Y-50171428D01*
X161238095Y-50123809D01*
X161142857Y-50076190D01*
X160952380Y-50028571D01*
X160857142Y-49980952D01*
X160809523Y-49933333D01*
X160761904Y-49838095D01*
X160761904Y-49742857D01*
X160809523Y-49647619D01*
X160857142Y-49600000D01*
X160952380Y-49552380D01*
X161190476Y-49552380D01*
X161333333Y-49600000D01*
X161619047Y-49885714D02*
X162000000Y-49885714D01*
X161761904Y-49552380D02*
X161761904Y-50409523D01*
X161809523Y-50504761D01*
X161904761Y-50552380D01*
X162000000Y-50552380D01*
X162761904Y-50552380D02*
X162761904Y-50028571D01*
X162714285Y-49933333D01*
X162619047Y-49885714D01*
X162428571Y-49885714D01*
X162333333Y-49933333D01*
X162761904Y-50504761D02*
X162666666Y-50552380D01*
X162428571Y-50552380D01*
X162333333Y-50504761D01*
X162285714Y-50409523D01*
X162285714Y-50314285D01*
X162333333Y-50219047D01*
X162428571Y-50171428D01*
X162666666Y-50171428D01*
X162761904Y-50123809D01*
X163095238Y-49885714D02*
X163476190Y-49885714D01*
X163238095Y-49552380D02*
X163238095Y-50409523D01*
X163285714Y-50504761D01*
X163380952Y-50552380D01*
X163476190Y-50552380D01*
X164190476Y-50504761D02*
X164095238Y-50552380D01*
X163904761Y-50552380D01*
X163809523Y-50504761D01*
X163761904Y-50409523D01*
X163761904Y-50028571D01*
X163809523Y-49933333D01*
X163904761Y-49885714D01*
X164095238Y-49885714D01*
X164190476Y-49933333D01*
X164238095Y-50028571D01*
X164238095Y-50123809D01*
X163761904Y-50219047D01*
%TO.C,H2*%
X257414285Y-57252380D02*
X257414285Y-56252380D01*
X257747619Y-56966666D01*
X258080952Y-56252380D01*
X258080952Y-57252380D01*
X258700000Y-57252380D02*
X258604761Y-57204761D01*
X258557142Y-57157142D01*
X258509523Y-57061904D01*
X258509523Y-56776190D01*
X258557142Y-56680952D01*
X258604761Y-56633333D01*
X258700000Y-56585714D01*
X258842857Y-56585714D01*
X258938095Y-56633333D01*
X258985714Y-56680952D01*
X259033333Y-56776190D01*
X259033333Y-57061904D01*
X258985714Y-57157142D01*
X258938095Y-57204761D01*
X258842857Y-57252380D01*
X258700000Y-57252380D01*
X259890476Y-56585714D02*
X259890476Y-57252380D01*
X259461904Y-56585714D02*
X259461904Y-57109523D01*
X259509523Y-57204761D01*
X259604761Y-57252380D01*
X259747619Y-57252380D01*
X259842857Y-57204761D01*
X259890476Y-57157142D01*
X260366666Y-56585714D02*
X260366666Y-57252380D01*
X260366666Y-56680952D02*
X260414285Y-56633333D01*
X260509523Y-56585714D01*
X260652380Y-56585714D01*
X260747619Y-56633333D01*
X260795238Y-56728571D01*
X260795238Y-57252380D01*
X261128571Y-56585714D02*
X261509523Y-56585714D01*
X261271428Y-56252380D02*
X261271428Y-57109523D01*
X261319047Y-57204761D01*
X261414285Y-57252380D01*
X261509523Y-57252380D01*
X261842857Y-57252380D02*
X261842857Y-56585714D01*
X261842857Y-56252380D02*
X261795238Y-56300000D01*
X261842857Y-56347619D01*
X261890476Y-56300000D01*
X261842857Y-56252380D01*
X261842857Y-56347619D01*
X262319047Y-56585714D02*
X262319047Y-57252380D01*
X262319047Y-56680952D02*
X262366666Y-56633333D01*
X262461904Y-56585714D01*
X262604761Y-56585714D01*
X262700000Y-56633333D01*
X262747619Y-56728571D01*
X262747619Y-57252380D01*
X263652380Y-56585714D02*
X263652380Y-57395238D01*
X263604761Y-57490476D01*
X263557142Y-57538095D01*
X263461904Y-57585714D01*
X263319047Y-57585714D01*
X263223809Y-57538095D01*
X263652380Y-57204761D02*
X263557142Y-57252380D01*
X263366666Y-57252380D01*
X263271428Y-57204761D01*
X263223809Y-57157142D01*
X263176190Y-57061904D01*
X263176190Y-56776190D01*
X263223809Y-56680952D01*
X263271428Y-56633333D01*
X263366666Y-56585714D01*
X263557142Y-56585714D01*
X263652380Y-56633333D01*
X264128571Y-57252380D02*
X264128571Y-56252380D01*
X264128571Y-56728571D02*
X264700000Y-56728571D01*
X264700000Y-57252380D02*
X264700000Y-56252380D01*
X265319047Y-57252380D02*
X265223809Y-57204761D01*
X265176190Y-57157142D01*
X265128571Y-57061904D01*
X265128571Y-56776190D01*
X265176190Y-56680952D01*
X265223809Y-56633333D01*
X265319047Y-56585714D01*
X265461904Y-56585714D01*
X265557142Y-56633333D01*
X265604761Y-56680952D01*
X265652380Y-56776190D01*
X265652380Y-57061904D01*
X265604761Y-57157142D01*
X265557142Y-57204761D01*
X265461904Y-57252380D01*
X265319047Y-57252380D01*
X266223809Y-57252380D02*
X266128571Y-57204761D01*
X266080952Y-57109523D01*
X266080952Y-56252380D01*
X266985714Y-57204761D02*
X266890476Y-57252380D01*
X266700000Y-57252380D01*
X266604761Y-57204761D01*
X266557142Y-57109523D01*
X266557142Y-56728571D01*
X266604761Y-56633333D01*
X266700000Y-56585714D01*
X266890476Y-56585714D01*
X266985714Y-56633333D01*
X267033333Y-56728571D01*
X267033333Y-56823809D01*
X266557142Y-56919047D01*
X261438095Y-53052380D02*
X261438095Y-52052380D01*
X261438095Y-52528571D02*
X262009523Y-52528571D01*
X262009523Y-53052380D02*
X262009523Y-52052380D01*
X262438095Y-52147619D02*
X262485714Y-52100000D01*
X262580952Y-52052380D01*
X262819047Y-52052380D01*
X262914285Y-52100000D01*
X262961904Y-52147619D01*
X263009523Y-52242857D01*
X263009523Y-52338095D01*
X262961904Y-52480952D01*
X262390476Y-53052380D01*
X263009523Y-53052380D01*
%TO.C,H1*%
X25914285Y-151652380D02*
X25914285Y-150652380D01*
X26247619Y-151366666D01*
X26580952Y-150652380D01*
X26580952Y-151652380D01*
X27200000Y-151652380D02*
X27104761Y-151604761D01*
X27057142Y-151557142D01*
X27009523Y-151461904D01*
X27009523Y-151176190D01*
X27057142Y-151080952D01*
X27104761Y-151033333D01*
X27200000Y-150985714D01*
X27342857Y-150985714D01*
X27438095Y-151033333D01*
X27485714Y-151080952D01*
X27533333Y-151176190D01*
X27533333Y-151461904D01*
X27485714Y-151557142D01*
X27438095Y-151604761D01*
X27342857Y-151652380D01*
X27200000Y-151652380D01*
X28390476Y-150985714D02*
X28390476Y-151652380D01*
X27961904Y-150985714D02*
X27961904Y-151509523D01*
X28009523Y-151604761D01*
X28104761Y-151652380D01*
X28247619Y-151652380D01*
X28342857Y-151604761D01*
X28390476Y-151557142D01*
X28866666Y-150985714D02*
X28866666Y-151652380D01*
X28866666Y-151080952D02*
X28914285Y-151033333D01*
X29009523Y-150985714D01*
X29152380Y-150985714D01*
X29247619Y-151033333D01*
X29295238Y-151128571D01*
X29295238Y-151652380D01*
X29628571Y-150985714D02*
X30009523Y-150985714D01*
X29771428Y-150652380D02*
X29771428Y-151509523D01*
X29819047Y-151604761D01*
X29914285Y-151652380D01*
X30009523Y-151652380D01*
X30342857Y-151652380D02*
X30342857Y-150985714D01*
X30342857Y-150652380D02*
X30295238Y-150700000D01*
X30342857Y-150747619D01*
X30390476Y-150700000D01*
X30342857Y-150652380D01*
X30342857Y-150747619D01*
X30819047Y-150985714D02*
X30819047Y-151652380D01*
X30819047Y-151080952D02*
X30866666Y-151033333D01*
X30961904Y-150985714D01*
X31104761Y-150985714D01*
X31200000Y-151033333D01*
X31247619Y-151128571D01*
X31247619Y-151652380D01*
X32152380Y-150985714D02*
X32152380Y-151795238D01*
X32104761Y-151890476D01*
X32057142Y-151938095D01*
X31961904Y-151985714D01*
X31819047Y-151985714D01*
X31723809Y-151938095D01*
X32152380Y-151604761D02*
X32057142Y-151652380D01*
X31866666Y-151652380D01*
X31771428Y-151604761D01*
X31723809Y-151557142D01*
X31676190Y-151461904D01*
X31676190Y-151176190D01*
X31723809Y-151080952D01*
X31771428Y-151033333D01*
X31866666Y-150985714D01*
X32057142Y-150985714D01*
X32152380Y-151033333D01*
X32628571Y-151652380D02*
X32628571Y-150652380D01*
X32628571Y-151128571D02*
X33200000Y-151128571D01*
X33200000Y-151652380D02*
X33200000Y-150652380D01*
X33819047Y-151652380D02*
X33723809Y-151604761D01*
X33676190Y-151557142D01*
X33628571Y-151461904D01*
X33628571Y-151176190D01*
X33676190Y-151080952D01*
X33723809Y-151033333D01*
X33819047Y-150985714D01*
X33961904Y-150985714D01*
X34057142Y-151033333D01*
X34104761Y-151080952D01*
X34152380Y-151176190D01*
X34152380Y-151461904D01*
X34104761Y-151557142D01*
X34057142Y-151604761D01*
X33961904Y-151652380D01*
X33819047Y-151652380D01*
X34723809Y-151652380D02*
X34628571Y-151604761D01*
X34580952Y-151509523D01*
X34580952Y-150652380D01*
X35485714Y-151604761D02*
X35390476Y-151652380D01*
X35200000Y-151652380D01*
X35104761Y-151604761D01*
X35057142Y-151509523D01*
X35057142Y-151128571D01*
X35104761Y-151033333D01*
X35200000Y-150985714D01*
X35390476Y-150985714D01*
X35485714Y-151033333D01*
X35533333Y-151128571D01*
X35533333Y-151223809D01*
X35057142Y-151319047D01*
X29938095Y-147452380D02*
X29938095Y-146452380D01*
X29938095Y-146928571D02*
X30509523Y-146928571D01*
X30509523Y-147452380D02*
X30509523Y-146452380D01*
X31509523Y-147452380D02*
X30938095Y-147452380D01*
X31223809Y-147452380D02*
X31223809Y-146452380D01*
X31128571Y-146595238D01*
X31033333Y-146690476D01*
X30938095Y-146738095D01*
X265814285Y-50152380D02*
X265814285Y-49152380D01*
X266147619Y-49866666D01*
X266480952Y-49152380D01*
X266480952Y-50152380D01*
X267100000Y-50152380D02*
X267004761Y-50104761D01*
X266957142Y-50057142D01*
X266909523Y-49961904D01*
X266909523Y-49676190D01*
X266957142Y-49580952D01*
X267004761Y-49533333D01*
X267100000Y-49485714D01*
X267242857Y-49485714D01*
X267338095Y-49533333D01*
X267385714Y-49580952D01*
X267433333Y-49676190D01*
X267433333Y-49961904D01*
X267385714Y-50057142D01*
X267338095Y-50104761D01*
X267242857Y-50152380D01*
X267100000Y-50152380D01*
X268290476Y-49485714D02*
X268290476Y-50152380D01*
X267861904Y-49485714D02*
X267861904Y-50009523D01*
X267909523Y-50104761D01*
X268004761Y-50152380D01*
X268147619Y-50152380D01*
X268242857Y-50104761D01*
X268290476Y-50057142D01*
X268766666Y-49485714D02*
X268766666Y-50152380D01*
X268766666Y-49580952D02*
X268814285Y-49533333D01*
X268909523Y-49485714D01*
X269052380Y-49485714D01*
X269147619Y-49533333D01*
X269195238Y-49628571D01*
X269195238Y-50152380D01*
X269528571Y-49485714D02*
X269909523Y-49485714D01*
X269671428Y-49152380D02*
X269671428Y-50009523D01*
X269719047Y-50104761D01*
X269814285Y-50152380D01*
X269909523Y-50152380D01*
X270242857Y-50152380D02*
X270242857Y-49485714D01*
X270242857Y-49152380D02*
X270195238Y-49200000D01*
X270242857Y-49247619D01*
X270290476Y-49200000D01*
X270242857Y-49152380D01*
X270242857Y-49247619D01*
X270719047Y-49485714D02*
X270719047Y-50152380D01*
X270719047Y-49580952D02*
X270766666Y-49533333D01*
X270861904Y-49485714D01*
X271004761Y-49485714D01*
X271100000Y-49533333D01*
X271147619Y-49628571D01*
X271147619Y-50152380D01*
X272052380Y-49485714D02*
X272052380Y-50295238D01*
X272004761Y-50390476D01*
X271957142Y-50438095D01*
X271861904Y-50485714D01*
X271719047Y-50485714D01*
X271623809Y-50438095D01*
X272052380Y-50104761D02*
X271957142Y-50152380D01*
X271766666Y-50152380D01*
X271671428Y-50104761D01*
X271623809Y-50057142D01*
X271576190Y-49961904D01*
X271576190Y-49676190D01*
X271623809Y-49580952D01*
X271671428Y-49533333D01*
X271766666Y-49485714D01*
X271957142Y-49485714D01*
X272052380Y-49533333D01*
X272528571Y-50152380D02*
X272528571Y-49152380D01*
X272528571Y-49628571D02*
X273100000Y-49628571D01*
X273100000Y-50152380D02*
X273100000Y-49152380D01*
X273719047Y-50152380D02*
X273623809Y-50104761D01*
X273576190Y-50057142D01*
X273528571Y-49961904D01*
X273528571Y-49676190D01*
X273576190Y-49580952D01*
X273623809Y-49533333D01*
X273719047Y-49485714D01*
X273861904Y-49485714D01*
X273957142Y-49533333D01*
X274004761Y-49580952D01*
X274052380Y-49676190D01*
X274052380Y-49961904D01*
X274004761Y-50057142D01*
X273957142Y-50104761D01*
X273861904Y-50152380D01*
X273719047Y-50152380D01*
X274623809Y-50152380D02*
X274528571Y-50104761D01*
X274480952Y-50009523D01*
X274480952Y-49152380D01*
X275385714Y-50104761D02*
X275290476Y-50152380D01*
X275100000Y-50152380D01*
X275004761Y-50104761D01*
X274957142Y-50009523D01*
X274957142Y-49628571D01*
X275004761Y-49533333D01*
X275100000Y-49485714D01*
X275290476Y-49485714D01*
X275385714Y-49533333D01*
X275433333Y-49628571D01*
X275433333Y-49723809D01*
X274957142Y-49819047D01*
X269838095Y-45952380D02*
X269838095Y-44952380D01*
X269838095Y-45428571D02*
X270409523Y-45428571D01*
X270409523Y-45952380D02*
X270409523Y-44952380D01*
X271409523Y-45952380D02*
X270838095Y-45952380D01*
X271123809Y-45952380D02*
X271123809Y-44952380D01*
X271028571Y-45095238D01*
X270933333Y-45190476D01*
X270838095Y-45238095D01*
%TO.C,Switch1*%
X58414285Y-67852380D02*
X58414285Y-66852380D01*
X58747619Y-67566666D01*
X59080952Y-66852380D01*
X59080952Y-67852380D01*
X59700000Y-67852380D02*
X59604761Y-67804761D01*
X59557142Y-67757142D01*
X59509523Y-67661904D01*
X59509523Y-67376190D01*
X59557142Y-67280952D01*
X59604761Y-67233333D01*
X59700000Y-67185714D01*
X59842857Y-67185714D01*
X59938095Y-67233333D01*
X59985714Y-67280952D01*
X60033333Y-67376190D01*
X60033333Y-67661904D01*
X59985714Y-67757142D01*
X59938095Y-67804761D01*
X59842857Y-67852380D01*
X59700000Y-67852380D01*
X60890476Y-67185714D02*
X60890476Y-67852380D01*
X60461904Y-67185714D02*
X60461904Y-67709523D01*
X60509523Y-67804761D01*
X60604761Y-67852380D01*
X60747619Y-67852380D01*
X60842857Y-67804761D01*
X60890476Y-67757142D01*
X61366666Y-67185714D02*
X61366666Y-67852380D01*
X61366666Y-67280952D02*
X61414285Y-67233333D01*
X61509523Y-67185714D01*
X61652380Y-67185714D01*
X61747619Y-67233333D01*
X61795238Y-67328571D01*
X61795238Y-67852380D01*
X62128571Y-67185714D02*
X62509523Y-67185714D01*
X62271428Y-66852380D02*
X62271428Y-67709523D01*
X62319047Y-67804761D01*
X62414285Y-67852380D01*
X62509523Y-67852380D01*
X62842857Y-67852380D02*
X62842857Y-67185714D01*
X62842857Y-66852380D02*
X62795238Y-66900000D01*
X62842857Y-66947619D01*
X62890476Y-66900000D01*
X62842857Y-66852380D01*
X62842857Y-66947619D01*
X63319047Y-67185714D02*
X63319047Y-67852380D01*
X63319047Y-67280952D02*
X63366666Y-67233333D01*
X63461904Y-67185714D01*
X63604761Y-67185714D01*
X63700000Y-67233333D01*
X63747619Y-67328571D01*
X63747619Y-67852380D01*
X64652380Y-67185714D02*
X64652380Y-67995238D01*
X64604761Y-68090476D01*
X64557142Y-68138095D01*
X64461904Y-68185714D01*
X64319047Y-68185714D01*
X64223809Y-68138095D01*
X64652380Y-67804761D02*
X64557142Y-67852380D01*
X64366666Y-67852380D01*
X64271428Y-67804761D01*
X64223809Y-67757142D01*
X64176190Y-67661904D01*
X64176190Y-67376190D01*
X64223809Y-67280952D01*
X64271428Y-67233333D01*
X64366666Y-67185714D01*
X64557142Y-67185714D01*
X64652380Y-67233333D01*
X65128571Y-67852380D02*
X65128571Y-66852380D01*
X65128571Y-67328571D02*
X65700000Y-67328571D01*
X65700000Y-67852380D02*
X65700000Y-66852380D01*
X66319047Y-67852380D02*
X66223809Y-67804761D01*
X66176190Y-67757142D01*
X66128571Y-67661904D01*
X66128571Y-67376190D01*
X66176190Y-67280952D01*
X66223809Y-67233333D01*
X66319047Y-67185714D01*
X66461904Y-67185714D01*
X66557142Y-67233333D01*
X66604761Y-67280952D01*
X66652380Y-67376190D01*
X66652380Y-67661904D01*
X66604761Y-67757142D01*
X66557142Y-67804761D01*
X66461904Y-67852380D01*
X66319047Y-67852380D01*
X67223809Y-67852380D02*
X67128571Y-67804761D01*
X67080952Y-67709523D01*
X67080952Y-66852380D01*
X67985714Y-67804761D02*
X67890476Y-67852380D01*
X67700000Y-67852380D01*
X67604761Y-67804761D01*
X67557142Y-67709523D01*
X67557142Y-67328571D01*
X67604761Y-67233333D01*
X67700000Y-67185714D01*
X67890476Y-67185714D01*
X67985714Y-67233333D01*
X68033333Y-67328571D01*
X68033333Y-67423809D01*
X67557142Y-67519047D01*
X60509523Y-78804761D02*
X60652380Y-78852380D01*
X60890476Y-78852380D01*
X60985714Y-78804761D01*
X61033333Y-78757142D01*
X61080952Y-78661904D01*
X61080952Y-78566666D01*
X61033333Y-78471428D01*
X60985714Y-78423809D01*
X60890476Y-78376190D01*
X60700000Y-78328571D01*
X60604761Y-78280952D01*
X60557142Y-78233333D01*
X60509523Y-78138095D01*
X60509523Y-78042857D01*
X60557142Y-77947619D01*
X60604761Y-77900000D01*
X60700000Y-77852380D01*
X60938095Y-77852380D01*
X61080952Y-77900000D01*
X61414285Y-78185714D02*
X61604761Y-78852380D01*
X61795238Y-78376190D01*
X61985714Y-78852380D01*
X62176190Y-78185714D01*
X62557142Y-78852380D02*
X62557142Y-78185714D01*
X62557142Y-77852380D02*
X62509523Y-77900000D01*
X62557142Y-77947619D01*
X62604761Y-77900000D01*
X62557142Y-77852380D01*
X62557142Y-77947619D01*
X62890476Y-78185714D02*
X63271428Y-78185714D01*
X63033333Y-77852380D02*
X63033333Y-78709523D01*
X63080952Y-78804761D01*
X63176190Y-78852380D01*
X63271428Y-78852380D01*
X64033333Y-78804761D02*
X63938095Y-78852380D01*
X63747619Y-78852380D01*
X63652380Y-78804761D01*
X63604761Y-78757142D01*
X63557142Y-78661904D01*
X63557142Y-78376190D01*
X63604761Y-78280952D01*
X63652380Y-78233333D01*
X63747619Y-78185714D01*
X63938095Y-78185714D01*
X64033333Y-78233333D01*
X64461904Y-78852380D02*
X64461904Y-77852380D01*
X64890476Y-78852380D02*
X64890476Y-78328571D01*
X64842857Y-78233333D01*
X64747619Y-78185714D01*
X64604761Y-78185714D01*
X64509523Y-78233333D01*
X64461904Y-78280952D01*
X65890476Y-78852380D02*
X65319047Y-78852380D01*
X65604761Y-78852380D02*
X65604761Y-77852380D01*
X65509523Y-77995238D01*
X65414285Y-78090476D01*
X65319047Y-78138095D01*
%TD*%
M02*
