%TF.GenerationSoftware,KiCad,Pcbnew,(6.0.9)*%
%TF.CreationDate,2022-12-12T15:39:58+01:00*%
%TF.ProjectId,BigFoot,42696746-6f6f-4742-9e6b-696361645f70,rev?*%
%TF.SameCoordinates,Original*%
%TF.FileFunction,Soldermask,Top*%
%TF.FilePolarity,Negative*%
%FSLAX46Y46*%
G04 Gerber Fmt 4.6, Leading zero omitted, Abs format (unit mm)*
G04 Created by KiCad (PCBNEW (6.0.9)) date 2022-12-12 15:39:58*
%MOMM*%
%LPD*%
G01*
G04 APERTURE LIST*
%ADD10C,1.600000*%
%ADD11O,1.600000X1.600000*%
%ADD12R,1.800000X1.800000*%
%ADD13C,1.800000*%
%ADD14R,3.000000X3.000000*%
%ADD15C,3.000000*%
%ADD16C,3.200000*%
%ADD17C,2.524000*%
%ADD18C,1.524000*%
%ADD19R,1.600000X1.600000*%
%ADD20C,2.400000*%
%ADD21R,2.400000X0.500000*%
G04 APERTURE END LIST*
D10*
%TO.C,R3*%
X47200000Y-75360000D03*
D11*
X62440000Y-75360000D03*
%TD*%
D12*
%TO.C,LedSW4*%
X36345000Y-113240000D03*
D13*
X38885000Y-113240000D03*
%TD*%
D12*
%TO.C,LedSW3*%
X196345000Y-63820000D03*
D13*
X198885000Y-63820000D03*
%TD*%
D10*
%TO.C,R7*%
X100540000Y-75360000D03*
D11*
X115780000Y-75360000D03*
%TD*%
D14*
%TO.C,FootSwitch7*%
X221380000Y-115740000D03*
D15*
X217380000Y-115735003D03*
X213380000Y-115740000D03*
%TD*%
D16*
%TO.C,H4*%
X256120000Y-126400000D03*
%TD*%
D17*
%TO.C,ExprPedalJack1*%
X232090000Y-46252500D03*
X248390000Y-46252500D03*
X232090000Y-40002500D03*
X248390000Y-40002500D03*
X232090000Y-52502500D03*
X248390000Y-52502500D03*
%TD*%
D10*
%TO.C,R10*%
X207220000Y-124780000D03*
D11*
X222460000Y-124780000D03*
%TD*%
D18*
%TO.C,TRS/RTS_Switch2*%
X169160000Y-46930000D03*
X171660000Y-46930000D03*
X174160000Y-46930000D03*
X169160000Y-50230000D03*
X171660000Y-50230000D03*
X174160000Y-50230000D03*
%TD*%
D12*
%TO.C,LedSW2*%
X150095000Y-63820000D03*
D13*
X152635000Y-63820000D03*
%TD*%
D10*
%TO.C,R9*%
X100540000Y-124780000D03*
D11*
X115780000Y-124780000D03*
%TD*%
D10*
%TO.C,R11*%
X146260000Y-46040000D03*
D11*
X146260000Y-61280000D03*
%TD*%
D12*
%TO.C,LedSW1*%
X89845000Y-63820000D03*
D13*
X92385000Y-63820000D03*
%TD*%
D10*
%TO.C,R8*%
X207220000Y-74598000D03*
D11*
X222460000Y-74598000D03*
%TD*%
D10*
%TO.C,R6*%
X153880000Y-124780000D03*
D11*
X169120000Y-124780000D03*
%TD*%
D16*
%TO.C,H1*%
X33120000Y-40650000D03*
%TD*%
D14*
%TO.C,FootSwitch0*%
X61106000Y-66320000D03*
D15*
X57106000Y-66315003D03*
X53106000Y-66320000D03*
%TD*%
D14*
%TO.C,BankSwitch+1*%
X254400000Y-76480000D03*
D15*
X250400000Y-76475003D03*
X246400000Y-76480000D03*
%TD*%
D16*
%TO.C,H2*%
X256120000Y-40650000D03*
%TD*%
D12*
%TO.C,StateLED1*%
X155120000Y-40960000D03*
D13*
X157660000Y-40960000D03*
%TD*%
D12*
%TO.C,LedSW7*%
X196345000Y-113240000D03*
D13*
X198885000Y-113240000D03*
%TD*%
D14*
%TO.C,BankSwith-1*%
X254400000Y-104420000D03*
D15*
X250400000Y-104415003D03*
X246400000Y-104420000D03*
%TD*%
D14*
%TO.C,FootSwitch4*%
X61106000Y-115740000D03*
D15*
X57106000Y-115735003D03*
X53106000Y-115740000D03*
%TD*%
D10*
%TO.C,R1*%
X69000000Y-63820000D03*
D11*
X84240000Y-63820000D03*
%TD*%
D10*
%TO.C,R2*%
X82750000Y-56400000D03*
D11*
X97990000Y-56400000D03*
%TD*%
D12*
%TO.C,LedSW0*%
X36345000Y-63820000D03*
D13*
X38885000Y-63820000D03*
%TD*%
D17*
%TO.C,ExprPedalJack2*%
X183830000Y-46252500D03*
X200130000Y-46252500D03*
X183830000Y-40002500D03*
X200130000Y-40002500D03*
X183830000Y-52502500D03*
X200130000Y-52502500D03*
%TD*%
D19*
%TO.C,U1*%
X129760000Y-82885000D03*
D11*
X129760000Y-85425000D03*
X129760000Y-87965000D03*
X129760000Y-90505000D03*
X129760000Y-93045000D03*
X129760000Y-95585000D03*
X129760000Y-98125000D03*
X129760000Y-100665000D03*
X137380000Y-100665000D03*
X137380000Y-98125000D03*
X137380000Y-95585000D03*
X137380000Y-93045000D03*
X137380000Y-90505000D03*
X137380000Y-87965000D03*
X137380000Y-85425000D03*
X137380000Y-82885000D03*
%TD*%
D18*
%TO.C,TRS/RTS_Switch1*%
X217420000Y-46930000D03*
X219920000Y-46930000D03*
X222420000Y-46930000D03*
X217420000Y-50230000D03*
X219920000Y-50230000D03*
X222420000Y-50230000D03*
%TD*%
D16*
%TO.C,H3*%
X33120000Y-126400000D03*
%TD*%
D14*
%TO.C,FootSwitch2*%
X168040000Y-66320000D03*
D15*
X164040000Y-66315003D03*
X160040000Y-66320000D03*
%TD*%
D12*
%TO.C,LedSW5*%
X89845000Y-113240000D03*
D13*
X92385000Y-113240000D03*
%TD*%
D14*
%TO.C,FootSwitch3*%
X221380000Y-66320000D03*
D15*
X217380000Y-66315003D03*
X213380000Y-66320000D03*
%TD*%
D12*
%TO.C,LedSW6*%
X143345000Y-113240000D03*
D13*
X145885000Y-113240000D03*
%TD*%
D20*
%TO.C,MidiOut1*%
X70180000Y-46362500D03*
X77680000Y-46362500D03*
X85180000Y-46362500D03*
X72680000Y-48862500D03*
X82680000Y-48862500D03*
D21*
X75180000Y-36362500D03*
X80180000Y-36362500D03*
%TD*%
D19*
%TO.C,U2*%
X180560000Y-80345000D03*
D11*
X180560000Y-82885000D03*
X180560000Y-85425000D03*
X180560000Y-87965000D03*
X180560000Y-90505000D03*
X180560000Y-93045000D03*
X180560000Y-95585000D03*
X180560000Y-98125000D03*
X188180000Y-98125000D03*
X188180000Y-95585000D03*
X188180000Y-93045000D03*
X188180000Y-90505000D03*
X188180000Y-87965000D03*
X188180000Y-85425000D03*
X188180000Y-82885000D03*
X188180000Y-80345000D03*
%TD*%
D10*
%TO.C,R4*%
X153880000Y-75360000D03*
D11*
X169120000Y-75360000D03*
%TD*%
D14*
%TO.C,FootSwitch5*%
X114700000Y-115740000D03*
D15*
X110700000Y-115735003D03*
X106700000Y-115740000D03*
%TD*%
D19*
%TO.C,U3*%
X125940000Y-37150000D03*
D10*
X125940000Y-39690000D03*
X125940000Y-42230000D03*
X125940000Y-44770000D03*
X125940000Y-47310000D03*
X125940000Y-49850000D03*
X125940000Y-52390000D03*
X125940000Y-54930000D03*
X125940000Y-57470000D03*
X125940000Y-60010000D03*
X125940000Y-62550000D03*
X125940000Y-65090000D03*
X125940000Y-67630000D03*
X125940000Y-70170000D03*
X128480000Y-70170000D03*
X131020000Y-70170000D03*
X133560000Y-70170000D03*
X136100000Y-70170000D03*
X138640000Y-70170000D03*
X141180000Y-70170000D03*
X141180000Y-67630000D03*
X141180000Y-65090000D03*
X141180000Y-62550000D03*
X141180000Y-60010000D03*
X141180000Y-57470000D03*
X141180000Y-54930000D03*
X141180000Y-52390000D03*
X141180000Y-49850000D03*
X141180000Y-47310000D03*
X141180000Y-44770000D03*
X141180000Y-42230000D03*
X141180000Y-39690000D03*
X141180000Y-37150000D03*
X138640000Y-39690000D03*
X138640000Y-44770000D03*
X138640000Y-47310000D03*
X138640000Y-49850000D03*
X131274000Y-37327800D03*
X133255200Y-37327800D03*
%TD*%
D14*
%TO.C,FootSwitch1*%
X114700000Y-66320000D03*
D15*
X110700000Y-66315003D03*
X106700000Y-66320000D03*
%TD*%
D14*
%TO.C,FootSwitch6*%
X168040000Y-115740000D03*
D15*
X164040000Y-115735003D03*
X160040000Y-115740000D03*
%TD*%
D10*
%TO.C,R5*%
X46946000Y-123620000D03*
D11*
X62186000Y-123620000D03*
%TD*%
M02*
