%TF.GenerationSoftware,KiCad,Pcbnew,(6.0.9)*%
%TF.CreationDate,2022-12-12T15:39:58+01:00*%
%TF.ProjectId,BigFoot,42696746-6f6f-4742-9e6b-696361645f70,rev?*%
%TF.SameCoordinates,Original*%
%TF.FileFunction,Legend,Top*%
%TF.FilePolarity,Positive*%
%FSLAX46Y46*%
G04 Gerber Fmt 4.6, Leading zero omitted, Abs format (unit mm)*
G04 Created by KiCad (PCBNEW (6.0.9)) date 2022-12-12 15:39:58*
%MOMM*%
%LPD*%
G01*
G04 APERTURE LIST*
%ADD10C,1.000000*%
%ADD11C,0.300000*%
%ADD12C,0.150000*%
%ADD13C,0.120000*%
%ADD14C,0.100000*%
G04 APERTURE END LIST*
D10*
X56329523Y-86322857D02*
X57043809Y-86560952D01*
X57281904Y-86799047D01*
X57520000Y-87275238D01*
X57520000Y-87989523D01*
X57281904Y-88465714D01*
X57043809Y-88703809D01*
X56567619Y-88941904D01*
X54662857Y-88941904D01*
X54662857Y-83941904D01*
X56329523Y-83941904D01*
X56805714Y-84180000D01*
X57043809Y-84418095D01*
X57281904Y-84894285D01*
X57281904Y-85370476D01*
X57043809Y-85846666D01*
X56805714Y-86084761D01*
X56329523Y-86322857D01*
X54662857Y-86322857D01*
X59662857Y-88941904D02*
X59662857Y-85608571D01*
X59662857Y-83941904D02*
X59424761Y-84180000D01*
X59662857Y-84418095D01*
X59900952Y-84180000D01*
X59662857Y-83941904D01*
X59662857Y-84418095D01*
X64186666Y-85608571D02*
X64186666Y-89656190D01*
X63948571Y-90132380D01*
X63710476Y-90370476D01*
X63234285Y-90608571D01*
X62520000Y-90608571D01*
X62043809Y-90370476D01*
X64186666Y-88703809D02*
X63710476Y-88941904D01*
X62758095Y-88941904D01*
X62281904Y-88703809D01*
X62043809Y-88465714D01*
X61805714Y-87989523D01*
X61805714Y-86560952D01*
X62043809Y-86084761D01*
X62281904Y-85846666D01*
X62758095Y-85608571D01*
X63710476Y-85608571D01*
X64186666Y-85846666D01*
X68234285Y-86322857D02*
X66567619Y-86322857D01*
X66567619Y-88941904D02*
X66567619Y-83941904D01*
X68948571Y-83941904D01*
X71567619Y-88941904D02*
X71091428Y-88703809D01*
X70853333Y-88465714D01*
X70615238Y-87989523D01*
X70615238Y-86560952D01*
X70853333Y-86084761D01*
X71091428Y-85846666D01*
X71567619Y-85608571D01*
X72281904Y-85608571D01*
X72758095Y-85846666D01*
X72996190Y-86084761D01*
X73234285Y-86560952D01*
X73234285Y-87989523D01*
X72996190Y-88465714D01*
X72758095Y-88703809D01*
X72281904Y-88941904D01*
X71567619Y-88941904D01*
X76091428Y-88941904D02*
X75615238Y-88703809D01*
X75377142Y-88465714D01*
X75139047Y-87989523D01*
X75139047Y-86560952D01*
X75377142Y-86084761D01*
X75615238Y-85846666D01*
X76091428Y-85608571D01*
X76805714Y-85608571D01*
X77281904Y-85846666D01*
X77520000Y-86084761D01*
X77758095Y-86560952D01*
X77758095Y-87989523D01*
X77520000Y-88465714D01*
X77281904Y-88703809D01*
X76805714Y-88941904D01*
X76091428Y-88941904D01*
X79186666Y-85608571D02*
X81091428Y-85608571D01*
X79900952Y-83941904D02*
X79900952Y-88227619D01*
X80139047Y-88703809D01*
X80615238Y-88941904D01*
X81091428Y-88941904D01*
D11*
X55012857Y-95427142D02*
X54346190Y-95427142D01*
X54346190Y-96474761D02*
X54346190Y-94474761D01*
X55298571Y-94474761D01*
X56346190Y-96474761D02*
X56155714Y-96379523D01*
X56060476Y-96284285D01*
X55965238Y-96093809D01*
X55965238Y-95522380D01*
X56060476Y-95331904D01*
X56155714Y-95236666D01*
X56346190Y-95141428D01*
X56631904Y-95141428D01*
X56822380Y-95236666D01*
X56917619Y-95331904D01*
X57012857Y-95522380D01*
X57012857Y-96093809D01*
X56917619Y-96284285D01*
X56822380Y-96379523D01*
X56631904Y-96474761D01*
X56346190Y-96474761D01*
X58155714Y-96474761D02*
X57965238Y-96379523D01*
X57870000Y-96284285D01*
X57774761Y-96093809D01*
X57774761Y-95522380D01*
X57870000Y-95331904D01*
X57965238Y-95236666D01*
X58155714Y-95141428D01*
X58441428Y-95141428D01*
X58631904Y-95236666D01*
X58727142Y-95331904D01*
X58822380Y-95522380D01*
X58822380Y-96093809D01*
X58727142Y-96284285D01*
X58631904Y-96379523D01*
X58441428Y-96474761D01*
X58155714Y-96474761D01*
X59393809Y-95141428D02*
X60155714Y-95141428D01*
X59679523Y-94474761D02*
X59679523Y-96189047D01*
X59774761Y-96379523D01*
X59965238Y-96474761D01*
X60155714Y-96474761D01*
X60727142Y-96379523D02*
X61012857Y-96474761D01*
X61489047Y-96474761D01*
X61679523Y-96379523D01*
X61774761Y-96284285D01*
X61870000Y-96093809D01*
X61870000Y-95903333D01*
X61774761Y-95712857D01*
X61679523Y-95617619D01*
X61489047Y-95522380D01*
X61108095Y-95427142D01*
X60917619Y-95331904D01*
X60822380Y-95236666D01*
X60727142Y-95046190D01*
X60727142Y-94855714D01*
X60822380Y-94665238D01*
X60917619Y-94570000D01*
X61108095Y-94474761D01*
X61584285Y-94474761D01*
X61870000Y-94570000D01*
X62536666Y-95141428D02*
X62917619Y-96474761D01*
X63298571Y-95522380D01*
X63679523Y-96474761D01*
X64060476Y-95141428D01*
X64822380Y-96474761D02*
X64822380Y-95141428D01*
X64822380Y-94474761D02*
X64727142Y-94570000D01*
X64822380Y-94665238D01*
X64917619Y-94570000D01*
X64822380Y-94474761D01*
X64822380Y-94665238D01*
X65489047Y-95141428D02*
X66250952Y-95141428D01*
X65774761Y-94474761D02*
X65774761Y-96189047D01*
X65870000Y-96379523D01*
X66060476Y-96474761D01*
X66250952Y-96474761D01*
X67774761Y-96379523D02*
X67584285Y-96474761D01*
X67203333Y-96474761D01*
X67012857Y-96379523D01*
X66917619Y-96284285D01*
X66822380Y-96093809D01*
X66822380Y-95522380D01*
X66917619Y-95331904D01*
X67012857Y-95236666D01*
X67203333Y-95141428D01*
X67584285Y-95141428D01*
X67774761Y-95236666D01*
X68631904Y-96474761D02*
X68631904Y-94474761D01*
X69489047Y-96474761D02*
X69489047Y-95427142D01*
X69393809Y-95236666D01*
X69203333Y-95141428D01*
X68917619Y-95141428D01*
X68727142Y-95236666D01*
X68631904Y-95331904D01*
X71965238Y-96474761D02*
X71965238Y-94474761D01*
X72631904Y-95903333D01*
X73298571Y-94474761D01*
X73298571Y-96474761D01*
X74250952Y-96474761D02*
X74250952Y-95141428D01*
X74250952Y-94474761D02*
X74155714Y-94570000D01*
X74250952Y-94665238D01*
X74346190Y-94570000D01*
X74250952Y-94474761D01*
X74250952Y-94665238D01*
X76060476Y-96474761D02*
X76060476Y-94474761D01*
X76060476Y-96379523D02*
X75870000Y-96474761D01*
X75489047Y-96474761D01*
X75298571Y-96379523D01*
X75203333Y-96284285D01*
X75108095Y-96093809D01*
X75108095Y-95522380D01*
X75203333Y-95331904D01*
X75298571Y-95236666D01*
X75489047Y-95141428D01*
X75870000Y-95141428D01*
X76060476Y-95236666D01*
X77012857Y-96474761D02*
X77012857Y-95141428D01*
X77012857Y-94474761D02*
X76917619Y-94570000D01*
X77012857Y-94665238D01*
X77108095Y-94570000D01*
X77012857Y-94474761D01*
X77012857Y-94665238D01*
X80631904Y-96284285D02*
X80536666Y-96379523D01*
X80250952Y-96474761D01*
X80060476Y-96474761D01*
X79774761Y-96379523D01*
X79584285Y-96189047D01*
X79489047Y-95998571D01*
X79393809Y-95617619D01*
X79393809Y-95331904D01*
X79489047Y-94950952D01*
X79584285Y-94760476D01*
X79774761Y-94570000D01*
X80060476Y-94474761D01*
X80250952Y-94474761D01*
X80536666Y-94570000D01*
X80631904Y-94665238D01*
X81774761Y-96474761D02*
X81584285Y-96379523D01*
X81489047Y-96284285D01*
X81393809Y-96093809D01*
X81393809Y-95522380D01*
X81489047Y-95331904D01*
X81584285Y-95236666D01*
X81774761Y-95141428D01*
X82060476Y-95141428D01*
X82250952Y-95236666D01*
X82346190Y-95331904D01*
X82441428Y-95522380D01*
X82441428Y-96093809D01*
X82346190Y-96284285D01*
X82250952Y-96379523D01*
X82060476Y-96474761D01*
X81774761Y-96474761D01*
X83298571Y-95141428D02*
X83298571Y-96474761D01*
X83298571Y-95331904D02*
X83393809Y-95236666D01*
X83584285Y-95141428D01*
X83870000Y-95141428D01*
X84060476Y-95236666D01*
X84155714Y-95427142D01*
X84155714Y-96474761D01*
X84822380Y-95141428D02*
X85584285Y-95141428D01*
X85108095Y-94474761D02*
X85108095Y-96189047D01*
X85203333Y-96379523D01*
X85393809Y-96474761D01*
X85584285Y-96474761D01*
X86250952Y-96474761D02*
X86250952Y-95141428D01*
X86250952Y-95522380D02*
X86346190Y-95331904D01*
X86441428Y-95236666D01*
X86631904Y-95141428D01*
X86822380Y-95141428D01*
X87774761Y-96474761D02*
X87584285Y-96379523D01*
X87489047Y-96284285D01*
X87393809Y-96093809D01*
X87393809Y-95522380D01*
X87489047Y-95331904D01*
X87584285Y-95236666D01*
X87774761Y-95141428D01*
X88060476Y-95141428D01*
X88250952Y-95236666D01*
X88346190Y-95331904D01*
X88441428Y-95522380D01*
X88441428Y-96093809D01*
X88346190Y-96284285D01*
X88250952Y-96379523D01*
X88060476Y-96474761D01*
X87774761Y-96474761D01*
X89584285Y-96474761D02*
X89393809Y-96379523D01*
X89298571Y-96189047D01*
X89298571Y-94474761D01*
X90631904Y-96474761D02*
X90441428Y-96379523D01*
X90346190Y-96189047D01*
X90346190Y-94474761D01*
X92155714Y-96379523D02*
X91965238Y-96474761D01*
X91584285Y-96474761D01*
X91393809Y-96379523D01*
X91298571Y-96189047D01*
X91298571Y-95427142D01*
X91393809Y-95236666D01*
X91584285Y-95141428D01*
X91965238Y-95141428D01*
X92155714Y-95236666D01*
X92250952Y-95427142D01*
X92250952Y-95617619D01*
X91298571Y-95808095D01*
X93108095Y-96474761D02*
X93108095Y-95141428D01*
X93108095Y-95522380D02*
X93203333Y-95331904D01*
X93298571Y-95236666D01*
X93489047Y-95141428D01*
X93679523Y-95141428D01*
D12*
X56383809Y-92212380D02*
X56050476Y-91736190D01*
X55812380Y-92212380D02*
X55812380Y-91212380D01*
X56193333Y-91212380D01*
X56288571Y-91260000D01*
X56336190Y-91307619D01*
X56383809Y-91402857D01*
X56383809Y-91545714D01*
X56336190Y-91640952D01*
X56288571Y-91688571D01*
X56193333Y-91736190D01*
X55812380Y-91736190D01*
X57193333Y-92164761D02*
X57098095Y-92212380D01*
X56907619Y-92212380D01*
X56812380Y-92164761D01*
X56764761Y-92069523D01*
X56764761Y-91688571D01*
X56812380Y-91593333D01*
X56907619Y-91545714D01*
X57098095Y-91545714D01*
X57193333Y-91593333D01*
X57240952Y-91688571D01*
X57240952Y-91783809D01*
X56764761Y-91879047D01*
X57574285Y-91545714D02*
X57812380Y-92212380D01*
X58050476Y-91545714D01*
X58336190Y-91212380D02*
X58955238Y-91212380D01*
X58621904Y-91593333D01*
X58764761Y-91593333D01*
X58860000Y-91640952D01*
X58907619Y-91688571D01*
X58955238Y-91783809D01*
X58955238Y-92021904D01*
X58907619Y-92117142D01*
X58860000Y-92164761D01*
X58764761Y-92212380D01*
X58479047Y-92212380D01*
X58383809Y-92164761D01*
X58336190Y-92117142D01*
%TO.C,R3*%
X54653333Y-73092380D02*
X54320000Y-72616190D01*
X54081904Y-73092380D02*
X54081904Y-72092380D01*
X54462857Y-72092380D01*
X54558095Y-72140000D01*
X54605714Y-72187619D01*
X54653333Y-72282857D01*
X54653333Y-72425714D01*
X54605714Y-72520952D01*
X54558095Y-72568571D01*
X54462857Y-72616190D01*
X54081904Y-72616190D01*
X54986666Y-72092380D02*
X55605714Y-72092380D01*
X55272380Y-72473333D01*
X55415238Y-72473333D01*
X55510476Y-72520952D01*
X55558095Y-72568571D01*
X55605714Y-72663809D01*
X55605714Y-72901904D01*
X55558095Y-72997142D01*
X55510476Y-73044761D01*
X55415238Y-73092380D01*
X55129523Y-73092380D01*
X55034285Y-73044761D01*
X54986666Y-72997142D01*
%TO.C,LedSW4*%
X35519761Y-110732380D02*
X35043571Y-110732380D01*
X35043571Y-109732380D01*
X36234047Y-110684761D02*
X36138809Y-110732380D01*
X35948333Y-110732380D01*
X35853095Y-110684761D01*
X35805476Y-110589523D01*
X35805476Y-110208571D01*
X35853095Y-110113333D01*
X35948333Y-110065714D01*
X36138809Y-110065714D01*
X36234047Y-110113333D01*
X36281666Y-110208571D01*
X36281666Y-110303809D01*
X35805476Y-110399047D01*
X37138809Y-110732380D02*
X37138809Y-109732380D01*
X37138809Y-110684761D02*
X37043571Y-110732380D01*
X36853095Y-110732380D01*
X36757857Y-110684761D01*
X36710238Y-110637142D01*
X36662619Y-110541904D01*
X36662619Y-110256190D01*
X36710238Y-110160952D01*
X36757857Y-110113333D01*
X36853095Y-110065714D01*
X37043571Y-110065714D01*
X37138809Y-110113333D01*
X37567380Y-110684761D02*
X37710238Y-110732380D01*
X37948333Y-110732380D01*
X38043571Y-110684761D01*
X38091190Y-110637142D01*
X38138809Y-110541904D01*
X38138809Y-110446666D01*
X38091190Y-110351428D01*
X38043571Y-110303809D01*
X37948333Y-110256190D01*
X37757857Y-110208571D01*
X37662619Y-110160952D01*
X37615000Y-110113333D01*
X37567380Y-110018095D01*
X37567380Y-109922857D01*
X37615000Y-109827619D01*
X37662619Y-109780000D01*
X37757857Y-109732380D01*
X37995952Y-109732380D01*
X38138809Y-109780000D01*
X38472142Y-109732380D02*
X38710238Y-110732380D01*
X38900714Y-110018095D01*
X39091190Y-110732380D01*
X39329285Y-109732380D01*
X40138809Y-110065714D02*
X40138809Y-110732380D01*
X39900714Y-109684761D02*
X39662619Y-110399047D01*
X40281666Y-110399047D01*
%TO.C,LedSW3*%
X195519761Y-67352380D02*
X195043571Y-67352380D01*
X195043571Y-66352380D01*
X196234047Y-67304761D02*
X196138809Y-67352380D01*
X195948333Y-67352380D01*
X195853095Y-67304761D01*
X195805476Y-67209523D01*
X195805476Y-66828571D01*
X195853095Y-66733333D01*
X195948333Y-66685714D01*
X196138809Y-66685714D01*
X196234047Y-66733333D01*
X196281666Y-66828571D01*
X196281666Y-66923809D01*
X195805476Y-67019047D01*
X197138809Y-67352380D02*
X197138809Y-66352380D01*
X197138809Y-67304761D02*
X197043571Y-67352380D01*
X196853095Y-67352380D01*
X196757857Y-67304761D01*
X196710238Y-67257142D01*
X196662619Y-67161904D01*
X196662619Y-66876190D01*
X196710238Y-66780952D01*
X196757857Y-66733333D01*
X196853095Y-66685714D01*
X197043571Y-66685714D01*
X197138809Y-66733333D01*
X197567380Y-67304761D02*
X197710238Y-67352380D01*
X197948333Y-67352380D01*
X198043571Y-67304761D01*
X198091190Y-67257142D01*
X198138809Y-67161904D01*
X198138809Y-67066666D01*
X198091190Y-66971428D01*
X198043571Y-66923809D01*
X197948333Y-66876190D01*
X197757857Y-66828571D01*
X197662619Y-66780952D01*
X197615000Y-66733333D01*
X197567380Y-66638095D01*
X197567380Y-66542857D01*
X197615000Y-66447619D01*
X197662619Y-66400000D01*
X197757857Y-66352380D01*
X197995952Y-66352380D01*
X198138809Y-66400000D01*
X198472142Y-66352380D02*
X198710238Y-67352380D01*
X198900714Y-66638095D01*
X199091190Y-67352380D01*
X199329285Y-66352380D01*
X199615000Y-66352380D02*
X200234047Y-66352380D01*
X199900714Y-66733333D01*
X200043571Y-66733333D01*
X200138809Y-66780952D01*
X200186428Y-66828571D01*
X200234047Y-66923809D01*
X200234047Y-67161904D01*
X200186428Y-67257142D01*
X200138809Y-67304761D01*
X200043571Y-67352380D01*
X199757857Y-67352380D01*
X199662619Y-67304761D01*
X199615000Y-67257142D01*
%TO.C,R7*%
X107993333Y-73092380D02*
X107660000Y-72616190D01*
X107421904Y-73092380D02*
X107421904Y-72092380D01*
X107802857Y-72092380D01*
X107898095Y-72140000D01*
X107945714Y-72187619D01*
X107993333Y-72282857D01*
X107993333Y-72425714D01*
X107945714Y-72520952D01*
X107898095Y-72568571D01*
X107802857Y-72616190D01*
X107421904Y-72616190D01*
X108326666Y-72092380D02*
X108993333Y-72092380D01*
X108564761Y-73092380D01*
%TO.C,FootSwitch7*%
X213451428Y-112668571D02*
X213118095Y-112668571D01*
X213118095Y-113192380D02*
X213118095Y-112192380D01*
X213594285Y-112192380D01*
X214118095Y-113192380D02*
X214022857Y-113144761D01*
X213975238Y-113097142D01*
X213927619Y-113001904D01*
X213927619Y-112716190D01*
X213975238Y-112620952D01*
X214022857Y-112573333D01*
X214118095Y-112525714D01*
X214260952Y-112525714D01*
X214356190Y-112573333D01*
X214403809Y-112620952D01*
X214451428Y-112716190D01*
X214451428Y-113001904D01*
X214403809Y-113097142D01*
X214356190Y-113144761D01*
X214260952Y-113192380D01*
X214118095Y-113192380D01*
X215022857Y-113192380D02*
X214927619Y-113144761D01*
X214880000Y-113097142D01*
X214832380Y-113001904D01*
X214832380Y-112716190D01*
X214880000Y-112620952D01*
X214927619Y-112573333D01*
X215022857Y-112525714D01*
X215165714Y-112525714D01*
X215260952Y-112573333D01*
X215308571Y-112620952D01*
X215356190Y-112716190D01*
X215356190Y-113001904D01*
X215308571Y-113097142D01*
X215260952Y-113144761D01*
X215165714Y-113192380D01*
X215022857Y-113192380D01*
X215641904Y-112525714D02*
X216022857Y-112525714D01*
X215784761Y-112192380D02*
X215784761Y-113049523D01*
X215832380Y-113144761D01*
X215927619Y-113192380D01*
X216022857Y-113192380D01*
X216308571Y-113144761D02*
X216451428Y-113192380D01*
X216689523Y-113192380D01*
X216784761Y-113144761D01*
X216832380Y-113097142D01*
X216880000Y-113001904D01*
X216880000Y-112906666D01*
X216832380Y-112811428D01*
X216784761Y-112763809D01*
X216689523Y-112716190D01*
X216499047Y-112668571D01*
X216403809Y-112620952D01*
X216356190Y-112573333D01*
X216308571Y-112478095D01*
X216308571Y-112382857D01*
X216356190Y-112287619D01*
X216403809Y-112240000D01*
X216499047Y-112192380D01*
X216737142Y-112192380D01*
X216880000Y-112240000D01*
X217213333Y-112525714D02*
X217403809Y-113192380D01*
X217594285Y-112716190D01*
X217784761Y-113192380D01*
X217975238Y-112525714D01*
X218356190Y-113192380D02*
X218356190Y-112525714D01*
X218356190Y-112192380D02*
X218308571Y-112240000D01*
X218356190Y-112287619D01*
X218403809Y-112240000D01*
X218356190Y-112192380D01*
X218356190Y-112287619D01*
X218689523Y-112525714D02*
X219070476Y-112525714D01*
X218832380Y-112192380D02*
X218832380Y-113049523D01*
X218880000Y-113144761D01*
X218975238Y-113192380D01*
X219070476Y-113192380D01*
X219832380Y-113144761D02*
X219737142Y-113192380D01*
X219546666Y-113192380D01*
X219451428Y-113144761D01*
X219403809Y-113097142D01*
X219356190Y-113001904D01*
X219356190Y-112716190D01*
X219403809Y-112620952D01*
X219451428Y-112573333D01*
X219546666Y-112525714D01*
X219737142Y-112525714D01*
X219832380Y-112573333D01*
X220260952Y-113192380D02*
X220260952Y-112192380D01*
X220689523Y-113192380D02*
X220689523Y-112668571D01*
X220641904Y-112573333D01*
X220546666Y-112525714D01*
X220403809Y-112525714D01*
X220308571Y-112573333D01*
X220260952Y-112620952D01*
X221070476Y-112192380D02*
X221737142Y-112192380D01*
X221308571Y-113192380D01*
%TO.C,H4*%
X255358095Y-122652380D02*
X255358095Y-121652380D01*
X255358095Y-122128571D02*
X255929523Y-122128571D01*
X255929523Y-122652380D02*
X255929523Y-121652380D01*
X256834285Y-121985714D02*
X256834285Y-122652380D01*
X256596190Y-121604761D02*
X256358095Y-122319047D01*
X256977142Y-122319047D01*
%TO.C,ExprPedalJack1*%
X240168571Y-51921547D02*
X240168571Y-51588214D01*
X240692380Y-51445357D02*
X240692380Y-51921547D01*
X239692380Y-51921547D01*
X239692380Y-51445357D01*
X240692380Y-51112023D02*
X240025714Y-50588214D01*
X240025714Y-51112023D02*
X240692380Y-50588214D01*
X240025714Y-50207261D02*
X241025714Y-50207261D01*
X240073333Y-50207261D02*
X240025714Y-50112023D01*
X240025714Y-49921547D01*
X240073333Y-49826309D01*
X240120952Y-49778690D01*
X240216190Y-49731071D01*
X240501904Y-49731071D01*
X240597142Y-49778690D01*
X240644761Y-49826309D01*
X240692380Y-49921547D01*
X240692380Y-50112023D01*
X240644761Y-50207261D01*
X240692380Y-49302500D02*
X240025714Y-49302500D01*
X240216190Y-49302500D02*
X240120952Y-49254880D01*
X240073333Y-49207261D01*
X240025714Y-49112023D01*
X240025714Y-49016785D01*
X240692380Y-48683452D02*
X239692380Y-48683452D01*
X239692380Y-48302500D01*
X239740000Y-48207261D01*
X239787619Y-48159642D01*
X239882857Y-48112023D01*
X240025714Y-48112023D01*
X240120952Y-48159642D01*
X240168571Y-48207261D01*
X240216190Y-48302500D01*
X240216190Y-48683452D01*
X240644761Y-47302500D02*
X240692380Y-47397738D01*
X240692380Y-47588214D01*
X240644761Y-47683452D01*
X240549523Y-47731071D01*
X240168571Y-47731071D01*
X240073333Y-47683452D01*
X240025714Y-47588214D01*
X240025714Y-47397738D01*
X240073333Y-47302500D01*
X240168571Y-47254880D01*
X240263809Y-47254880D01*
X240359047Y-47731071D01*
X240692380Y-46397738D02*
X239692380Y-46397738D01*
X240644761Y-46397738D02*
X240692380Y-46492976D01*
X240692380Y-46683452D01*
X240644761Y-46778690D01*
X240597142Y-46826309D01*
X240501904Y-46873928D01*
X240216190Y-46873928D01*
X240120952Y-46826309D01*
X240073333Y-46778690D01*
X240025714Y-46683452D01*
X240025714Y-46492976D01*
X240073333Y-46397738D01*
X240692380Y-45492976D02*
X240168571Y-45492976D01*
X240073333Y-45540595D01*
X240025714Y-45635833D01*
X240025714Y-45826309D01*
X240073333Y-45921547D01*
X240644761Y-45492976D02*
X240692380Y-45588214D01*
X240692380Y-45826309D01*
X240644761Y-45921547D01*
X240549523Y-45969166D01*
X240454285Y-45969166D01*
X240359047Y-45921547D01*
X240311428Y-45826309D01*
X240311428Y-45588214D01*
X240263809Y-45492976D01*
X240692380Y-44873928D02*
X240644761Y-44969166D01*
X240549523Y-45016785D01*
X239692380Y-45016785D01*
X239692380Y-44207261D02*
X240406666Y-44207261D01*
X240549523Y-44254880D01*
X240644761Y-44350119D01*
X240692380Y-44492976D01*
X240692380Y-44588214D01*
X240692380Y-43302500D02*
X240168571Y-43302500D01*
X240073333Y-43350119D01*
X240025714Y-43445357D01*
X240025714Y-43635833D01*
X240073333Y-43731071D01*
X240644761Y-43302500D02*
X240692380Y-43397738D01*
X240692380Y-43635833D01*
X240644761Y-43731071D01*
X240549523Y-43778690D01*
X240454285Y-43778690D01*
X240359047Y-43731071D01*
X240311428Y-43635833D01*
X240311428Y-43397738D01*
X240263809Y-43302500D01*
X240644761Y-42397738D02*
X240692380Y-42492976D01*
X240692380Y-42683452D01*
X240644761Y-42778690D01*
X240597142Y-42826309D01*
X240501904Y-42873928D01*
X240216190Y-42873928D01*
X240120952Y-42826309D01*
X240073333Y-42778690D01*
X240025714Y-42683452D01*
X240025714Y-42492976D01*
X240073333Y-42397738D01*
X240692380Y-41969166D02*
X239692380Y-41969166D01*
X240311428Y-41873928D02*
X240692380Y-41588214D01*
X240025714Y-41588214D02*
X240406666Y-41969166D01*
X240692380Y-40635833D02*
X240692380Y-41207261D01*
X240692380Y-40921547D02*
X239692380Y-40921547D01*
X239835238Y-41016785D01*
X239930476Y-41112023D01*
X239978095Y-41207261D01*
X233954285Y-40707261D02*
X234097142Y-40754880D01*
X234335238Y-40754880D01*
X234430476Y-40707261D01*
X234478095Y-40659642D01*
X234525714Y-40564404D01*
X234525714Y-40469166D01*
X234478095Y-40373928D01*
X234430476Y-40326309D01*
X234335238Y-40278690D01*
X234144761Y-40231071D01*
X234049523Y-40183452D01*
X234001904Y-40135833D01*
X233954285Y-40040595D01*
X233954285Y-39945357D01*
X234001904Y-39850119D01*
X234049523Y-39802500D01*
X234144761Y-39754880D01*
X234382857Y-39754880D01*
X234525714Y-39802500D01*
X244430476Y-51754880D02*
X245001904Y-51754880D01*
X244716190Y-52754880D02*
X244716190Y-51754880D01*
X245335238Y-52754880D02*
X245335238Y-51754880D01*
X245906666Y-52754880D01*
X245906666Y-51754880D01*
X245025714Y-46754880D02*
X244692380Y-46278690D01*
X244454285Y-46754880D02*
X244454285Y-45754880D01*
X244835238Y-45754880D01*
X244930476Y-45802500D01*
X244978095Y-45850119D01*
X245025714Y-45945357D01*
X245025714Y-46088214D01*
X244978095Y-46183452D01*
X244930476Y-46231071D01*
X244835238Y-46278690D01*
X244454285Y-46278690D01*
X245454285Y-46754880D02*
X245454285Y-45754880D01*
X246025714Y-46754880D01*
X246025714Y-45754880D01*
X234549523Y-46754880D02*
X234216190Y-46278690D01*
X233978095Y-46754880D02*
X233978095Y-45754880D01*
X234359047Y-45754880D01*
X234454285Y-45802500D01*
X234501904Y-45850119D01*
X234549523Y-45945357D01*
X234549523Y-46088214D01*
X234501904Y-46183452D01*
X234454285Y-46231071D01*
X234359047Y-46278690D01*
X233978095Y-46278690D01*
X244430476Y-40707261D02*
X244573333Y-40754880D01*
X244811428Y-40754880D01*
X244906666Y-40707261D01*
X244954285Y-40659642D01*
X245001904Y-40564404D01*
X245001904Y-40469166D01*
X244954285Y-40373928D01*
X244906666Y-40326309D01*
X244811428Y-40278690D01*
X244620952Y-40231071D01*
X244525714Y-40183452D01*
X244478095Y-40135833D01*
X244430476Y-40040595D01*
X244430476Y-39945357D01*
X244478095Y-39850119D01*
X244525714Y-39802500D01*
X244620952Y-39754880D01*
X244859047Y-39754880D01*
X245001904Y-39802500D01*
X245430476Y-40754880D02*
X245430476Y-39754880D01*
X246001904Y-40754880D01*
X246001904Y-39754880D01*
X233954285Y-51754880D02*
X234525714Y-51754880D01*
X234240000Y-52754880D02*
X234240000Y-51754880D01*
%TO.C,R10*%
X214197142Y-122512380D02*
X213863809Y-122036190D01*
X213625714Y-122512380D02*
X213625714Y-121512380D01*
X214006666Y-121512380D01*
X214101904Y-121560000D01*
X214149523Y-121607619D01*
X214197142Y-121702857D01*
X214197142Y-121845714D01*
X214149523Y-121940952D01*
X214101904Y-121988571D01*
X214006666Y-122036190D01*
X213625714Y-122036190D01*
X215149523Y-122512380D02*
X214578095Y-122512380D01*
X214863809Y-122512380D02*
X214863809Y-121512380D01*
X214768571Y-121655238D01*
X214673333Y-121750476D01*
X214578095Y-121798095D01*
X215768571Y-121512380D02*
X215863809Y-121512380D01*
X215959047Y-121560000D01*
X216006666Y-121607619D01*
X216054285Y-121702857D01*
X216101904Y-121893333D01*
X216101904Y-122131428D01*
X216054285Y-122321904D01*
X216006666Y-122417142D01*
X215959047Y-122464761D01*
X215863809Y-122512380D01*
X215768571Y-122512380D01*
X215673333Y-122464761D01*
X215625714Y-122417142D01*
X215578095Y-122321904D01*
X215530476Y-122131428D01*
X215530476Y-121893333D01*
X215578095Y-121702857D01*
X215625714Y-121607619D01*
X215673333Y-121560000D01*
X215768571Y-121512380D01*
%TO.C,TRS/RTS_Switch2*%
X165255238Y-44222380D02*
X165826666Y-44222380D01*
X165540952Y-45222380D02*
X165540952Y-44222380D01*
X166731428Y-45222380D02*
X166398095Y-44746190D01*
X166160000Y-45222380D02*
X166160000Y-44222380D01*
X166540952Y-44222380D01*
X166636190Y-44270000D01*
X166683809Y-44317619D01*
X166731428Y-44412857D01*
X166731428Y-44555714D01*
X166683809Y-44650952D01*
X166636190Y-44698571D01*
X166540952Y-44746190D01*
X166160000Y-44746190D01*
X167112380Y-45174761D02*
X167255238Y-45222380D01*
X167493333Y-45222380D01*
X167588571Y-45174761D01*
X167636190Y-45127142D01*
X167683809Y-45031904D01*
X167683809Y-44936666D01*
X167636190Y-44841428D01*
X167588571Y-44793809D01*
X167493333Y-44746190D01*
X167302857Y-44698571D01*
X167207619Y-44650952D01*
X167160000Y-44603333D01*
X167112380Y-44508095D01*
X167112380Y-44412857D01*
X167160000Y-44317619D01*
X167207619Y-44270000D01*
X167302857Y-44222380D01*
X167540952Y-44222380D01*
X167683809Y-44270000D01*
X168826666Y-44174761D02*
X167969523Y-45460476D01*
X169731428Y-45222380D02*
X169398095Y-44746190D01*
X169160000Y-45222380D02*
X169160000Y-44222380D01*
X169540952Y-44222380D01*
X169636190Y-44270000D01*
X169683809Y-44317619D01*
X169731428Y-44412857D01*
X169731428Y-44555714D01*
X169683809Y-44650952D01*
X169636190Y-44698571D01*
X169540952Y-44746190D01*
X169160000Y-44746190D01*
X170017142Y-44222380D02*
X170588571Y-44222380D01*
X170302857Y-45222380D02*
X170302857Y-44222380D01*
X170874285Y-45174761D02*
X171017142Y-45222380D01*
X171255238Y-45222380D01*
X171350476Y-45174761D01*
X171398095Y-45127142D01*
X171445714Y-45031904D01*
X171445714Y-44936666D01*
X171398095Y-44841428D01*
X171350476Y-44793809D01*
X171255238Y-44746190D01*
X171064761Y-44698571D01*
X170969523Y-44650952D01*
X170921904Y-44603333D01*
X170874285Y-44508095D01*
X170874285Y-44412857D01*
X170921904Y-44317619D01*
X170969523Y-44270000D01*
X171064761Y-44222380D01*
X171302857Y-44222380D01*
X171445714Y-44270000D01*
X171636190Y-45317619D02*
X172398095Y-45317619D01*
X172588571Y-45174761D02*
X172731428Y-45222380D01*
X172969523Y-45222380D01*
X173064761Y-45174761D01*
X173112380Y-45127142D01*
X173160000Y-45031904D01*
X173160000Y-44936666D01*
X173112380Y-44841428D01*
X173064761Y-44793809D01*
X172969523Y-44746190D01*
X172779047Y-44698571D01*
X172683809Y-44650952D01*
X172636190Y-44603333D01*
X172588571Y-44508095D01*
X172588571Y-44412857D01*
X172636190Y-44317619D01*
X172683809Y-44270000D01*
X172779047Y-44222380D01*
X173017142Y-44222380D01*
X173160000Y-44270000D01*
X173493333Y-44555714D02*
X173683809Y-45222380D01*
X173874285Y-44746190D01*
X174064761Y-45222380D01*
X174255238Y-44555714D01*
X174636190Y-45222380D02*
X174636190Y-44555714D01*
X174636190Y-44222380D02*
X174588571Y-44270000D01*
X174636190Y-44317619D01*
X174683809Y-44270000D01*
X174636190Y-44222380D01*
X174636190Y-44317619D01*
X174969523Y-44555714D02*
X175350476Y-44555714D01*
X175112380Y-44222380D02*
X175112380Y-45079523D01*
X175160000Y-45174761D01*
X175255238Y-45222380D01*
X175350476Y-45222380D01*
X176112380Y-45174761D02*
X176017142Y-45222380D01*
X175826666Y-45222380D01*
X175731428Y-45174761D01*
X175683809Y-45127142D01*
X175636190Y-45031904D01*
X175636190Y-44746190D01*
X175683809Y-44650952D01*
X175731428Y-44603333D01*
X175826666Y-44555714D01*
X176017142Y-44555714D01*
X176112380Y-44603333D01*
X176540952Y-45222380D02*
X176540952Y-44222380D01*
X176969523Y-45222380D02*
X176969523Y-44698571D01*
X176921904Y-44603333D01*
X176826666Y-44555714D01*
X176683809Y-44555714D01*
X176588571Y-44603333D01*
X176540952Y-44650952D01*
X177398095Y-44317619D02*
X177445714Y-44270000D01*
X177540952Y-44222380D01*
X177779047Y-44222380D01*
X177874285Y-44270000D01*
X177921904Y-44317619D01*
X177969523Y-44412857D01*
X177969523Y-44508095D01*
X177921904Y-44650952D01*
X177350476Y-45222380D01*
X177969523Y-45222380D01*
%TO.C,LedSW2*%
X149269761Y-61312380D02*
X148793571Y-61312380D01*
X148793571Y-60312380D01*
X149984047Y-61264761D02*
X149888809Y-61312380D01*
X149698333Y-61312380D01*
X149603095Y-61264761D01*
X149555476Y-61169523D01*
X149555476Y-60788571D01*
X149603095Y-60693333D01*
X149698333Y-60645714D01*
X149888809Y-60645714D01*
X149984047Y-60693333D01*
X150031666Y-60788571D01*
X150031666Y-60883809D01*
X149555476Y-60979047D01*
X150888809Y-61312380D02*
X150888809Y-60312380D01*
X150888809Y-61264761D02*
X150793571Y-61312380D01*
X150603095Y-61312380D01*
X150507857Y-61264761D01*
X150460238Y-61217142D01*
X150412619Y-61121904D01*
X150412619Y-60836190D01*
X150460238Y-60740952D01*
X150507857Y-60693333D01*
X150603095Y-60645714D01*
X150793571Y-60645714D01*
X150888809Y-60693333D01*
X151317380Y-61264761D02*
X151460238Y-61312380D01*
X151698333Y-61312380D01*
X151793571Y-61264761D01*
X151841190Y-61217142D01*
X151888809Y-61121904D01*
X151888809Y-61026666D01*
X151841190Y-60931428D01*
X151793571Y-60883809D01*
X151698333Y-60836190D01*
X151507857Y-60788571D01*
X151412619Y-60740952D01*
X151365000Y-60693333D01*
X151317380Y-60598095D01*
X151317380Y-60502857D01*
X151365000Y-60407619D01*
X151412619Y-60360000D01*
X151507857Y-60312380D01*
X151745952Y-60312380D01*
X151888809Y-60360000D01*
X152222142Y-60312380D02*
X152460238Y-61312380D01*
X152650714Y-60598095D01*
X152841190Y-61312380D01*
X153079285Y-60312380D01*
X153412619Y-60407619D02*
X153460238Y-60360000D01*
X153555476Y-60312380D01*
X153793571Y-60312380D01*
X153888809Y-60360000D01*
X153936428Y-60407619D01*
X153984047Y-60502857D01*
X153984047Y-60598095D01*
X153936428Y-60740952D01*
X153365000Y-61312380D01*
X153984047Y-61312380D01*
%TO.C,R9*%
X107993333Y-122512380D02*
X107660000Y-122036190D01*
X107421904Y-122512380D02*
X107421904Y-121512380D01*
X107802857Y-121512380D01*
X107898095Y-121560000D01*
X107945714Y-121607619D01*
X107993333Y-121702857D01*
X107993333Y-121845714D01*
X107945714Y-121940952D01*
X107898095Y-121988571D01*
X107802857Y-122036190D01*
X107421904Y-122036190D01*
X108469523Y-122512380D02*
X108660000Y-122512380D01*
X108755238Y-122464761D01*
X108802857Y-122417142D01*
X108898095Y-122274285D01*
X108945714Y-122083809D01*
X108945714Y-121702857D01*
X108898095Y-121607619D01*
X108850476Y-121560000D01*
X108755238Y-121512380D01*
X108564761Y-121512380D01*
X108469523Y-121560000D01*
X108421904Y-121607619D01*
X108374285Y-121702857D01*
X108374285Y-121940952D01*
X108421904Y-122036190D01*
X108469523Y-122083809D01*
X108564761Y-122131428D01*
X108755238Y-122131428D01*
X108850476Y-122083809D01*
X108898095Y-122036190D01*
X108945714Y-121940952D01*
%TO.C,R11*%
X149432380Y-54302857D02*
X148956190Y-54636190D01*
X149432380Y-54874285D02*
X148432380Y-54874285D01*
X148432380Y-54493333D01*
X148480000Y-54398095D01*
X148527619Y-54350476D01*
X148622857Y-54302857D01*
X148765714Y-54302857D01*
X148860952Y-54350476D01*
X148908571Y-54398095D01*
X148956190Y-54493333D01*
X148956190Y-54874285D01*
X149432380Y-53350476D02*
X149432380Y-53921904D01*
X149432380Y-53636190D02*
X148432380Y-53636190D01*
X148575238Y-53731428D01*
X148670476Y-53826666D01*
X148718095Y-53921904D01*
X149432380Y-52398095D02*
X149432380Y-52969523D01*
X149432380Y-52683809D02*
X148432380Y-52683809D01*
X148575238Y-52779047D01*
X148670476Y-52874285D01*
X148718095Y-52969523D01*
%TO.C,LedSW1*%
X89019761Y-61312380D02*
X88543571Y-61312380D01*
X88543571Y-60312380D01*
X89734047Y-61264761D02*
X89638809Y-61312380D01*
X89448333Y-61312380D01*
X89353095Y-61264761D01*
X89305476Y-61169523D01*
X89305476Y-60788571D01*
X89353095Y-60693333D01*
X89448333Y-60645714D01*
X89638809Y-60645714D01*
X89734047Y-60693333D01*
X89781666Y-60788571D01*
X89781666Y-60883809D01*
X89305476Y-60979047D01*
X90638809Y-61312380D02*
X90638809Y-60312380D01*
X90638809Y-61264761D02*
X90543571Y-61312380D01*
X90353095Y-61312380D01*
X90257857Y-61264761D01*
X90210238Y-61217142D01*
X90162619Y-61121904D01*
X90162619Y-60836190D01*
X90210238Y-60740952D01*
X90257857Y-60693333D01*
X90353095Y-60645714D01*
X90543571Y-60645714D01*
X90638809Y-60693333D01*
X91067380Y-61264761D02*
X91210238Y-61312380D01*
X91448333Y-61312380D01*
X91543571Y-61264761D01*
X91591190Y-61217142D01*
X91638809Y-61121904D01*
X91638809Y-61026666D01*
X91591190Y-60931428D01*
X91543571Y-60883809D01*
X91448333Y-60836190D01*
X91257857Y-60788571D01*
X91162619Y-60740952D01*
X91115000Y-60693333D01*
X91067380Y-60598095D01*
X91067380Y-60502857D01*
X91115000Y-60407619D01*
X91162619Y-60360000D01*
X91257857Y-60312380D01*
X91495952Y-60312380D01*
X91638809Y-60360000D01*
X91972142Y-60312380D02*
X92210238Y-61312380D01*
X92400714Y-60598095D01*
X92591190Y-61312380D01*
X92829285Y-60312380D01*
X93734047Y-61312380D02*
X93162619Y-61312380D01*
X93448333Y-61312380D02*
X93448333Y-60312380D01*
X93353095Y-60455238D01*
X93257857Y-60550476D01*
X93162619Y-60598095D01*
%TO.C,R8*%
X214673333Y-72330380D02*
X214340000Y-71854190D01*
X214101904Y-72330380D02*
X214101904Y-71330380D01*
X214482857Y-71330380D01*
X214578095Y-71378000D01*
X214625714Y-71425619D01*
X214673333Y-71520857D01*
X214673333Y-71663714D01*
X214625714Y-71758952D01*
X214578095Y-71806571D01*
X214482857Y-71854190D01*
X214101904Y-71854190D01*
X215244761Y-71758952D02*
X215149523Y-71711333D01*
X215101904Y-71663714D01*
X215054285Y-71568476D01*
X215054285Y-71520857D01*
X215101904Y-71425619D01*
X215149523Y-71378000D01*
X215244761Y-71330380D01*
X215435238Y-71330380D01*
X215530476Y-71378000D01*
X215578095Y-71425619D01*
X215625714Y-71520857D01*
X215625714Y-71568476D01*
X215578095Y-71663714D01*
X215530476Y-71711333D01*
X215435238Y-71758952D01*
X215244761Y-71758952D01*
X215149523Y-71806571D01*
X215101904Y-71854190D01*
X215054285Y-71949428D01*
X215054285Y-72139904D01*
X215101904Y-72235142D01*
X215149523Y-72282761D01*
X215244761Y-72330380D01*
X215435238Y-72330380D01*
X215530476Y-72282761D01*
X215578095Y-72235142D01*
X215625714Y-72139904D01*
X215625714Y-71949428D01*
X215578095Y-71854190D01*
X215530476Y-71806571D01*
X215435238Y-71758952D01*
%TO.C,R6*%
X161333333Y-122512380D02*
X161000000Y-122036190D01*
X160761904Y-122512380D02*
X160761904Y-121512380D01*
X161142857Y-121512380D01*
X161238095Y-121560000D01*
X161285714Y-121607619D01*
X161333333Y-121702857D01*
X161333333Y-121845714D01*
X161285714Y-121940952D01*
X161238095Y-121988571D01*
X161142857Y-122036190D01*
X160761904Y-122036190D01*
X162190476Y-121512380D02*
X162000000Y-121512380D01*
X161904761Y-121560000D01*
X161857142Y-121607619D01*
X161761904Y-121750476D01*
X161714285Y-121940952D01*
X161714285Y-122321904D01*
X161761904Y-122417142D01*
X161809523Y-122464761D01*
X161904761Y-122512380D01*
X162095238Y-122512380D01*
X162190476Y-122464761D01*
X162238095Y-122417142D01*
X162285714Y-122321904D01*
X162285714Y-122083809D01*
X162238095Y-121988571D01*
X162190476Y-121940952D01*
X162095238Y-121893333D01*
X161904761Y-121893333D01*
X161809523Y-121940952D01*
X161761904Y-121988571D01*
X161714285Y-122083809D01*
%TO.C,H1*%
X37608095Y-41102380D02*
X37608095Y-40102380D01*
X37608095Y-40578571D02*
X38179523Y-40578571D01*
X38179523Y-41102380D02*
X38179523Y-40102380D01*
X39179523Y-41102380D02*
X38608095Y-41102380D01*
X38893809Y-41102380D02*
X38893809Y-40102380D01*
X38798571Y-40245238D01*
X38703333Y-40340476D01*
X38608095Y-40388095D01*
%TO.C,FootSwitch0*%
X53177428Y-63248571D02*
X52844095Y-63248571D01*
X52844095Y-63772380D02*
X52844095Y-62772380D01*
X53320285Y-62772380D01*
X53844095Y-63772380D02*
X53748857Y-63724761D01*
X53701238Y-63677142D01*
X53653619Y-63581904D01*
X53653619Y-63296190D01*
X53701238Y-63200952D01*
X53748857Y-63153333D01*
X53844095Y-63105714D01*
X53986952Y-63105714D01*
X54082190Y-63153333D01*
X54129809Y-63200952D01*
X54177428Y-63296190D01*
X54177428Y-63581904D01*
X54129809Y-63677142D01*
X54082190Y-63724761D01*
X53986952Y-63772380D01*
X53844095Y-63772380D01*
X54748857Y-63772380D02*
X54653619Y-63724761D01*
X54606000Y-63677142D01*
X54558380Y-63581904D01*
X54558380Y-63296190D01*
X54606000Y-63200952D01*
X54653619Y-63153333D01*
X54748857Y-63105714D01*
X54891714Y-63105714D01*
X54986952Y-63153333D01*
X55034571Y-63200952D01*
X55082190Y-63296190D01*
X55082190Y-63581904D01*
X55034571Y-63677142D01*
X54986952Y-63724761D01*
X54891714Y-63772380D01*
X54748857Y-63772380D01*
X55367904Y-63105714D02*
X55748857Y-63105714D01*
X55510761Y-62772380D02*
X55510761Y-63629523D01*
X55558380Y-63724761D01*
X55653619Y-63772380D01*
X55748857Y-63772380D01*
X56034571Y-63724761D02*
X56177428Y-63772380D01*
X56415523Y-63772380D01*
X56510761Y-63724761D01*
X56558380Y-63677142D01*
X56606000Y-63581904D01*
X56606000Y-63486666D01*
X56558380Y-63391428D01*
X56510761Y-63343809D01*
X56415523Y-63296190D01*
X56225047Y-63248571D01*
X56129809Y-63200952D01*
X56082190Y-63153333D01*
X56034571Y-63058095D01*
X56034571Y-62962857D01*
X56082190Y-62867619D01*
X56129809Y-62820000D01*
X56225047Y-62772380D01*
X56463142Y-62772380D01*
X56606000Y-62820000D01*
X56939333Y-63105714D02*
X57129809Y-63772380D01*
X57320285Y-63296190D01*
X57510761Y-63772380D01*
X57701238Y-63105714D01*
X58082190Y-63772380D02*
X58082190Y-63105714D01*
X58082190Y-62772380D02*
X58034571Y-62820000D01*
X58082190Y-62867619D01*
X58129809Y-62820000D01*
X58082190Y-62772380D01*
X58082190Y-62867619D01*
X58415523Y-63105714D02*
X58796476Y-63105714D01*
X58558380Y-62772380D02*
X58558380Y-63629523D01*
X58606000Y-63724761D01*
X58701238Y-63772380D01*
X58796476Y-63772380D01*
X59558380Y-63724761D02*
X59463142Y-63772380D01*
X59272666Y-63772380D01*
X59177428Y-63724761D01*
X59129809Y-63677142D01*
X59082190Y-63581904D01*
X59082190Y-63296190D01*
X59129809Y-63200952D01*
X59177428Y-63153333D01*
X59272666Y-63105714D01*
X59463142Y-63105714D01*
X59558380Y-63153333D01*
X59986952Y-63772380D02*
X59986952Y-62772380D01*
X60415523Y-63772380D02*
X60415523Y-63248571D01*
X60367904Y-63153333D01*
X60272666Y-63105714D01*
X60129809Y-63105714D01*
X60034571Y-63153333D01*
X59986952Y-63200952D01*
X61082190Y-62772380D02*
X61177428Y-62772380D01*
X61272666Y-62820000D01*
X61320285Y-62867619D01*
X61367904Y-62962857D01*
X61415523Y-63153333D01*
X61415523Y-63391428D01*
X61367904Y-63581904D01*
X61320285Y-63677142D01*
X61272666Y-63724761D01*
X61177428Y-63772380D01*
X61082190Y-63772380D01*
X60986952Y-63724761D01*
X60939333Y-63677142D01*
X60891714Y-63581904D01*
X60844095Y-63391428D01*
X60844095Y-63153333D01*
X60891714Y-62962857D01*
X60939333Y-62867619D01*
X60986952Y-62820000D01*
X61082190Y-62772380D01*
%TO.C,BankSwitch+1*%
X245661904Y-73408571D02*
X245804761Y-73456190D01*
X245852380Y-73503809D01*
X245900000Y-73599047D01*
X245900000Y-73741904D01*
X245852380Y-73837142D01*
X245804761Y-73884761D01*
X245709523Y-73932380D01*
X245328571Y-73932380D01*
X245328571Y-72932380D01*
X245661904Y-72932380D01*
X245757142Y-72980000D01*
X245804761Y-73027619D01*
X245852380Y-73122857D01*
X245852380Y-73218095D01*
X245804761Y-73313333D01*
X245757142Y-73360952D01*
X245661904Y-73408571D01*
X245328571Y-73408571D01*
X246757142Y-73932380D02*
X246757142Y-73408571D01*
X246709523Y-73313333D01*
X246614285Y-73265714D01*
X246423809Y-73265714D01*
X246328571Y-73313333D01*
X246757142Y-73884761D02*
X246661904Y-73932380D01*
X246423809Y-73932380D01*
X246328571Y-73884761D01*
X246280952Y-73789523D01*
X246280952Y-73694285D01*
X246328571Y-73599047D01*
X246423809Y-73551428D01*
X246661904Y-73551428D01*
X246757142Y-73503809D01*
X247233333Y-73265714D02*
X247233333Y-73932380D01*
X247233333Y-73360952D02*
X247280952Y-73313333D01*
X247376190Y-73265714D01*
X247519047Y-73265714D01*
X247614285Y-73313333D01*
X247661904Y-73408571D01*
X247661904Y-73932380D01*
X248138095Y-73932380D02*
X248138095Y-72932380D01*
X248233333Y-73551428D02*
X248519047Y-73932380D01*
X248519047Y-73265714D02*
X248138095Y-73646666D01*
X248900000Y-73884761D02*
X249042857Y-73932380D01*
X249280952Y-73932380D01*
X249376190Y-73884761D01*
X249423809Y-73837142D01*
X249471428Y-73741904D01*
X249471428Y-73646666D01*
X249423809Y-73551428D01*
X249376190Y-73503809D01*
X249280952Y-73456190D01*
X249090476Y-73408571D01*
X248995238Y-73360952D01*
X248947619Y-73313333D01*
X248900000Y-73218095D01*
X248900000Y-73122857D01*
X248947619Y-73027619D01*
X248995238Y-72980000D01*
X249090476Y-72932380D01*
X249328571Y-72932380D01*
X249471428Y-72980000D01*
X249804761Y-73265714D02*
X249995238Y-73932380D01*
X250185714Y-73456190D01*
X250376190Y-73932380D01*
X250566666Y-73265714D01*
X250947619Y-73932380D02*
X250947619Y-73265714D01*
X250947619Y-72932380D02*
X250900000Y-72980000D01*
X250947619Y-73027619D01*
X250995238Y-72980000D01*
X250947619Y-72932380D01*
X250947619Y-73027619D01*
X251280952Y-73265714D02*
X251661904Y-73265714D01*
X251423809Y-72932380D02*
X251423809Y-73789523D01*
X251471428Y-73884761D01*
X251566666Y-73932380D01*
X251661904Y-73932380D01*
X252423809Y-73884761D02*
X252328571Y-73932380D01*
X252138095Y-73932380D01*
X252042857Y-73884761D01*
X251995238Y-73837142D01*
X251947619Y-73741904D01*
X251947619Y-73456190D01*
X251995238Y-73360952D01*
X252042857Y-73313333D01*
X252138095Y-73265714D01*
X252328571Y-73265714D01*
X252423809Y-73313333D01*
X252852380Y-73932380D02*
X252852380Y-72932380D01*
X253280952Y-73932380D02*
X253280952Y-73408571D01*
X253233333Y-73313333D01*
X253138095Y-73265714D01*
X252995238Y-73265714D01*
X252900000Y-73313333D01*
X252852380Y-73360952D01*
X253757142Y-73551428D02*
X254519047Y-73551428D01*
X254138095Y-73932380D02*
X254138095Y-73170476D01*
X255519047Y-73932380D02*
X254947619Y-73932380D01*
X255233333Y-73932380D02*
X255233333Y-72932380D01*
X255138095Y-73075238D01*
X255042857Y-73170476D01*
X254947619Y-73218095D01*
%TO.C,H2*%
X258858095Y-37602380D02*
X258858095Y-36602380D01*
X258858095Y-37078571D02*
X259429523Y-37078571D01*
X259429523Y-37602380D02*
X259429523Y-36602380D01*
X259858095Y-36697619D02*
X259905714Y-36650000D01*
X260000952Y-36602380D01*
X260239047Y-36602380D01*
X260334285Y-36650000D01*
X260381904Y-36697619D01*
X260429523Y-36792857D01*
X260429523Y-36888095D01*
X260381904Y-37030952D01*
X259810476Y-37602380D01*
X260429523Y-37602380D01*
%TO.C,StateLED1*%
X152818571Y-38404761D02*
X152961428Y-38452380D01*
X153199523Y-38452380D01*
X153294761Y-38404761D01*
X153342380Y-38357142D01*
X153390000Y-38261904D01*
X153390000Y-38166666D01*
X153342380Y-38071428D01*
X153294761Y-38023809D01*
X153199523Y-37976190D01*
X153009047Y-37928571D01*
X152913809Y-37880952D01*
X152866190Y-37833333D01*
X152818571Y-37738095D01*
X152818571Y-37642857D01*
X152866190Y-37547619D01*
X152913809Y-37500000D01*
X153009047Y-37452380D01*
X153247142Y-37452380D01*
X153390000Y-37500000D01*
X153675714Y-37785714D02*
X154056666Y-37785714D01*
X153818571Y-37452380D02*
X153818571Y-38309523D01*
X153866190Y-38404761D01*
X153961428Y-38452380D01*
X154056666Y-38452380D01*
X154818571Y-38452380D02*
X154818571Y-37928571D01*
X154770952Y-37833333D01*
X154675714Y-37785714D01*
X154485238Y-37785714D01*
X154390000Y-37833333D01*
X154818571Y-38404761D02*
X154723333Y-38452380D01*
X154485238Y-38452380D01*
X154390000Y-38404761D01*
X154342380Y-38309523D01*
X154342380Y-38214285D01*
X154390000Y-38119047D01*
X154485238Y-38071428D01*
X154723333Y-38071428D01*
X154818571Y-38023809D01*
X155151904Y-37785714D02*
X155532857Y-37785714D01*
X155294761Y-37452380D02*
X155294761Y-38309523D01*
X155342380Y-38404761D01*
X155437619Y-38452380D01*
X155532857Y-38452380D01*
X156247142Y-38404761D02*
X156151904Y-38452380D01*
X155961428Y-38452380D01*
X155866190Y-38404761D01*
X155818571Y-38309523D01*
X155818571Y-37928571D01*
X155866190Y-37833333D01*
X155961428Y-37785714D01*
X156151904Y-37785714D01*
X156247142Y-37833333D01*
X156294761Y-37928571D01*
X156294761Y-38023809D01*
X155818571Y-38119047D01*
X157199523Y-38452380D02*
X156723333Y-38452380D01*
X156723333Y-37452380D01*
X157532857Y-37928571D02*
X157866190Y-37928571D01*
X158009047Y-38452380D02*
X157532857Y-38452380D01*
X157532857Y-37452380D01*
X158009047Y-37452380D01*
X158437619Y-38452380D02*
X158437619Y-37452380D01*
X158675714Y-37452380D01*
X158818571Y-37500000D01*
X158913809Y-37595238D01*
X158961428Y-37690476D01*
X159009047Y-37880952D01*
X159009047Y-38023809D01*
X158961428Y-38214285D01*
X158913809Y-38309523D01*
X158818571Y-38404761D01*
X158675714Y-38452380D01*
X158437619Y-38452380D01*
X159961428Y-38452380D02*
X159390000Y-38452380D01*
X159675714Y-38452380D02*
X159675714Y-37452380D01*
X159580476Y-37595238D01*
X159485238Y-37690476D01*
X159390000Y-37738095D01*
%TO.C,LedSW7*%
X195519761Y-110732380D02*
X195043571Y-110732380D01*
X195043571Y-109732380D01*
X196234047Y-110684761D02*
X196138809Y-110732380D01*
X195948333Y-110732380D01*
X195853095Y-110684761D01*
X195805476Y-110589523D01*
X195805476Y-110208571D01*
X195853095Y-110113333D01*
X195948333Y-110065714D01*
X196138809Y-110065714D01*
X196234047Y-110113333D01*
X196281666Y-110208571D01*
X196281666Y-110303809D01*
X195805476Y-110399047D01*
X197138809Y-110732380D02*
X197138809Y-109732380D01*
X197138809Y-110684761D02*
X197043571Y-110732380D01*
X196853095Y-110732380D01*
X196757857Y-110684761D01*
X196710238Y-110637142D01*
X196662619Y-110541904D01*
X196662619Y-110256190D01*
X196710238Y-110160952D01*
X196757857Y-110113333D01*
X196853095Y-110065714D01*
X197043571Y-110065714D01*
X197138809Y-110113333D01*
X197567380Y-110684761D02*
X197710238Y-110732380D01*
X197948333Y-110732380D01*
X198043571Y-110684761D01*
X198091190Y-110637142D01*
X198138809Y-110541904D01*
X198138809Y-110446666D01*
X198091190Y-110351428D01*
X198043571Y-110303809D01*
X197948333Y-110256190D01*
X197757857Y-110208571D01*
X197662619Y-110160952D01*
X197615000Y-110113333D01*
X197567380Y-110018095D01*
X197567380Y-109922857D01*
X197615000Y-109827619D01*
X197662619Y-109780000D01*
X197757857Y-109732380D01*
X197995952Y-109732380D01*
X198138809Y-109780000D01*
X198472142Y-109732380D02*
X198710238Y-110732380D01*
X198900714Y-110018095D01*
X199091190Y-110732380D01*
X199329285Y-109732380D01*
X199615000Y-109732380D02*
X200281666Y-109732380D01*
X199853095Y-110732380D01*
%TO.C,BankSwith-1*%
X246090476Y-101348571D02*
X246233333Y-101396190D01*
X246280952Y-101443809D01*
X246328571Y-101539047D01*
X246328571Y-101681904D01*
X246280952Y-101777142D01*
X246233333Y-101824761D01*
X246138095Y-101872380D01*
X245757142Y-101872380D01*
X245757142Y-100872380D01*
X246090476Y-100872380D01*
X246185714Y-100920000D01*
X246233333Y-100967619D01*
X246280952Y-101062857D01*
X246280952Y-101158095D01*
X246233333Y-101253333D01*
X246185714Y-101300952D01*
X246090476Y-101348571D01*
X245757142Y-101348571D01*
X247185714Y-101872380D02*
X247185714Y-101348571D01*
X247138095Y-101253333D01*
X247042857Y-101205714D01*
X246852380Y-101205714D01*
X246757142Y-101253333D01*
X247185714Y-101824761D02*
X247090476Y-101872380D01*
X246852380Y-101872380D01*
X246757142Y-101824761D01*
X246709523Y-101729523D01*
X246709523Y-101634285D01*
X246757142Y-101539047D01*
X246852380Y-101491428D01*
X247090476Y-101491428D01*
X247185714Y-101443809D01*
X247661904Y-101205714D02*
X247661904Y-101872380D01*
X247661904Y-101300952D02*
X247709523Y-101253333D01*
X247804761Y-101205714D01*
X247947619Y-101205714D01*
X248042857Y-101253333D01*
X248090476Y-101348571D01*
X248090476Y-101872380D01*
X248566666Y-101872380D02*
X248566666Y-100872380D01*
X248661904Y-101491428D02*
X248947619Y-101872380D01*
X248947619Y-101205714D02*
X248566666Y-101586666D01*
X249328571Y-101824761D02*
X249471428Y-101872380D01*
X249709523Y-101872380D01*
X249804761Y-101824761D01*
X249852380Y-101777142D01*
X249900000Y-101681904D01*
X249900000Y-101586666D01*
X249852380Y-101491428D01*
X249804761Y-101443809D01*
X249709523Y-101396190D01*
X249519047Y-101348571D01*
X249423809Y-101300952D01*
X249376190Y-101253333D01*
X249328571Y-101158095D01*
X249328571Y-101062857D01*
X249376190Y-100967619D01*
X249423809Y-100920000D01*
X249519047Y-100872380D01*
X249757142Y-100872380D01*
X249900000Y-100920000D01*
X250233333Y-101205714D02*
X250423809Y-101872380D01*
X250614285Y-101396190D01*
X250804761Y-101872380D01*
X250995238Y-101205714D01*
X251376190Y-101872380D02*
X251376190Y-101205714D01*
X251376190Y-100872380D02*
X251328571Y-100920000D01*
X251376190Y-100967619D01*
X251423809Y-100920000D01*
X251376190Y-100872380D01*
X251376190Y-100967619D01*
X251709523Y-101205714D02*
X252090476Y-101205714D01*
X251852380Y-100872380D02*
X251852380Y-101729523D01*
X251900000Y-101824761D01*
X251995238Y-101872380D01*
X252090476Y-101872380D01*
X252423809Y-101872380D02*
X252423809Y-100872380D01*
X252852380Y-101872380D02*
X252852380Y-101348571D01*
X252804761Y-101253333D01*
X252709523Y-101205714D01*
X252566666Y-101205714D01*
X252471428Y-101253333D01*
X252423809Y-101300952D01*
X253328571Y-101491428D02*
X254090476Y-101491428D01*
X255090476Y-101872380D02*
X254519047Y-101872380D01*
X254804761Y-101872380D02*
X254804761Y-100872380D01*
X254709523Y-101015238D01*
X254614285Y-101110476D01*
X254519047Y-101158095D01*
%TO.C,FootSwitch4*%
X53177428Y-112668571D02*
X52844095Y-112668571D01*
X52844095Y-113192380D02*
X52844095Y-112192380D01*
X53320285Y-112192380D01*
X53844095Y-113192380D02*
X53748857Y-113144761D01*
X53701238Y-113097142D01*
X53653619Y-113001904D01*
X53653619Y-112716190D01*
X53701238Y-112620952D01*
X53748857Y-112573333D01*
X53844095Y-112525714D01*
X53986952Y-112525714D01*
X54082190Y-112573333D01*
X54129809Y-112620952D01*
X54177428Y-112716190D01*
X54177428Y-113001904D01*
X54129809Y-113097142D01*
X54082190Y-113144761D01*
X53986952Y-113192380D01*
X53844095Y-113192380D01*
X54748857Y-113192380D02*
X54653619Y-113144761D01*
X54606000Y-113097142D01*
X54558380Y-113001904D01*
X54558380Y-112716190D01*
X54606000Y-112620952D01*
X54653619Y-112573333D01*
X54748857Y-112525714D01*
X54891714Y-112525714D01*
X54986952Y-112573333D01*
X55034571Y-112620952D01*
X55082190Y-112716190D01*
X55082190Y-113001904D01*
X55034571Y-113097142D01*
X54986952Y-113144761D01*
X54891714Y-113192380D01*
X54748857Y-113192380D01*
X55367904Y-112525714D02*
X55748857Y-112525714D01*
X55510761Y-112192380D02*
X55510761Y-113049523D01*
X55558380Y-113144761D01*
X55653619Y-113192380D01*
X55748857Y-113192380D01*
X56034571Y-113144761D02*
X56177428Y-113192380D01*
X56415523Y-113192380D01*
X56510761Y-113144761D01*
X56558380Y-113097142D01*
X56606000Y-113001904D01*
X56606000Y-112906666D01*
X56558380Y-112811428D01*
X56510761Y-112763809D01*
X56415523Y-112716190D01*
X56225047Y-112668571D01*
X56129809Y-112620952D01*
X56082190Y-112573333D01*
X56034571Y-112478095D01*
X56034571Y-112382857D01*
X56082190Y-112287619D01*
X56129809Y-112240000D01*
X56225047Y-112192380D01*
X56463142Y-112192380D01*
X56606000Y-112240000D01*
X56939333Y-112525714D02*
X57129809Y-113192380D01*
X57320285Y-112716190D01*
X57510761Y-113192380D01*
X57701238Y-112525714D01*
X58082190Y-113192380D02*
X58082190Y-112525714D01*
X58082190Y-112192380D02*
X58034571Y-112240000D01*
X58082190Y-112287619D01*
X58129809Y-112240000D01*
X58082190Y-112192380D01*
X58082190Y-112287619D01*
X58415523Y-112525714D02*
X58796476Y-112525714D01*
X58558380Y-112192380D02*
X58558380Y-113049523D01*
X58606000Y-113144761D01*
X58701238Y-113192380D01*
X58796476Y-113192380D01*
X59558380Y-113144761D02*
X59463142Y-113192380D01*
X59272666Y-113192380D01*
X59177428Y-113144761D01*
X59129809Y-113097142D01*
X59082190Y-113001904D01*
X59082190Y-112716190D01*
X59129809Y-112620952D01*
X59177428Y-112573333D01*
X59272666Y-112525714D01*
X59463142Y-112525714D01*
X59558380Y-112573333D01*
X59986952Y-113192380D02*
X59986952Y-112192380D01*
X60415523Y-113192380D02*
X60415523Y-112668571D01*
X60367904Y-112573333D01*
X60272666Y-112525714D01*
X60129809Y-112525714D01*
X60034571Y-112573333D01*
X59986952Y-112620952D01*
X61320285Y-112525714D02*
X61320285Y-113192380D01*
X61082190Y-112144761D02*
X60844095Y-112859047D01*
X61463142Y-112859047D01*
%TO.C,R1*%
X76453333Y-61552380D02*
X76120000Y-61076190D01*
X75881904Y-61552380D02*
X75881904Y-60552380D01*
X76262857Y-60552380D01*
X76358095Y-60600000D01*
X76405714Y-60647619D01*
X76453333Y-60742857D01*
X76453333Y-60885714D01*
X76405714Y-60980952D01*
X76358095Y-61028571D01*
X76262857Y-61076190D01*
X75881904Y-61076190D01*
X77405714Y-61552380D02*
X76834285Y-61552380D01*
X77120000Y-61552380D02*
X77120000Y-60552380D01*
X77024761Y-60695238D01*
X76929523Y-60790476D01*
X76834285Y-60838095D01*
%TO.C,R2*%
X90203333Y-54132380D02*
X89870000Y-53656190D01*
X89631904Y-54132380D02*
X89631904Y-53132380D01*
X90012857Y-53132380D01*
X90108095Y-53180000D01*
X90155714Y-53227619D01*
X90203333Y-53322857D01*
X90203333Y-53465714D01*
X90155714Y-53560952D01*
X90108095Y-53608571D01*
X90012857Y-53656190D01*
X89631904Y-53656190D01*
X90584285Y-53227619D02*
X90631904Y-53180000D01*
X90727142Y-53132380D01*
X90965238Y-53132380D01*
X91060476Y-53180000D01*
X91108095Y-53227619D01*
X91155714Y-53322857D01*
X91155714Y-53418095D01*
X91108095Y-53560952D01*
X90536666Y-54132380D01*
X91155714Y-54132380D01*
%TO.C,LedSW0*%
X35519761Y-61312380D02*
X35043571Y-61312380D01*
X35043571Y-60312380D01*
X36234047Y-61264761D02*
X36138809Y-61312380D01*
X35948333Y-61312380D01*
X35853095Y-61264761D01*
X35805476Y-61169523D01*
X35805476Y-60788571D01*
X35853095Y-60693333D01*
X35948333Y-60645714D01*
X36138809Y-60645714D01*
X36234047Y-60693333D01*
X36281666Y-60788571D01*
X36281666Y-60883809D01*
X35805476Y-60979047D01*
X37138809Y-61312380D02*
X37138809Y-60312380D01*
X37138809Y-61264761D02*
X37043571Y-61312380D01*
X36853095Y-61312380D01*
X36757857Y-61264761D01*
X36710238Y-61217142D01*
X36662619Y-61121904D01*
X36662619Y-60836190D01*
X36710238Y-60740952D01*
X36757857Y-60693333D01*
X36853095Y-60645714D01*
X37043571Y-60645714D01*
X37138809Y-60693333D01*
X37567380Y-61264761D02*
X37710238Y-61312380D01*
X37948333Y-61312380D01*
X38043571Y-61264761D01*
X38091190Y-61217142D01*
X38138809Y-61121904D01*
X38138809Y-61026666D01*
X38091190Y-60931428D01*
X38043571Y-60883809D01*
X37948333Y-60836190D01*
X37757857Y-60788571D01*
X37662619Y-60740952D01*
X37615000Y-60693333D01*
X37567380Y-60598095D01*
X37567380Y-60502857D01*
X37615000Y-60407619D01*
X37662619Y-60360000D01*
X37757857Y-60312380D01*
X37995952Y-60312380D01*
X38138809Y-60360000D01*
X38472142Y-60312380D02*
X38710238Y-61312380D01*
X38900714Y-60598095D01*
X39091190Y-61312380D01*
X39329285Y-60312380D01*
X39900714Y-60312380D02*
X39995952Y-60312380D01*
X40091190Y-60360000D01*
X40138809Y-60407619D01*
X40186428Y-60502857D01*
X40234047Y-60693333D01*
X40234047Y-60931428D01*
X40186428Y-61121904D01*
X40138809Y-61217142D01*
X40091190Y-61264761D01*
X39995952Y-61312380D01*
X39900714Y-61312380D01*
X39805476Y-61264761D01*
X39757857Y-61217142D01*
X39710238Y-61121904D01*
X39662619Y-60931428D01*
X39662619Y-60693333D01*
X39710238Y-60502857D01*
X39757857Y-60407619D01*
X39805476Y-60360000D01*
X39900714Y-60312380D01*
%TO.C,ExprPedalJack2*%
X191908571Y-51921547D02*
X191908571Y-51588214D01*
X192432380Y-51445357D02*
X192432380Y-51921547D01*
X191432380Y-51921547D01*
X191432380Y-51445357D01*
X192432380Y-51112023D02*
X191765714Y-50588214D01*
X191765714Y-51112023D02*
X192432380Y-50588214D01*
X191765714Y-50207261D02*
X192765714Y-50207261D01*
X191813333Y-50207261D02*
X191765714Y-50112023D01*
X191765714Y-49921547D01*
X191813333Y-49826309D01*
X191860952Y-49778690D01*
X191956190Y-49731071D01*
X192241904Y-49731071D01*
X192337142Y-49778690D01*
X192384761Y-49826309D01*
X192432380Y-49921547D01*
X192432380Y-50112023D01*
X192384761Y-50207261D01*
X192432380Y-49302500D02*
X191765714Y-49302500D01*
X191956190Y-49302500D02*
X191860952Y-49254880D01*
X191813333Y-49207261D01*
X191765714Y-49112023D01*
X191765714Y-49016785D01*
X192432380Y-48683452D02*
X191432380Y-48683452D01*
X191432380Y-48302500D01*
X191480000Y-48207261D01*
X191527619Y-48159642D01*
X191622857Y-48112023D01*
X191765714Y-48112023D01*
X191860952Y-48159642D01*
X191908571Y-48207261D01*
X191956190Y-48302500D01*
X191956190Y-48683452D01*
X192384761Y-47302500D02*
X192432380Y-47397738D01*
X192432380Y-47588214D01*
X192384761Y-47683452D01*
X192289523Y-47731071D01*
X191908571Y-47731071D01*
X191813333Y-47683452D01*
X191765714Y-47588214D01*
X191765714Y-47397738D01*
X191813333Y-47302500D01*
X191908571Y-47254880D01*
X192003809Y-47254880D01*
X192099047Y-47731071D01*
X192432380Y-46397738D02*
X191432380Y-46397738D01*
X192384761Y-46397738D02*
X192432380Y-46492976D01*
X192432380Y-46683452D01*
X192384761Y-46778690D01*
X192337142Y-46826309D01*
X192241904Y-46873928D01*
X191956190Y-46873928D01*
X191860952Y-46826309D01*
X191813333Y-46778690D01*
X191765714Y-46683452D01*
X191765714Y-46492976D01*
X191813333Y-46397738D01*
X192432380Y-45492976D02*
X191908571Y-45492976D01*
X191813333Y-45540595D01*
X191765714Y-45635833D01*
X191765714Y-45826309D01*
X191813333Y-45921547D01*
X192384761Y-45492976D02*
X192432380Y-45588214D01*
X192432380Y-45826309D01*
X192384761Y-45921547D01*
X192289523Y-45969166D01*
X192194285Y-45969166D01*
X192099047Y-45921547D01*
X192051428Y-45826309D01*
X192051428Y-45588214D01*
X192003809Y-45492976D01*
X192432380Y-44873928D02*
X192384761Y-44969166D01*
X192289523Y-45016785D01*
X191432380Y-45016785D01*
X191432380Y-44207261D02*
X192146666Y-44207261D01*
X192289523Y-44254880D01*
X192384761Y-44350119D01*
X192432380Y-44492976D01*
X192432380Y-44588214D01*
X192432380Y-43302500D02*
X191908571Y-43302500D01*
X191813333Y-43350119D01*
X191765714Y-43445357D01*
X191765714Y-43635833D01*
X191813333Y-43731071D01*
X192384761Y-43302500D02*
X192432380Y-43397738D01*
X192432380Y-43635833D01*
X192384761Y-43731071D01*
X192289523Y-43778690D01*
X192194285Y-43778690D01*
X192099047Y-43731071D01*
X192051428Y-43635833D01*
X192051428Y-43397738D01*
X192003809Y-43302500D01*
X192384761Y-42397738D02*
X192432380Y-42492976D01*
X192432380Y-42683452D01*
X192384761Y-42778690D01*
X192337142Y-42826309D01*
X192241904Y-42873928D01*
X191956190Y-42873928D01*
X191860952Y-42826309D01*
X191813333Y-42778690D01*
X191765714Y-42683452D01*
X191765714Y-42492976D01*
X191813333Y-42397738D01*
X192432380Y-41969166D02*
X191432380Y-41969166D01*
X192051428Y-41873928D02*
X192432380Y-41588214D01*
X191765714Y-41588214D02*
X192146666Y-41969166D01*
X191527619Y-41207261D02*
X191480000Y-41159642D01*
X191432380Y-41064404D01*
X191432380Y-40826309D01*
X191480000Y-40731071D01*
X191527619Y-40683452D01*
X191622857Y-40635833D01*
X191718095Y-40635833D01*
X191860952Y-40683452D01*
X192432380Y-41254880D01*
X192432380Y-40635833D01*
X196170476Y-40707261D02*
X196313333Y-40754880D01*
X196551428Y-40754880D01*
X196646666Y-40707261D01*
X196694285Y-40659642D01*
X196741904Y-40564404D01*
X196741904Y-40469166D01*
X196694285Y-40373928D01*
X196646666Y-40326309D01*
X196551428Y-40278690D01*
X196360952Y-40231071D01*
X196265714Y-40183452D01*
X196218095Y-40135833D01*
X196170476Y-40040595D01*
X196170476Y-39945357D01*
X196218095Y-39850119D01*
X196265714Y-39802500D01*
X196360952Y-39754880D01*
X196599047Y-39754880D01*
X196741904Y-39802500D01*
X197170476Y-40754880D02*
X197170476Y-39754880D01*
X197741904Y-40754880D01*
X197741904Y-39754880D01*
X196170476Y-51754880D02*
X196741904Y-51754880D01*
X196456190Y-52754880D02*
X196456190Y-51754880D01*
X197075238Y-52754880D02*
X197075238Y-51754880D01*
X197646666Y-52754880D01*
X197646666Y-51754880D01*
X196765714Y-46754880D02*
X196432380Y-46278690D01*
X196194285Y-46754880D02*
X196194285Y-45754880D01*
X196575238Y-45754880D01*
X196670476Y-45802500D01*
X196718095Y-45850119D01*
X196765714Y-45945357D01*
X196765714Y-46088214D01*
X196718095Y-46183452D01*
X196670476Y-46231071D01*
X196575238Y-46278690D01*
X196194285Y-46278690D01*
X197194285Y-46754880D02*
X197194285Y-45754880D01*
X197765714Y-46754880D01*
X197765714Y-45754880D01*
X186289523Y-46754880D02*
X185956190Y-46278690D01*
X185718095Y-46754880D02*
X185718095Y-45754880D01*
X186099047Y-45754880D01*
X186194285Y-45802500D01*
X186241904Y-45850119D01*
X186289523Y-45945357D01*
X186289523Y-46088214D01*
X186241904Y-46183452D01*
X186194285Y-46231071D01*
X186099047Y-46278690D01*
X185718095Y-46278690D01*
X185694285Y-40707261D02*
X185837142Y-40754880D01*
X186075238Y-40754880D01*
X186170476Y-40707261D01*
X186218095Y-40659642D01*
X186265714Y-40564404D01*
X186265714Y-40469166D01*
X186218095Y-40373928D01*
X186170476Y-40326309D01*
X186075238Y-40278690D01*
X185884761Y-40231071D01*
X185789523Y-40183452D01*
X185741904Y-40135833D01*
X185694285Y-40040595D01*
X185694285Y-39945357D01*
X185741904Y-39850119D01*
X185789523Y-39802500D01*
X185884761Y-39754880D01*
X186122857Y-39754880D01*
X186265714Y-39802500D01*
X185694285Y-51754880D02*
X186265714Y-51754880D01*
X185980000Y-52754880D02*
X185980000Y-51754880D01*
%TO.C,U1*%
X132808095Y-80007380D02*
X132808095Y-80816904D01*
X132855714Y-80912142D01*
X132903333Y-80959761D01*
X132998571Y-81007380D01*
X133189047Y-81007380D01*
X133284285Y-80959761D01*
X133331904Y-80912142D01*
X133379523Y-80816904D01*
X133379523Y-80007380D01*
X134379523Y-81007380D02*
X133808095Y-81007380D01*
X134093809Y-81007380D02*
X134093809Y-80007380D01*
X133998571Y-80150238D01*
X133903333Y-80245476D01*
X133808095Y-80293095D01*
%TO.C,TRS/RTS_Switch1*%
X213515238Y-44222380D02*
X214086666Y-44222380D01*
X213800952Y-45222380D02*
X213800952Y-44222380D01*
X214991428Y-45222380D02*
X214658095Y-44746190D01*
X214420000Y-45222380D02*
X214420000Y-44222380D01*
X214800952Y-44222380D01*
X214896190Y-44270000D01*
X214943809Y-44317619D01*
X214991428Y-44412857D01*
X214991428Y-44555714D01*
X214943809Y-44650952D01*
X214896190Y-44698571D01*
X214800952Y-44746190D01*
X214420000Y-44746190D01*
X215372380Y-45174761D02*
X215515238Y-45222380D01*
X215753333Y-45222380D01*
X215848571Y-45174761D01*
X215896190Y-45127142D01*
X215943809Y-45031904D01*
X215943809Y-44936666D01*
X215896190Y-44841428D01*
X215848571Y-44793809D01*
X215753333Y-44746190D01*
X215562857Y-44698571D01*
X215467619Y-44650952D01*
X215420000Y-44603333D01*
X215372380Y-44508095D01*
X215372380Y-44412857D01*
X215420000Y-44317619D01*
X215467619Y-44270000D01*
X215562857Y-44222380D01*
X215800952Y-44222380D01*
X215943809Y-44270000D01*
X217086666Y-44174761D02*
X216229523Y-45460476D01*
X217991428Y-45222380D02*
X217658095Y-44746190D01*
X217420000Y-45222380D02*
X217420000Y-44222380D01*
X217800952Y-44222380D01*
X217896190Y-44270000D01*
X217943809Y-44317619D01*
X217991428Y-44412857D01*
X217991428Y-44555714D01*
X217943809Y-44650952D01*
X217896190Y-44698571D01*
X217800952Y-44746190D01*
X217420000Y-44746190D01*
X218277142Y-44222380D02*
X218848571Y-44222380D01*
X218562857Y-45222380D02*
X218562857Y-44222380D01*
X219134285Y-45174761D02*
X219277142Y-45222380D01*
X219515238Y-45222380D01*
X219610476Y-45174761D01*
X219658095Y-45127142D01*
X219705714Y-45031904D01*
X219705714Y-44936666D01*
X219658095Y-44841428D01*
X219610476Y-44793809D01*
X219515238Y-44746190D01*
X219324761Y-44698571D01*
X219229523Y-44650952D01*
X219181904Y-44603333D01*
X219134285Y-44508095D01*
X219134285Y-44412857D01*
X219181904Y-44317619D01*
X219229523Y-44270000D01*
X219324761Y-44222380D01*
X219562857Y-44222380D01*
X219705714Y-44270000D01*
X219896190Y-45317619D02*
X220658095Y-45317619D01*
X220848571Y-45174761D02*
X220991428Y-45222380D01*
X221229523Y-45222380D01*
X221324761Y-45174761D01*
X221372380Y-45127142D01*
X221420000Y-45031904D01*
X221420000Y-44936666D01*
X221372380Y-44841428D01*
X221324761Y-44793809D01*
X221229523Y-44746190D01*
X221039047Y-44698571D01*
X220943809Y-44650952D01*
X220896190Y-44603333D01*
X220848571Y-44508095D01*
X220848571Y-44412857D01*
X220896190Y-44317619D01*
X220943809Y-44270000D01*
X221039047Y-44222380D01*
X221277142Y-44222380D01*
X221420000Y-44270000D01*
X221753333Y-44555714D02*
X221943809Y-45222380D01*
X222134285Y-44746190D01*
X222324761Y-45222380D01*
X222515238Y-44555714D01*
X222896190Y-45222380D02*
X222896190Y-44555714D01*
X222896190Y-44222380D02*
X222848571Y-44270000D01*
X222896190Y-44317619D01*
X222943809Y-44270000D01*
X222896190Y-44222380D01*
X222896190Y-44317619D01*
X223229523Y-44555714D02*
X223610476Y-44555714D01*
X223372380Y-44222380D02*
X223372380Y-45079523D01*
X223420000Y-45174761D01*
X223515238Y-45222380D01*
X223610476Y-45222380D01*
X224372380Y-45174761D02*
X224277142Y-45222380D01*
X224086666Y-45222380D01*
X223991428Y-45174761D01*
X223943809Y-45127142D01*
X223896190Y-45031904D01*
X223896190Y-44746190D01*
X223943809Y-44650952D01*
X223991428Y-44603333D01*
X224086666Y-44555714D01*
X224277142Y-44555714D01*
X224372380Y-44603333D01*
X224800952Y-45222380D02*
X224800952Y-44222380D01*
X225229523Y-45222380D02*
X225229523Y-44698571D01*
X225181904Y-44603333D01*
X225086666Y-44555714D01*
X224943809Y-44555714D01*
X224848571Y-44603333D01*
X224800952Y-44650952D01*
X226229523Y-45222380D02*
X225658095Y-45222380D01*
X225943809Y-45222380D02*
X225943809Y-44222380D01*
X225848571Y-44365238D01*
X225753333Y-44460476D01*
X225658095Y-44508095D01*
%TO.C,H3*%
X32866095Y-122398380D02*
X32866095Y-121398380D01*
X32866095Y-121874571D02*
X33437523Y-121874571D01*
X33437523Y-122398380D02*
X33437523Y-121398380D01*
X33818476Y-121398380D02*
X34437523Y-121398380D01*
X34104190Y-121779333D01*
X34247047Y-121779333D01*
X34342285Y-121826952D01*
X34389904Y-121874571D01*
X34437523Y-121969809D01*
X34437523Y-122207904D01*
X34389904Y-122303142D01*
X34342285Y-122350761D01*
X34247047Y-122398380D01*
X33961333Y-122398380D01*
X33866095Y-122350761D01*
X33818476Y-122303142D01*
%TO.C,FootSwitch2*%
X160111428Y-63248571D02*
X159778095Y-63248571D01*
X159778095Y-63772380D02*
X159778095Y-62772380D01*
X160254285Y-62772380D01*
X160778095Y-63772380D02*
X160682857Y-63724761D01*
X160635238Y-63677142D01*
X160587619Y-63581904D01*
X160587619Y-63296190D01*
X160635238Y-63200952D01*
X160682857Y-63153333D01*
X160778095Y-63105714D01*
X160920952Y-63105714D01*
X161016190Y-63153333D01*
X161063809Y-63200952D01*
X161111428Y-63296190D01*
X161111428Y-63581904D01*
X161063809Y-63677142D01*
X161016190Y-63724761D01*
X160920952Y-63772380D01*
X160778095Y-63772380D01*
X161682857Y-63772380D02*
X161587619Y-63724761D01*
X161540000Y-63677142D01*
X161492380Y-63581904D01*
X161492380Y-63296190D01*
X161540000Y-63200952D01*
X161587619Y-63153333D01*
X161682857Y-63105714D01*
X161825714Y-63105714D01*
X161920952Y-63153333D01*
X161968571Y-63200952D01*
X162016190Y-63296190D01*
X162016190Y-63581904D01*
X161968571Y-63677142D01*
X161920952Y-63724761D01*
X161825714Y-63772380D01*
X161682857Y-63772380D01*
X162301904Y-63105714D02*
X162682857Y-63105714D01*
X162444761Y-62772380D02*
X162444761Y-63629523D01*
X162492380Y-63724761D01*
X162587619Y-63772380D01*
X162682857Y-63772380D01*
X162968571Y-63724761D02*
X163111428Y-63772380D01*
X163349523Y-63772380D01*
X163444761Y-63724761D01*
X163492380Y-63677142D01*
X163540000Y-63581904D01*
X163540000Y-63486666D01*
X163492380Y-63391428D01*
X163444761Y-63343809D01*
X163349523Y-63296190D01*
X163159047Y-63248571D01*
X163063809Y-63200952D01*
X163016190Y-63153333D01*
X162968571Y-63058095D01*
X162968571Y-62962857D01*
X163016190Y-62867619D01*
X163063809Y-62820000D01*
X163159047Y-62772380D01*
X163397142Y-62772380D01*
X163540000Y-62820000D01*
X163873333Y-63105714D02*
X164063809Y-63772380D01*
X164254285Y-63296190D01*
X164444761Y-63772380D01*
X164635238Y-63105714D01*
X165016190Y-63772380D02*
X165016190Y-63105714D01*
X165016190Y-62772380D02*
X164968571Y-62820000D01*
X165016190Y-62867619D01*
X165063809Y-62820000D01*
X165016190Y-62772380D01*
X165016190Y-62867619D01*
X165349523Y-63105714D02*
X165730476Y-63105714D01*
X165492380Y-62772380D02*
X165492380Y-63629523D01*
X165540000Y-63724761D01*
X165635238Y-63772380D01*
X165730476Y-63772380D01*
X166492380Y-63724761D02*
X166397142Y-63772380D01*
X166206666Y-63772380D01*
X166111428Y-63724761D01*
X166063809Y-63677142D01*
X166016190Y-63581904D01*
X166016190Y-63296190D01*
X166063809Y-63200952D01*
X166111428Y-63153333D01*
X166206666Y-63105714D01*
X166397142Y-63105714D01*
X166492380Y-63153333D01*
X166920952Y-63772380D02*
X166920952Y-62772380D01*
X167349523Y-63772380D02*
X167349523Y-63248571D01*
X167301904Y-63153333D01*
X167206666Y-63105714D01*
X167063809Y-63105714D01*
X166968571Y-63153333D01*
X166920952Y-63200952D01*
X167778095Y-62867619D02*
X167825714Y-62820000D01*
X167920952Y-62772380D01*
X168159047Y-62772380D01*
X168254285Y-62820000D01*
X168301904Y-62867619D01*
X168349523Y-62962857D01*
X168349523Y-63058095D01*
X168301904Y-63200952D01*
X167730476Y-63772380D01*
X168349523Y-63772380D01*
%TO.C,LedSW5*%
X89019761Y-110732380D02*
X88543571Y-110732380D01*
X88543571Y-109732380D01*
X89734047Y-110684761D02*
X89638809Y-110732380D01*
X89448333Y-110732380D01*
X89353095Y-110684761D01*
X89305476Y-110589523D01*
X89305476Y-110208571D01*
X89353095Y-110113333D01*
X89448333Y-110065714D01*
X89638809Y-110065714D01*
X89734047Y-110113333D01*
X89781666Y-110208571D01*
X89781666Y-110303809D01*
X89305476Y-110399047D01*
X90638809Y-110732380D02*
X90638809Y-109732380D01*
X90638809Y-110684761D02*
X90543571Y-110732380D01*
X90353095Y-110732380D01*
X90257857Y-110684761D01*
X90210238Y-110637142D01*
X90162619Y-110541904D01*
X90162619Y-110256190D01*
X90210238Y-110160952D01*
X90257857Y-110113333D01*
X90353095Y-110065714D01*
X90543571Y-110065714D01*
X90638809Y-110113333D01*
X91067380Y-110684761D02*
X91210238Y-110732380D01*
X91448333Y-110732380D01*
X91543571Y-110684761D01*
X91591190Y-110637142D01*
X91638809Y-110541904D01*
X91638809Y-110446666D01*
X91591190Y-110351428D01*
X91543571Y-110303809D01*
X91448333Y-110256190D01*
X91257857Y-110208571D01*
X91162619Y-110160952D01*
X91115000Y-110113333D01*
X91067380Y-110018095D01*
X91067380Y-109922857D01*
X91115000Y-109827619D01*
X91162619Y-109780000D01*
X91257857Y-109732380D01*
X91495952Y-109732380D01*
X91638809Y-109780000D01*
X91972142Y-109732380D02*
X92210238Y-110732380D01*
X92400714Y-110018095D01*
X92591190Y-110732380D01*
X92829285Y-109732380D01*
X93686428Y-109732380D02*
X93210238Y-109732380D01*
X93162619Y-110208571D01*
X93210238Y-110160952D01*
X93305476Y-110113333D01*
X93543571Y-110113333D01*
X93638809Y-110160952D01*
X93686428Y-110208571D01*
X93734047Y-110303809D01*
X93734047Y-110541904D01*
X93686428Y-110637142D01*
X93638809Y-110684761D01*
X93543571Y-110732380D01*
X93305476Y-110732380D01*
X93210238Y-110684761D01*
X93162619Y-110637142D01*
%TO.C,FootSwitch3*%
X213451428Y-63248571D02*
X213118095Y-63248571D01*
X213118095Y-63772380D02*
X213118095Y-62772380D01*
X213594285Y-62772380D01*
X214118095Y-63772380D02*
X214022857Y-63724761D01*
X213975238Y-63677142D01*
X213927619Y-63581904D01*
X213927619Y-63296190D01*
X213975238Y-63200952D01*
X214022857Y-63153333D01*
X214118095Y-63105714D01*
X214260952Y-63105714D01*
X214356190Y-63153333D01*
X214403809Y-63200952D01*
X214451428Y-63296190D01*
X214451428Y-63581904D01*
X214403809Y-63677142D01*
X214356190Y-63724761D01*
X214260952Y-63772380D01*
X214118095Y-63772380D01*
X215022857Y-63772380D02*
X214927619Y-63724761D01*
X214880000Y-63677142D01*
X214832380Y-63581904D01*
X214832380Y-63296190D01*
X214880000Y-63200952D01*
X214927619Y-63153333D01*
X215022857Y-63105714D01*
X215165714Y-63105714D01*
X215260952Y-63153333D01*
X215308571Y-63200952D01*
X215356190Y-63296190D01*
X215356190Y-63581904D01*
X215308571Y-63677142D01*
X215260952Y-63724761D01*
X215165714Y-63772380D01*
X215022857Y-63772380D01*
X215641904Y-63105714D02*
X216022857Y-63105714D01*
X215784761Y-62772380D02*
X215784761Y-63629523D01*
X215832380Y-63724761D01*
X215927619Y-63772380D01*
X216022857Y-63772380D01*
X216308571Y-63724761D02*
X216451428Y-63772380D01*
X216689523Y-63772380D01*
X216784761Y-63724761D01*
X216832380Y-63677142D01*
X216880000Y-63581904D01*
X216880000Y-63486666D01*
X216832380Y-63391428D01*
X216784761Y-63343809D01*
X216689523Y-63296190D01*
X216499047Y-63248571D01*
X216403809Y-63200952D01*
X216356190Y-63153333D01*
X216308571Y-63058095D01*
X216308571Y-62962857D01*
X216356190Y-62867619D01*
X216403809Y-62820000D01*
X216499047Y-62772380D01*
X216737142Y-62772380D01*
X216880000Y-62820000D01*
X217213333Y-63105714D02*
X217403809Y-63772380D01*
X217594285Y-63296190D01*
X217784761Y-63772380D01*
X217975238Y-63105714D01*
X218356190Y-63772380D02*
X218356190Y-63105714D01*
X218356190Y-62772380D02*
X218308571Y-62820000D01*
X218356190Y-62867619D01*
X218403809Y-62820000D01*
X218356190Y-62772380D01*
X218356190Y-62867619D01*
X218689523Y-63105714D02*
X219070476Y-63105714D01*
X218832380Y-62772380D02*
X218832380Y-63629523D01*
X218880000Y-63724761D01*
X218975238Y-63772380D01*
X219070476Y-63772380D01*
X219832380Y-63724761D02*
X219737142Y-63772380D01*
X219546666Y-63772380D01*
X219451428Y-63724761D01*
X219403809Y-63677142D01*
X219356190Y-63581904D01*
X219356190Y-63296190D01*
X219403809Y-63200952D01*
X219451428Y-63153333D01*
X219546666Y-63105714D01*
X219737142Y-63105714D01*
X219832380Y-63153333D01*
X220260952Y-63772380D02*
X220260952Y-62772380D01*
X220689523Y-63772380D02*
X220689523Y-63248571D01*
X220641904Y-63153333D01*
X220546666Y-63105714D01*
X220403809Y-63105714D01*
X220308571Y-63153333D01*
X220260952Y-63200952D01*
X221070476Y-62772380D02*
X221689523Y-62772380D01*
X221356190Y-63153333D01*
X221499047Y-63153333D01*
X221594285Y-63200952D01*
X221641904Y-63248571D01*
X221689523Y-63343809D01*
X221689523Y-63581904D01*
X221641904Y-63677142D01*
X221594285Y-63724761D01*
X221499047Y-63772380D01*
X221213333Y-63772380D01*
X221118095Y-63724761D01*
X221070476Y-63677142D01*
%TO.C,LedSW6*%
X142519761Y-110732380D02*
X142043571Y-110732380D01*
X142043571Y-109732380D01*
X143234047Y-110684761D02*
X143138809Y-110732380D01*
X142948333Y-110732380D01*
X142853095Y-110684761D01*
X142805476Y-110589523D01*
X142805476Y-110208571D01*
X142853095Y-110113333D01*
X142948333Y-110065714D01*
X143138809Y-110065714D01*
X143234047Y-110113333D01*
X143281666Y-110208571D01*
X143281666Y-110303809D01*
X142805476Y-110399047D01*
X144138809Y-110732380D02*
X144138809Y-109732380D01*
X144138809Y-110684761D02*
X144043571Y-110732380D01*
X143853095Y-110732380D01*
X143757857Y-110684761D01*
X143710238Y-110637142D01*
X143662619Y-110541904D01*
X143662619Y-110256190D01*
X143710238Y-110160952D01*
X143757857Y-110113333D01*
X143853095Y-110065714D01*
X144043571Y-110065714D01*
X144138809Y-110113333D01*
X144567380Y-110684761D02*
X144710238Y-110732380D01*
X144948333Y-110732380D01*
X145043571Y-110684761D01*
X145091190Y-110637142D01*
X145138809Y-110541904D01*
X145138809Y-110446666D01*
X145091190Y-110351428D01*
X145043571Y-110303809D01*
X144948333Y-110256190D01*
X144757857Y-110208571D01*
X144662619Y-110160952D01*
X144615000Y-110113333D01*
X144567380Y-110018095D01*
X144567380Y-109922857D01*
X144615000Y-109827619D01*
X144662619Y-109780000D01*
X144757857Y-109732380D01*
X144995952Y-109732380D01*
X145138809Y-109780000D01*
X145472142Y-109732380D02*
X145710238Y-110732380D01*
X145900714Y-110018095D01*
X146091190Y-110732380D01*
X146329285Y-109732380D01*
X147138809Y-109732380D02*
X146948333Y-109732380D01*
X146853095Y-109780000D01*
X146805476Y-109827619D01*
X146710238Y-109970476D01*
X146662619Y-110160952D01*
X146662619Y-110541904D01*
X146710238Y-110637142D01*
X146757857Y-110684761D01*
X146853095Y-110732380D01*
X147043571Y-110732380D01*
X147138809Y-110684761D01*
X147186428Y-110637142D01*
X147234047Y-110541904D01*
X147234047Y-110303809D01*
X147186428Y-110208571D01*
X147138809Y-110160952D01*
X147043571Y-110113333D01*
X146853095Y-110113333D01*
X146757857Y-110160952D01*
X146710238Y-110208571D01*
X146662619Y-110303809D01*
%TO.C,MidiOut1*%
X74680000Y-42702380D02*
X74680000Y-41702380D01*
X75013333Y-42416666D01*
X75346666Y-41702380D01*
X75346666Y-42702380D01*
X75822857Y-42702380D02*
X75822857Y-42035714D01*
X75822857Y-41702380D02*
X75775238Y-41750000D01*
X75822857Y-41797619D01*
X75870476Y-41750000D01*
X75822857Y-41702380D01*
X75822857Y-41797619D01*
X76727619Y-42702380D02*
X76727619Y-41702380D01*
X76727619Y-42654761D02*
X76632380Y-42702380D01*
X76441904Y-42702380D01*
X76346666Y-42654761D01*
X76299047Y-42607142D01*
X76251428Y-42511904D01*
X76251428Y-42226190D01*
X76299047Y-42130952D01*
X76346666Y-42083333D01*
X76441904Y-42035714D01*
X76632380Y-42035714D01*
X76727619Y-42083333D01*
X77203809Y-42702380D02*
X77203809Y-42035714D01*
X77203809Y-41702380D02*
X77156190Y-41750000D01*
X77203809Y-41797619D01*
X77251428Y-41750000D01*
X77203809Y-41702380D01*
X77203809Y-41797619D01*
X77870476Y-41702380D02*
X78060952Y-41702380D01*
X78156190Y-41750000D01*
X78251428Y-41845238D01*
X78299047Y-42035714D01*
X78299047Y-42369047D01*
X78251428Y-42559523D01*
X78156190Y-42654761D01*
X78060952Y-42702380D01*
X77870476Y-42702380D01*
X77775238Y-42654761D01*
X77680000Y-42559523D01*
X77632380Y-42369047D01*
X77632380Y-42035714D01*
X77680000Y-41845238D01*
X77775238Y-41750000D01*
X77870476Y-41702380D01*
X79156190Y-42035714D02*
X79156190Y-42702380D01*
X78727619Y-42035714D02*
X78727619Y-42559523D01*
X78775238Y-42654761D01*
X78870476Y-42702380D01*
X79013333Y-42702380D01*
X79108571Y-42654761D01*
X79156190Y-42607142D01*
X79489523Y-42035714D02*
X79870476Y-42035714D01*
X79632380Y-41702380D02*
X79632380Y-42559523D01*
X79680000Y-42654761D01*
X79775238Y-42702380D01*
X79870476Y-42702380D01*
X80727619Y-42702380D02*
X80156190Y-42702380D01*
X80441904Y-42702380D02*
X80441904Y-41702380D01*
X80346666Y-41845238D01*
X80251428Y-41940476D01*
X80156190Y-41988095D01*
%TO.C,U2*%
X209008095Y-77467380D02*
X209008095Y-78276904D01*
X209055714Y-78372142D01*
X209103333Y-78419761D01*
X209198571Y-78467380D01*
X209389047Y-78467380D01*
X209484285Y-78419761D01*
X209531904Y-78372142D01*
X209579523Y-78276904D01*
X209579523Y-77467380D01*
X210008095Y-77562619D02*
X210055714Y-77515000D01*
X210150952Y-77467380D01*
X210389047Y-77467380D01*
X210484285Y-77515000D01*
X210531904Y-77562619D01*
X210579523Y-77657857D01*
X210579523Y-77753095D01*
X210531904Y-77895952D01*
X209960476Y-78467380D01*
X210579523Y-78467380D01*
%TO.C,R4*%
X161333333Y-73092380D02*
X161000000Y-72616190D01*
X160761904Y-73092380D02*
X160761904Y-72092380D01*
X161142857Y-72092380D01*
X161238095Y-72140000D01*
X161285714Y-72187619D01*
X161333333Y-72282857D01*
X161333333Y-72425714D01*
X161285714Y-72520952D01*
X161238095Y-72568571D01*
X161142857Y-72616190D01*
X160761904Y-72616190D01*
X162190476Y-72425714D02*
X162190476Y-73092380D01*
X161952380Y-72044761D02*
X161714285Y-72759047D01*
X162333333Y-72759047D01*
%TO.C,FootSwitch5*%
X106771428Y-112668571D02*
X106438095Y-112668571D01*
X106438095Y-113192380D02*
X106438095Y-112192380D01*
X106914285Y-112192380D01*
X107438095Y-113192380D02*
X107342857Y-113144761D01*
X107295238Y-113097142D01*
X107247619Y-113001904D01*
X107247619Y-112716190D01*
X107295238Y-112620952D01*
X107342857Y-112573333D01*
X107438095Y-112525714D01*
X107580952Y-112525714D01*
X107676190Y-112573333D01*
X107723809Y-112620952D01*
X107771428Y-112716190D01*
X107771428Y-113001904D01*
X107723809Y-113097142D01*
X107676190Y-113144761D01*
X107580952Y-113192380D01*
X107438095Y-113192380D01*
X108342857Y-113192380D02*
X108247619Y-113144761D01*
X108200000Y-113097142D01*
X108152380Y-113001904D01*
X108152380Y-112716190D01*
X108200000Y-112620952D01*
X108247619Y-112573333D01*
X108342857Y-112525714D01*
X108485714Y-112525714D01*
X108580952Y-112573333D01*
X108628571Y-112620952D01*
X108676190Y-112716190D01*
X108676190Y-113001904D01*
X108628571Y-113097142D01*
X108580952Y-113144761D01*
X108485714Y-113192380D01*
X108342857Y-113192380D01*
X108961904Y-112525714D02*
X109342857Y-112525714D01*
X109104761Y-112192380D02*
X109104761Y-113049523D01*
X109152380Y-113144761D01*
X109247619Y-113192380D01*
X109342857Y-113192380D01*
X109628571Y-113144761D02*
X109771428Y-113192380D01*
X110009523Y-113192380D01*
X110104761Y-113144761D01*
X110152380Y-113097142D01*
X110200000Y-113001904D01*
X110200000Y-112906666D01*
X110152380Y-112811428D01*
X110104761Y-112763809D01*
X110009523Y-112716190D01*
X109819047Y-112668571D01*
X109723809Y-112620952D01*
X109676190Y-112573333D01*
X109628571Y-112478095D01*
X109628571Y-112382857D01*
X109676190Y-112287619D01*
X109723809Y-112240000D01*
X109819047Y-112192380D01*
X110057142Y-112192380D01*
X110200000Y-112240000D01*
X110533333Y-112525714D02*
X110723809Y-113192380D01*
X110914285Y-112716190D01*
X111104761Y-113192380D01*
X111295238Y-112525714D01*
X111676190Y-113192380D02*
X111676190Y-112525714D01*
X111676190Y-112192380D02*
X111628571Y-112240000D01*
X111676190Y-112287619D01*
X111723809Y-112240000D01*
X111676190Y-112192380D01*
X111676190Y-112287619D01*
X112009523Y-112525714D02*
X112390476Y-112525714D01*
X112152380Y-112192380D02*
X112152380Y-113049523D01*
X112200000Y-113144761D01*
X112295238Y-113192380D01*
X112390476Y-113192380D01*
X113152380Y-113144761D02*
X113057142Y-113192380D01*
X112866666Y-113192380D01*
X112771428Y-113144761D01*
X112723809Y-113097142D01*
X112676190Y-113001904D01*
X112676190Y-112716190D01*
X112723809Y-112620952D01*
X112771428Y-112573333D01*
X112866666Y-112525714D01*
X113057142Y-112525714D01*
X113152380Y-112573333D01*
X113580952Y-113192380D02*
X113580952Y-112192380D01*
X114009523Y-113192380D02*
X114009523Y-112668571D01*
X113961904Y-112573333D01*
X113866666Y-112525714D01*
X113723809Y-112525714D01*
X113628571Y-112573333D01*
X113580952Y-112620952D01*
X114961904Y-112192380D02*
X114485714Y-112192380D01*
X114438095Y-112668571D01*
X114485714Y-112620952D01*
X114580952Y-112573333D01*
X114819047Y-112573333D01*
X114914285Y-112620952D01*
X114961904Y-112668571D01*
X115009523Y-112763809D01*
X115009523Y-113001904D01*
X114961904Y-113097142D01*
X114914285Y-113144761D01*
X114819047Y-113192380D01*
X114580952Y-113192380D01*
X114485714Y-113144761D01*
X114438095Y-113097142D01*
%TO.C,U3*%
X143172380Y-54421904D02*
X143981904Y-54421904D01*
X144077142Y-54374285D01*
X144124761Y-54326666D01*
X144172380Y-54231428D01*
X144172380Y-54040952D01*
X144124761Y-53945714D01*
X144077142Y-53898095D01*
X143981904Y-53850476D01*
X143172380Y-53850476D01*
X143172380Y-53469523D02*
X143172380Y-52850476D01*
X143553333Y-53183809D01*
X143553333Y-53040952D01*
X143600952Y-52945714D01*
X143648571Y-52898095D01*
X143743809Y-52850476D01*
X143981904Y-52850476D01*
X144077142Y-52898095D01*
X144124761Y-52945714D01*
X144172380Y-53040952D01*
X144172380Y-53326666D01*
X144124761Y-53421904D01*
X144077142Y-53469523D01*
X133816666Y-64393333D02*
X133116666Y-64393333D01*
X133616666Y-64160000D01*
X133116666Y-63926666D01*
X133816666Y-63926666D01*
X133816666Y-63593333D02*
X133116666Y-63593333D01*
X133816666Y-63193333D02*
X133416666Y-63493333D01*
X133116666Y-63193333D02*
X133516666Y-63593333D01*
X133816666Y-62560000D02*
X133816666Y-62893333D01*
X133116666Y-62893333D01*
X133183333Y-62360000D02*
X133150000Y-62326666D01*
X133116666Y-62260000D01*
X133116666Y-62093333D01*
X133150000Y-62026666D01*
X133183333Y-61993333D01*
X133250000Y-61960000D01*
X133316666Y-61960000D01*
X133416666Y-61993333D01*
X133816666Y-62393333D01*
X133816666Y-61960000D01*
X133116666Y-61360000D02*
X133116666Y-61493333D01*
X133150000Y-61560000D01*
X133183333Y-61593333D01*
X133283333Y-61660000D01*
X133416666Y-61693333D01*
X133683333Y-61693333D01*
X133750000Y-61660000D01*
X133783333Y-61626666D01*
X133816666Y-61560000D01*
X133816666Y-61426666D01*
X133783333Y-61360000D01*
X133750000Y-61326666D01*
X133683333Y-61293333D01*
X133516666Y-61293333D01*
X133450000Y-61326666D01*
X133416666Y-61360000D01*
X133383333Y-61426666D01*
X133383333Y-61560000D01*
X133416666Y-61626666D01*
X133450000Y-61660000D01*
X133516666Y-61693333D01*
X133116666Y-61060000D02*
X133116666Y-60593333D01*
X133816666Y-61060000D01*
X133816666Y-60593333D01*
X133116666Y-60026666D02*
X133116666Y-60160000D01*
X133150000Y-60226666D01*
X133183333Y-60260000D01*
X133283333Y-60326666D01*
X133416666Y-60360000D01*
X133683333Y-60360000D01*
X133750000Y-60326666D01*
X133783333Y-60293333D01*
X133816666Y-60226666D01*
X133816666Y-60093333D01*
X133783333Y-60026666D01*
X133750000Y-59993333D01*
X133683333Y-59960000D01*
X133516666Y-59960000D01*
X133450000Y-59993333D01*
X133416666Y-60026666D01*
X133383333Y-60093333D01*
X133383333Y-60226666D01*
X133416666Y-60293333D01*
X133450000Y-60326666D01*
X133516666Y-60360000D01*
X133350000Y-59360000D02*
X133816666Y-59360000D01*
X133083333Y-59526666D02*
X133583333Y-59693333D01*
X133583333Y-59260000D01*
X133116666Y-59093333D02*
X133816666Y-58860000D01*
X133116666Y-58626666D01*
X133450000Y-58160000D02*
X133450000Y-58393333D01*
X133816666Y-58393333D02*
X133116666Y-58393333D01*
X133116666Y-58060000D01*
X133116666Y-57893333D02*
X133116666Y-57493333D01*
X133816666Y-57693333D02*
X133116666Y-57693333D01*
X133350000Y-56960000D02*
X133816666Y-56960000D01*
X133083333Y-57126666D02*
X133583333Y-57293333D01*
X133583333Y-56860000D01*
%TO.C,FootSwitch1*%
X106771428Y-63248571D02*
X106438095Y-63248571D01*
X106438095Y-63772380D02*
X106438095Y-62772380D01*
X106914285Y-62772380D01*
X107438095Y-63772380D02*
X107342857Y-63724761D01*
X107295238Y-63677142D01*
X107247619Y-63581904D01*
X107247619Y-63296190D01*
X107295238Y-63200952D01*
X107342857Y-63153333D01*
X107438095Y-63105714D01*
X107580952Y-63105714D01*
X107676190Y-63153333D01*
X107723809Y-63200952D01*
X107771428Y-63296190D01*
X107771428Y-63581904D01*
X107723809Y-63677142D01*
X107676190Y-63724761D01*
X107580952Y-63772380D01*
X107438095Y-63772380D01*
X108342857Y-63772380D02*
X108247619Y-63724761D01*
X108200000Y-63677142D01*
X108152380Y-63581904D01*
X108152380Y-63296190D01*
X108200000Y-63200952D01*
X108247619Y-63153333D01*
X108342857Y-63105714D01*
X108485714Y-63105714D01*
X108580952Y-63153333D01*
X108628571Y-63200952D01*
X108676190Y-63296190D01*
X108676190Y-63581904D01*
X108628571Y-63677142D01*
X108580952Y-63724761D01*
X108485714Y-63772380D01*
X108342857Y-63772380D01*
X108961904Y-63105714D02*
X109342857Y-63105714D01*
X109104761Y-62772380D02*
X109104761Y-63629523D01*
X109152380Y-63724761D01*
X109247619Y-63772380D01*
X109342857Y-63772380D01*
X109628571Y-63724761D02*
X109771428Y-63772380D01*
X110009523Y-63772380D01*
X110104761Y-63724761D01*
X110152380Y-63677142D01*
X110200000Y-63581904D01*
X110200000Y-63486666D01*
X110152380Y-63391428D01*
X110104761Y-63343809D01*
X110009523Y-63296190D01*
X109819047Y-63248571D01*
X109723809Y-63200952D01*
X109676190Y-63153333D01*
X109628571Y-63058095D01*
X109628571Y-62962857D01*
X109676190Y-62867619D01*
X109723809Y-62820000D01*
X109819047Y-62772380D01*
X110057142Y-62772380D01*
X110200000Y-62820000D01*
X110533333Y-63105714D02*
X110723809Y-63772380D01*
X110914285Y-63296190D01*
X111104761Y-63772380D01*
X111295238Y-63105714D01*
X111676190Y-63772380D02*
X111676190Y-63105714D01*
X111676190Y-62772380D02*
X111628571Y-62820000D01*
X111676190Y-62867619D01*
X111723809Y-62820000D01*
X111676190Y-62772380D01*
X111676190Y-62867619D01*
X112009523Y-63105714D02*
X112390476Y-63105714D01*
X112152380Y-62772380D02*
X112152380Y-63629523D01*
X112200000Y-63724761D01*
X112295238Y-63772380D01*
X112390476Y-63772380D01*
X113152380Y-63724761D02*
X113057142Y-63772380D01*
X112866666Y-63772380D01*
X112771428Y-63724761D01*
X112723809Y-63677142D01*
X112676190Y-63581904D01*
X112676190Y-63296190D01*
X112723809Y-63200952D01*
X112771428Y-63153333D01*
X112866666Y-63105714D01*
X113057142Y-63105714D01*
X113152380Y-63153333D01*
X113580952Y-63772380D02*
X113580952Y-62772380D01*
X114009523Y-63772380D02*
X114009523Y-63248571D01*
X113961904Y-63153333D01*
X113866666Y-63105714D01*
X113723809Y-63105714D01*
X113628571Y-63153333D01*
X113580952Y-63200952D01*
X115009523Y-63772380D02*
X114438095Y-63772380D01*
X114723809Y-63772380D02*
X114723809Y-62772380D01*
X114628571Y-62915238D01*
X114533333Y-63010476D01*
X114438095Y-63058095D01*
%TO.C,FootSwitch6*%
X160111428Y-112668571D02*
X159778095Y-112668571D01*
X159778095Y-113192380D02*
X159778095Y-112192380D01*
X160254285Y-112192380D01*
X160778095Y-113192380D02*
X160682857Y-113144761D01*
X160635238Y-113097142D01*
X160587619Y-113001904D01*
X160587619Y-112716190D01*
X160635238Y-112620952D01*
X160682857Y-112573333D01*
X160778095Y-112525714D01*
X160920952Y-112525714D01*
X161016190Y-112573333D01*
X161063809Y-112620952D01*
X161111428Y-112716190D01*
X161111428Y-113001904D01*
X161063809Y-113097142D01*
X161016190Y-113144761D01*
X160920952Y-113192380D01*
X160778095Y-113192380D01*
X161682857Y-113192380D02*
X161587619Y-113144761D01*
X161540000Y-113097142D01*
X161492380Y-113001904D01*
X161492380Y-112716190D01*
X161540000Y-112620952D01*
X161587619Y-112573333D01*
X161682857Y-112525714D01*
X161825714Y-112525714D01*
X161920952Y-112573333D01*
X161968571Y-112620952D01*
X162016190Y-112716190D01*
X162016190Y-113001904D01*
X161968571Y-113097142D01*
X161920952Y-113144761D01*
X161825714Y-113192380D01*
X161682857Y-113192380D01*
X162301904Y-112525714D02*
X162682857Y-112525714D01*
X162444761Y-112192380D02*
X162444761Y-113049523D01*
X162492380Y-113144761D01*
X162587619Y-113192380D01*
X162682857Y-113192380D01*
X162968571Y-113144761D02*
X163111428Y-113192380D01*
X163349523Y-113192380D01*
X163444761Y-113144761D01*
X163492380Y-113097142D01*
X163540000Y-113001904D01*
X163540000Y-112906666D01*
X163492380Y-112811428D01*
X163444761Y-112763809D01*
X163349523Y-112716190D01*
X163159047Y-112668571D01*
X163063809Y-112620952D01*
X163016190Y-112573333D01*
X162968571Y-112478095D01*
X162968571Y-112382857D01*
X163016190Y-112287619D01*
X163063809Y-112240000D01*
X163159047Y-112192380D01*
X163397142Y-112192380D01*
X163540000Y-112240000D01*
X163873333Y-112525714D02*
X164063809Y-113192380D01*
X164254285Y-112716190D01*
X164444761Y-113192380D01*
X164635238Y-112525714D01*
X165016190Y-113192380D02*
X165016190Y-112525714D01*
X165016190Y-112192380D02*
X164968571Y-112240000D01*
X165016190Y-112287619D01*
X165063809Y-112240000D01*
X165016190Y-112192380D01*
X165016190Y-112287619D01*
X165349523Y-112525714D02*
X165730476Y-112525714D01*
X165492380Y-112192380D02*
X165492380Y-113049523D01*
X165540000Y-113144761D01*
X165635238Y-113192380D01*
X165730476Y-113192380D01*
X166492380Y-113144761D02*
X166397142Y-113192380D01*
X166206666Y-113192380D01*
X166111428Y-113144761D01*
X166063809Y-113097142D01*
X166016190Y-113001904D01*
X166016190Y-112716190D01*
X166063809Y-112620952D01*
X166111428Y-112573333D01*
X166206666Y-112525714D01*
X166397142Y-112525714D01*
X166492380Y-112573333D01*
X166920952Y-113192380D02*
X166920952Y-112192380D01*
X167349523Y-113192380D02*
X167349523Y-112668571D01*
X167301904Y-112573333D01*
X167206666Y-112525714D01*
X167063809Y-112525714D01*
X166968571Y-112573333D01*
X166920952Y-112620952D01*
X168254285Y-112192380D02*
X168063809Y-112192380D01*
X167968571Y-112240000D01*
X167920952Y-112287619D01*
X167825714Y-112430476D01*
X167778095Y-112620952D01*
X167778095Y-113001904D01*
X167825714Y-113097142D01*
X167873333Y-113144761D01*
X167968571Y-113192380D01*
X168159047Y-113192380D01*
X168254285Y-113144761D01*
X168301904Y-113097142D01*
X168349523Y-113001904D01*
X168349523Y-112763809D01*
X168301904Y-112668571D01*
X168254285Y-112620952D01*
X168159047Y-112573333D01*
X167968571Y-112573333D01*
X167873333Y-112620952D01*
X167825714Y-112668571D01*
X167778095Y-112763809D01*
%TO.C,R5*%
X54399333Y-121352380D02*
X54066000Y-120876190D01*
X53827904Y-121352380D02*
X53827904Y-120352380D01*
X54208857Y-120352380D01*
X54304095Y-120400000D01*
X54351714Y-120447619D01*
X54399333Y-120542857D01*
X54399333Y-120685714D01*
X54351714Y-120780952D01*
X54304095Y-120828571D01*
X54208857Y-120876190D01*
X53827904Y-120876190D01*
X55304095Y-120352380D02*
X54827904Y-120352380D01*
X54780285Y-120828571D01*
X54827904Y-120780952D01*
X54923142Y-120733333D01*
X55161238Y-120733333D01*
X55256476Y-120780952D01*
X55304095Y-120828571D01*
X55351714Y-120923809D01*
X55351714Y-121161904D01*
X55304095Y-121257142D01*
X55256476Y-121304761D01*
X55161238Y-121352380D01*
X54923142Y-121352380D01*
X54827904Y-121304761D01*
X54780285Y-121257142D01*
D13*
%TO.C,R3*%
X48240000Y-75360000D02*
X50200000Y-75360000D01*
X59440000Y-77080000D02*
X59440000Y-73640000D01*
X61400000Y-75360000D02*
X59440000Y-75360000D01*
X59440000Y-73640000D02*
X50200000Y-73640000D01*
X50200000Y-73640000D02*
X50200000Y-77080000D01*
X50200000Y-77080000D02*
X59440000Y-77080000D01*
%TO.C,LedSW4*%
X36055000Y-112004000D02*
X36055000Y-112160000D01*
X36055000Y-114320000D02*
X36055000Y-114476000D01*
X36055000Y-114475516D02*
G75*
G03*
X39287335Y-114318608I1560000J1235516D01*
G01*
X38656130Y-112160163D02*
G75*
G03*
X36574039Y-112160000I-1041130J-1079837D01*
G01*
X36574039Y-114320000D02*
G75*
G03*
X38656130Y-114319837I1040961J1080000D01*
G01*
X39287335Y-112161392D02*
G75*
G03*
X36055000Y-112004484I-1672335J-1078608D01*
G01*
%TO.C,LedSW3*%
X196055000Y-62584000D02*
X196055000Y-62740000D01*
X196055000Y-64900000D02*
X196055000Y-65056000D01*
X199287335Y-62741392D02*
G75*
G03*
X196055000Y-62584484I-1672335J-1078608D01*
G01*
X196055000Y-65055516D02*
G75*
G03*
X199287335Y-64898608I1560000J1235516D01*
G01*
X196574039Y-64900000D02*
G75*
G03*
X198656130Y-64899837I1040961J1080000D01*
G01*
X198656130Y-62740163D02*
G75*
G03*
X196574039Y-62740000I-1041130J-1079837D01*
G01*
%TO.C,R7*%
X103540000Y-73640000D02*
X103540000Y-77080000D01*
X112780000Y-73640000D02*
X103540000Y-73640000D01*
X112780000Y-77080000D02*
X112780000Y-73640000D01*
X101580000Y-75360000D02*
X103540000Y-75360000D01*
X103540000Y-77080000D02*
X112780000Y-77080000D01*
X114740000Y-75360000D02*
X112780000Y-75360000D01*
%TO.C,FootSwitch7*%
X210680000Y-119240000D02*
X224080000Y-119240000D01*
X210680000Y-107240000D02*
X210680000Y-119240000D01*
X224080000Y-107240000D02*
X224080000Y-119240000D01*
X210680000Y-107240000D02*
X224080000Y-107240000D01*
%TO.C,ExprPedalJack1*%
X230240000Y-35802500D02*
X250240000Y-35802500D01*
X250240000Y-35802500D02*
X250240000Y-60602500D01*
X250240000Y-60602500D02*
X230240000Y-60602500D01*
X230240000Y-60602500D02*
X230240000Y-35802500D01*
%TO.C,R10*%
X219460000Y-126500000D02*
X219460000Y-123060000D01*
X221420000Y-124780000D02*
X219460000Y-124780000D01*
X210220000Y-123060000D02*
X210220000Y-126500000D01*
X210220000Y-126500000D02*
X219460000Y-126500000D01*
X208260000Y-124780000D02*
X210220000Y-124780000D01*
X219460000Y-123060000D02*
X210220000Y-123060000D01*
%TO.C,TRS/RTS_Switch2*%
X176410000Y-46830000D02*
X176410000Y-50330000D01*
X166910000Y-46830000D02*
X166910000Y-50330000D01*
X166910000Y-50330000D02*
X168310000Y-50330000D01*
X172510000Y-46830000D02*
X173310000Y-46830000D01*
X170010000Y-46830000D02*
X170810000Y-46830000D01*
X170010000Y-50330000D02*
X170810000Y-50330000D01*
X175060000Y-46830000D02*
X176410000Y-46830000D01*
X172510000Y-50330000D02*
X173260000Y-50330000D01*
X166910000Y-46830000D02*
X168310000Y-46830000D01*
X176410000Y-50330000D02*
X175060000Y-50330000D01*
%TO.C,LedSW2*%
X149805000Y-62584000D02*
X149805000Y-62740000D01*
X149805000Y-64900000D02*
X149805000Y-65056000D01*
X150324039Y-64900000D02*
G75*
G03*
X152406130Y-64899837I1040961J1080000D01*
G01*
X149805000Y-65055516D02*
G75*
G03*
X153037335Y-64898608I1560000J1235516D01*
G01*
X152406130Y-62740163D02*
G75*
G03*
X150324039Y-62740000I-1041130J-1079837D01*
G01*
X153037335Y-62741392D02*
G75*
G03*
X149805000Y-62584484I-1672335J-1078608D01*
G01*
%TO.C,R9*%
X103540000Y-123060000D02*
X103540000Y-126500000D01*
X103540000Y-126500000D02*
X112780000Y-126500000D01*
X101580000Y-124780000D02*
X103540000Y-124780000D01*
X112780000Y-123060000D02*
X103540000Y-123060000D01*
X112780000Y-126500000D02*
X112780000Y-123060000D01*
X114740000Y-124780000D02*
X112780000Y-124780000D01*
%TO.C,R11*%
X144540000Y-58280000D02*
X147980000Y-58280000D01*
X146260000Y-60240000D02*
X146260000Y-58280000D01*
X146260000Y-47080000D02*
X146260000Y-49040000D01*
X147980000Y-49040000D02*
X144540000Y-49040000D01*
X144540000Y-49040000D02*
X144540000Y-58280000D01*
X147980000Y-58280000D02*
X147980000Y-49040000D01*
%TO.C,LedSW1*%
X89555000Y-64900000D02*
X89555000Y-65056000D01*
X89555000Y-62584000D02*
X89555000Y-62740000D01*
X92156130Y-62740163D02*
G75*
G03*
X90074039Y-62740000I-1041130J-1079837D01*
G01*
X92787335Y-62741392D02*
G75*
G03*
X89555000Y-62584484I-1672335J-1078608D01*
G01*
X90074039Y-64900000D02*
G75*
G03*
X92156130Y-64899837I1040961J1080000D01*
G01*
X89555000Y-65055516D02*
G75*
G03*
X92787335Y-64898608I1560000J1235516D01*
G01*
%TO.C,R8*%
X221420000Y-74598000D02*
X219460000Y-74598000D01*
X208260000Y-74598000D02*
X210220000Y-74598000D01*
X219460000Y-72878000D02*
X210220000Y-72878000D01*
X210220000Y-72878000D02*
X210220000Y-76318000D01*
X219460000Y-76318000D02*
X219460000Y-72878000D01*
X210220000Y-76318000D02*
X219460000Y-76318000D01*
%TO.C,R6*%
X166120000Y-126500000D02*
X166120000Y-123060000D01*
X156880000Y-123060000D02*
X156880000Y-126500000D01*
X168080000Y-124780000D02*
X166120000Y-124780000D01*
X156880000Y-126500000D02*
X166120000Y-126500000D01*
X154920000Y-124780000D02*
X156880000Y-124780000D01*
X166120000Y-123060000D02*
X156880000Y-123060000D01*
%TO.C,FootSwitch0*%
X63806000Y-57820000D02*
X63806000Y-69820000D01*
X50406000Y-57820000D02*
X63806000Y-57820000D01*
X50406000Y-69820000D02*
X63806000Y-69820000D01*
X50406000Y-57820000D02*
X50406000Y-69820000D01*
%TO.C,BankSwitch+1*%
X243700000Y-79980000D02*
X257100000Y-79980000D01*
X243700000Y-67980000D02*
X257100000Y-67980000D01*
X243700000Y-67980000D02*
X243700000Y-79980000D01*
X257100000Y-67980000D02*
X257100000Y-79980000D01*
%TO.C,StateLED1*%
X154830000Y-39724000D02*
X154830000Y-39880000D01*
X154830000Y-42040000D02*
X154830000Y-42196000D01*
X155349039Y-42040000D02*
G75*
G03*
X157431130Y-42039837I1040961J1080000D01*
G01*
X158062335Y-39881392D02*
G75*
G03*
X154830000Y-39724484I-1672335J-1078608D01*
G01*
X157431130Y-39880163D02*
G75*
G03*
X155349039Y-39880000I-1041130J-1079837D01*
G01*
X154830000Y-42195516D02*
G75*
G03*
X158062335Y-42038608I1560000J1235516D01*
G01*
%TO.C,LedSW7*%
X196055000Y-112004000D02*
X196055000Y-112160000D01*
X196055000Y-114320000D02*
X196055000Y-114476000D01*
X196055000Y-114475516D02*
G75*
G03*
X199287335Y-114318608I1560000J1235516D01*
G01*
X196574039Y-114320000D02*
G75*
G03*
X198656130Y-114319837I1040961J1080000D01*
G01*
X199287335Y-112161392D02*
G75*
G03*
X196055000Y-112004484I-1672335J-1078608D01*
G01*
X198656130Y-112160163D02*
G75*
G03*
X196574039Y-112160000I-1041130J-1079837D01*
G01*
%TO.C,BankSwith-1*%
X257100000Y-95920000D02*
X257100000Y-107920000D01*
X243700000Y-95920000D02*
X257100000Y-95920000D01*
X243700000Y-107920000D02*
X257100000Y-107920000D01*
X243700000Y-95920000D02*
X243700000Y-107920000D01*
%TO.C,FootSwitch4*%
X50406000Y-119240000D02*
X63806000Y-119240000D01*
X50406000Y-107240000D02*
X63806000Y-107240000D01*
X50406000Y-107240000D02*
X50406000Y-119240000D01*
X63806000Y-107240000D02*
X63806000Y-119240000D01*
%TO.C,R1*%
X72000000Y-65540000D02*
X81240000Y-65540000D01*
X70040000Y-63820000D02*
X72000000Y-63820000D01*
X81240000Y-65540000D02*
X81240000Y-62100000D01*
X83200000Y-63820000D02*
X81240000Y-63820000D01*
X81240000Y-62100000D02*
X72000000Y-62100000D01*
X72000000Y-62100000D02*
X72000000Y-65540000D01*
%TO.C,R2*%
X94990000Y-54680000D02*
X85750000Y-54680000D01*
X96950000Y-56400000D02*
X94990000Y-56400000D01*
X85750000Y-58120000D02*
X94990000Y-58120000D01*
X94990000Y-58120000D02*
X94990000Y-54680000D01*
X83790000Y-56400000D02*
X85750000Y-56400000D01*
X85750000Y-54680000D02*
X85750000Y-58120000D01*
%TO.C,LedSW0*%
X36055000Y-62584000D02*
X36055000Y-62740000D01*
X36055000Y-64900000D02*
X36055000Y-65056000D01*
X36055000Y-65055516D02*
G75*
G03*
X39287335Y-64898608I1560000J1235516D01*
G01*
X39287335Y-62741392D02*
G75*
G03*
X36055000Y-62584484I-1672335J-1078608D01*
G01*
X36574039Y-64900000D02*
G75*
G03*
X38656130Y-64899837I1040961J1080000D01*
G01*
X38656130Y-62740163D02*
G75*
G03*
X36574039Y-62740000I-1041130J-1079837D01*
G01*
%TO.C,ExprPedalJack2*%
X181980000Y-35802500D02*
X201980000Y-35802500D01*
X201980000Y-35802500D02*
X201980000Y-60602500D01*
X201980000Y-60602500D02*
X181980000Y-60602500D01*
X181980000Y-60602500D02*
X181980000Y-35802500D01*
%TO.C,U1*%
X132570000Y-81555000D02*
X130920000Y-81555000D01*
X136220000Y-101995000D02*
X136220000Y-81555000D01*
X130920000Y-101995000D02*
X136220000Y-101995000D01*
X130920000Y-81555000D02*
X130920000Y-101995000D01*
X136220000Y-81555000D02*
X134570000Y-81555000D01*
X132570000Y-81555000D02*
G75*
G03*
X134570000Y-81555000I1000000J0D01*
G01*
%TO.C,TRS/RTS_Switch1*%
X215170000Y-46830000D02*
X215170000Y-50330000D01*
X218270000Y-46830000D02*
X219070000Y-46830000D01*
X220770000Y-46830000D02*
X221570000Y-46830000D01*
X220770000Y-50330000D02*
X221520000Y-50330000D01*
X224670000Y-46830000D02*
X224670000Y-50330000D01*
X224670000Y-50330000D02*
X223320000Y-50330000D01*
X215170000Y-50330000D02*
X216570000Y-50330000D01*
X215170000Y-46830000D02*
X216570000Y-46830000D01*
X218270000Y-50330000D02*
X219070000Y-50330000D01*
X223320000Y-46830000D02*
X224670000Y-46830000D01*
%TO.C,FootSwitch2*%
X157340000Y-57820000D02*
X157340000Y-69820000D01*
X157340000Y-57820000D02*
X170740000Y-57820000D01*
X157340000Y-69820000D02*
X170740000Y-69820000D01*
X170740000Y-57820000D02*
X170740000Y-69820000D01*
%TO.C,LedSW5*%
X89555000Y-114320000D02*
X89555000Y-114476000D01*
X89555000Y-112004000D02*
X89555000Y-112160000D01*
X90074039Y-114320000D02*
G75*
G03*
X92156130Y-114319837I1040961J1080000D01*
G01*
X89555000Y-114475516D02*
G75*
G03*
X92787335Y-114318608I1560000J1235516D01*
G01*
X92156130Y-112160163D02*
G75*
G03*
X90074039Y-112160000I-1041130J-1079837D01*
G01*
X92787335Y-112161392D02*
G75*
G03*
X89555000Y-112004484I-1672335J-1078608D01*
G01*
%TO.C,FootSwitch3*%
X210680000Y-57820000D02*
X224080000Y-57820000D01*
X210680000Y-69820000D02*
X224080000Y-69820000D01*
X210680000Y-57820000D02*
X210680000Y-69820000D01*
X224080000Y-57820000D02*
X224080000Y-69820000D01*
%TO.C,LedSW6*%
X143055000Y-114320000D02*
X143055000Y-114476000D01*
X143055000Y-112004000D02*
X143055000Y-112160000D01*
X146287335Y-112161392D02*
G75*
G03*
X143055000Y-112004484I-1672335J-1078608D01*
G01*
X145656130Y-112160163D02*
G75*
G03*
X143574039Y-112160000I-1041130J-1079837D01*
G01*
X143574039Y-114320000D02*
G75*
G03*
X145656130Y-114319837I1040961J1080000D01*
G01*
X143055000Y-114475516D02*
G75*
G03*
X146287335Y-114318608I1560000J1235516D01*
G01*
%TO.C,MidiOut1*%
X86680000Y-52862500D02*
X68680000Y-52862500D01*
X68680000Y-52862500D02*
X68680000Y-35862500D01*
X86680000Y-35862500D02*
X86680000Y-52862500D01*
X86680000Y-35862500D02*
X88180000Y-35862500D01*
X68680000Y-35862500D02*
X67180000Y-35862500D01*
%TO.C,U2*%
X181720000Y-79015000D02*
X181720000Y-99455000D01*
X183370000Y-79015000D02*
X181720000Y-79015000D01*
X187020000Y-99455000D02*
X187020000Y-79015000D01*
X181720000Y-99455000D02*
X187020000Y-99455000D01*
X187020000Y-79015000D02*
X185370000Y-79015000D01*
X183370000Y-79015000D02*
G75*
G03*
X185370000Y-79015000I1000000J0D01*
G01*
%TO.C,R4*%
X154920000Y-75360000D02*
X156880000Y-75360000D01*
X166120000Y-77080000D02*
X166120000Y-73640000D01*
X168080000Y-75360000D02*
X166120000Y-75360000D01*
X156880000Y-77080000D02*
X166120000Y-77080000D01*
X166120000Y-73640000D02*
X156880000Y-73640000D01*
X156880000Y-73640000D02*
X156880000Y-77080000D01*
%TO.C,FootSwitch5*%
X104000000Y-119240000D02*
X117400000Y-119240000D01*
X104000000Y-107240000D02*
X117400000Y-107240000D01*
X117400000Y-107240000D02*
X117400000Y-119240000D01*
X104000000Y-107240000D02*
X104000000Y-119240000D01*
D12*
%TO.C,U3*%
X124670000Y-35880000D02*
X142450000Y-35880000D01*
X142450000Y-71440000D02*
X124670000Y-71440000D01*
X129750000Y-34610000D02*
X137370000Y-34610000D01*
X131310000Y-66910000D02*
X131810000Y-66410000D01*
X142450000Y-35880000D02*
X142450000Y-71440000D01*
X135810000Y-68410000D02*
X135810000Y-66910000D01*
X131310000Y-66360000D02*
X135810000Y-66360000D01*
X131810000Y-68910000D02*
X131310000Y-68410000D01*
X129750000Y-40960000D02*
X129750000Y-35880000D01*
X135810000Y-68910000D02*
X131310000Y-68900000D01*
X129750000Y-40960000D02*
X137370000Y-40960000D01*
X135310000Y-68910000D02*
X135810000Y-68410000D01*
X132810000Y-68660000D02*
X134310000Y-68660000D01*
X133560000Y-55660000D02*
X128560000Y-60660000D01*
X128560000Y-60660000D02*
X133560000Y-65660000D01*
X129750000Y-35880000D02*
X129750000Y-34610000D01*
X137370000Y-40960000D02*
X137370000Y-35880000D01*
X135310000Y-66410000D02*
X135810000Y-66910000D01*
X131310000Y-68900000D02*
X131310000Y-66360000D01*
X134310000Y-66660000D02*
X132810000Y-66660000D01*
X138560000Y-60660000D02*
X133560000Y-55660000D01*
X135810000Y-66360000D02*
X135810000Y-68900000D01*
X131310000Y-66360000D02*
X131310000Y-66910000D01*
X133560000Y-65660000D02*
X138560000Y-60660000D01*
X137370000Y-34610000D02*
X137370000Y-35880000D01*
X124670000Y-71440000D02*
X124670000Y-35880000D01*
X132810000Y-66660000D02*
G75*
G03*
X132810000Y-68660000I0J-1000000D01*
G01*
X134310000Y-68660000D02*
G75*
G03*
X134310000Y-66660000I0J1000000D01*
G01*
G36*
X135123000Y-60609000D02*
G01*
X134869000Y-60863000D01*
X134615000Y-60482000D01*
X134869000Y-60228000D01*
X135123000Y-60609000D01*
G37*
D14*
X135123000Y-60609000D02*
X134869000Y-60863000D01*
X134615000Y-60482000D01*
X134869000Y-60228000D01*
X135123000Y-60609000D01*
G36*
X136647000Y-59974000D02*
G01*
X136393000Y-60228000D01*
X136139000Y-59847000D01*
X136393000Y-59593000D01*
X136647000Y-59974000D01*
G37*
X136647000Y-59974000D02*
X136393000Y-60228000D01*
X136139000Y-59847000D01*
X136393000Y-59593000D01*
X136647000Y-59974000D01*
G36*
X136266000Y-60355000D02*
G01*
X136012000Y-60609000D01*
X135758000Y-60228000D01*
X136012000Y-59974000D01*
X136266000Y-60355000D01*
G37*
X136266000Y-60355000D02*
X136012000Y-60609000D01*
X135758000Y-60228000D01*
X136012000Y-59974000D01*
X136266000Y-60355000D01*
G36*
X135885000Y-59847000D02*
G01*
X135631000Y-60101000D01*
X135377000Y-59720000D01*
X135631000Y-59466000D01*
X135885000Y-59847000D01*
G37*
X135885000Y-59847000D02*
X135631000Y-60101000D01*
X135377000Y-59720000D01*
X135631000Y-59466000D01*
X135885000Y-59847000D01*
G36*
X137028000Y-60482000D02*
G01*
X136774000Y-60736000D01*
X136520000Y-60355000D01*
X136774000Y-60101000D01*
X137028000Y-60482000D01*
G37*
X137028000Y-60482000D02*
X136774000Y-60736000D01*
X136520000Y-60355000D01*
X136774000Y-60101000D01*
X137028000Y-60482000D01*
G36*
X136647000Y-60863000D02*
G01*
X136393000Y-61117000D01*
X136139000Y-60736000D01*
X136393000Y-60482000D01*
X136647000Y-60863000D01*
G37*
X136647000Y-60863000D02*
X136393000Y-61117000D01*
X136139000Y-60736000D01*
X136393000Y-60482000D01*
X136647000Y-60863000D01*
G36*
X135504000Y-60228000D02*
G01*
X135250000Y-60482000D01*
X134996000Y-60101000D01*
X135250000Y-59847000D01*
X135504000Y-60228000D01*
G37*
X135504000Y-60228000D02*
X135250000Y-60482000D01*
X134996000Y-60101000D01*
X135250000Y-59847000D01*
X135504000Y-60228000D01*
G36*
X137409000Y-60990000D02*
G01*
X137155000Y-61244000D01*
X136901000Y-60863000D01*
X137155000Y-60609000D01*
X137409000Y-60990000D01*
G37*
X137409000Y-60990000D02*
X137155000Y-61244000D01*
X136901000Y-60863000D01*
X137155000Y-60609000D01*
X137409000Y-60990000D01*
D13*
%TO.C,FootSwitch1*%
X104000000Y-57820000D02*
X117400000Y-57820000D01*
X117400000Y-57820000D02*
X117400000Y-69820000D01*
X104000000Y-57820000D02*
X104000000Y-69820000D01*
X104000000Y-69820000D02*
X117400000Y-69820000D01*
%TO.C,FootSwitch6*%
X157340000Y-107240000D02*
X157340000Y-119240000D01*
X170740000Y-107240000D02*
X170740000Y-119240000D01*
X157340000Y-107240000D02*
X170740000Y-107240000D01*
X157340000Y-119240000D02*
X170740000Y-119240000D01*
%TO.C,R5*%
X61146000Y-123620000D02*
X59186000Y-123620000D01*
X49946000Y-125340000D02*
X59186000Y-125340000D01*
X59186000Y-125340000D02*
X59186000Y-121900000D01*
X47986000Y-123620000D02*
X49946000Y-123620000D01*
X49946000Y-121900000D02*
X49946000Y-125340000D01*
X59186000Y-121900000D02*
X49946000Y-121900000D01*
%TD*%
M02*
